<svg width="512" height="512" viewBox="0 0 512 512" fill="none" xmlns="http://www.w3.org/2000/svg">
<g clip-path="url(#clip0_1448_41)">
<path d="M437.367 100.621L404.321 470.82L255.778 512.001L107.644 470.878L74.6328 100.621H437.367Z" fill="#004CE8"/>
<path d="M376.03 447.247L404.27 130.895H256V480.524L376.03 447.247Z" fill="#0065F4"/>
<path d="M150.31 268.215L154.38 313.625H256L275.533 290.92L256 268.215H150.31Z" fill="#EBEBEB"/>
<path d="M256 176.305H255.843H142.132L146.26 221.716H256L275.533 199.01L256 176.305Z" fill="#EBEBEB"/>
<path d="M256 433.398L275.533 409.317L256 386.152L255.801 386.205L205.227 372.549L201.994 336.332H177.419H156.409L162.771 407.633L255.791 433.456L256 433.398Z" fill="#EBEBEB"/>
<path d="M311.761 313.627L306.49 372.521L255.843 386.191V433.435L348.937 407.634L349.62 399.962L360.291 280.411L361.399 268.217L369.597 176.305H255.843V221.716H319.831L315.699 268.217H255.843V313.627H311.761Z" fill="white"/>
<path d="M130 41.8047C130 36.9121 130.923 32.3564 132.769 28.1377C134.614 23.8896 137.28 20.2129 140.767 17.1074C144.282 13.9726 148.56 11.5117 153.599 9.7246C158.667 7.9375 164.395 7.0439 170.781 7.0439C176.377 7.0439 181.504 7.6152 186.162 8.7578C190.85 9.8711 195.2 11.5849 199.214 13.8994L192.798 24.4463C191.597 23.6552 190.205 22.9521 188.623 22.3369C187.07 21.7216 185.4 21.209 183.613 20.7988C181.856 20.3593 180.024 20.0224 178.12 19.7881C176.245 19.5537 174.385 19.4365 172.539 19.4365C168.086 19.4365 164.116 19.9931 160.63 21.1064C157.144 22.1904 154.199 23.7285 151.797 25.7207C149.424 27.6836 147.607 30.042 146.348 32.7959C145.117 35.5205 144.502 38.5234 144.502 41.8047C144.502 45.2031 145.147 48.3232 146.436 51.165C147.725 54.0068 149.585 56.4677 152.017 58.5478C154.478 60.5986 157.466 62.2099 160.981 63.3818C164.526 64.5244 168.525 65.0957 172.979 65.0957C175 65.0957 177.007 64.9492 178.999 64.6562C180.991 64.3633 182.91 63.9677 184.756 63.4697C186.631 62.9424 188.433 62.3271 190.161 61.624C191.89 60.8916 193.501 60.1006 194.995 59.2509L201.411 69.7978C197.661 72.2002 193.325 74.0898 188.403 75.4668C183.481 76.8144 178.252 77.4883 172.715 77.4883C165.654 77.4883 159.458 76.58 154.126 74.7636C148.794 72.9179 144.341 70.3984 140.767 67.205C137.192 63.9824 134.497 60.2031 132.681 55.8672C130.894 51.5019 130 46.8144 130 41.8047ZM220 56.1308C222.49 57.5371 225.01 58.8115 227.559 59.9541C230.137 61.0674 232.803 62.0195 235.557 62.8105C238.311 63.5722 241.196 64.1582 244.214 64.5683C247.261 64.9785 250.498 65.1836 253.926 65.1836C258.057 65.1836 261.572 64.9199 264.473 64.3925C267.373 63.8359 269.731 63.0888 271.548 62.1513C273.394 61.1845 274.727 60.042 275.547 58.7236C276.397 57.4052 276.821 55.9697 276.821 54.417C276.821 51.9267 275.781 49.9638 273.701 48.5283C271.621 47.0634 268.413 46.331 264.077 46.331C262.173 46.331 260.166 46.4629 258.057 46.7265C255.947 46.9609 253.809 47.2246 251.641 47.5175C249.502 47.8105 247.378 48.0888 245.269 48.3525C243.189 48.5869 241.226 48.7041 239.38 48.7041C236.304 48.7041 233.345 48.3086 230.503 47.5175C227.69 46.7265 225.186 45.54 222.988 43.958C220.82 42.3759 219.092 40.3984 217.803 38.0254C216.514 35.6523 215.869 32.8838 215.869 29.7197C215.869 27.8447 216.118 25.9843 216.616 24.1386C217.144 22.2929 217.964 20.5351 219.077 18.8652C220.22 17.166 221.685 15.5986 223.472 14.1631C225.259 12.6982 227.412 11.4384 229.932 10.3838C232.481 9.3291 235.41 8.5088 238.721 7.9228C242.061 7.3076 245.855 7 250.103 7C253.179 7 256.27 7.1758 259.375 7.5273C262.481 7.8496 265.498 8.3183 268.428 8.9336C271.387 9.5488 274.229 10.2959 276.953 11.1748C279.678 12.0244 282.212 12.9765 284.556 14.0312L278.447 25.2812C276.514 24.4316 274.434 23.6552 272.207 22.9521C269.981 22.2197 267.651 21.5898 265.22 21.0625C262.788 20.5351 260.269 20.125 257.661 19.832C255.083 19.5097 252.446 19.3486 249.751 19.3486C245.913 19.3486 242.749 19.6269 240.259 20.1836C237.798 20.7402 235.835 21.458 234.37 22.3369C232.905 23.1865 231.88 24.1533 231.294 25.2373C230.737 26.292 230.459 27.3466 230.459 28.4013C230.459 30.4521 231.382 32.1367 233.228 33.455C235.073 34.7441 237.886 35.3886 241.665 35.3886C243.189 35.3886 244.932 35.2861 246.895 35.081C248.887 34.8466 250.967 34.5976 253.135 34.334C255.332 34.0703 257.559 33.8359 259.815 33.6308C262.1 33.3965 264.312 33.2793 266.45 33.2793C270.493 33.2793 274.067 33.7334 277.173 34.6416C280.308 35.5498 282.93 36.8535 285.039 38.5527C287.148 40.2226 288.745 42.2588 289.829 44.6611C290.913 47.0342 291.455 49.7002 291.455 52.6592C291.455 56.6142 290.532 60.1445 288.687 63.25C286.87 66.3261 284.263 68.9336 280.864 71.0722C277.495 73.1816 273.423 74.7929 268.648 75.9062C263.872 76.9902 258.555 77.5322 252.695 77.5322C248.828 77.5322 245.049 77.2832 241.357 76.7851C237.666 76.3164 234.121 75.6425 230.723 74.7636C227.354 73.8554 224.131 72.7861 221.055 71.5556C218.008 70.2959 215.181 68.9189 212.573 67.4248L220 56.1308ZM310 56.1308C312.49 57.5371 315.01 58.8115 317.559 59.9541C320.137 61.0674 322.803 62.0195 325.557 62.8105C328.311 63.5722 331.196 64.1582 334.214 64.5683C337.261 64.9785 340.498 65.1836 343.926 65.1836C348.057 65.1836 351.572 64.9199 354.473 64.3925C357.373 63.8359 359.731 63.0888 361.548 62.1513C363.394 61.1845 364.727 60.042 365.547 58.7236C366.397 57.4052 366.821 55.9697 366.821 54.417C366.821 51.9267 365.781 49.9638 363.701 48.5283C361.621 47.0634 358.413 46.331 354.077 46.331C352.173 46.331 350.166 46.4629 348.057 46.7265C345.947 46.9609 343.809 47.2246 341.641 47.5175C339.502 47.8105 337.378 48.0888 335.269 48.3525C333.189 48.5869 331.226 48.7041 329.38 48.7041C326.304 48.7041 323.345 48.3086 320.503 47.5175C317.69 46.7265 315.186 45.54 312.988 43.958C310.82 42.3759 309.092 40.3984 307.803 38.0254C306.514 35.6523 305.869 32.8838 305.869 29.7197C305.869 27.8447 306.118 25.9843 306.616 24.1386C307.144 22.2929 307.964 20.5351 309.077 18.8652C310.22 17.166 311.685 15.5986 313.472 14.1631C315.259 12.6982 317.412 11.4384 319.932 10.3838C322.481 9.3291 325.41 8.5088 328.721 7.9228C332.061 7.3076 335.855 7 340.103 7C343.179 7 346.27 7.1758 349.375 7.5273C352.481 7.8496 355.498 8.3183 358.428 8.9336C361.387 9.5488 364.229 10.2959 366.953 11.1748C369.678 12.0244 372.212 12.9765 374.556 14.0312L368.447 25.2812C366.514 24.4316 364.434 23.6552 362.207 22.9521C359.981 22.2197 357.651 21.5898 355.22 21.0625C352.788 20.5351 350.269 20.125 347.661 19.832C345.083 19.5097 342.446 19.3486 339.751 19.3486C335.913 19.3486 332.749 19.6269 330.259 20.1836C327.798 20.7402 325.835 21.458 324.37 22.3369C322.905 23.1865 321.88 24.1533 321.294 25.2373C320.737 26.292 320.459 27.3466 320.459 28.4013C320.459 30.4521 321.382 32.1367 323.228 33.455C325.073 34.7441 327.886 35.3886 331.665 35.3886C333.189 35.3886 334.932 35.2861 336.895 35.081C338.887 34.8466 340.967 34.5976 343.135 34.334C345.332 34.0703 347.559 33.8359 349.815 33.6308C352.1 33.3965 354.312 33.2793 356.45 33.2793C360.493 33.2793 364.067 33.7334 367.173 34.6416C370.308 35.5498 372.93 36.8535 375.039 38.5527C377.148 40.2226 378.745 42.2588 379.829 44.6611C380.913 47.0342 381.455 49.7002 381.455 52.6592C381.455 56.6142 380.532 60.1445 378.687 63.25C376.87 66.3261 374.263 68.9336 370.864 71.0722C367.495 73.1816 363.423 74.7929 358.648 75.9062C353.872 76.9902 348.555 77.5322 342.695 77.5322C338.828 77.5322 335.049 77.2832 331.357 76.7851C327.666 76.3164 324.121 75.6425 320.723 74.7636C317.354 73.8554 314.131 72.7861 311.055 71.5556C308.008 70.2959 305.181 68.9189 302.573 67.4248L310 56.1308Z" fill="#75A3F9"/>
</g>
<defs>
<clipPath id="clip0_1448_41">
<rect width="512" height="512" fill="white"/>
</clipPath>
</defs>
</svg>
