<svg width="512" height="512" viewBox="0 0 512 512" fill="none" xmlns="http://www.w3.org/2000/svg">
<path d="M437.367 100.621L404.321 470.82L255.778 512.001L107.644 470.878L74.6328 100.621H437.367Z" fill="#004CE8"/>
<path d="M376.03 447.247L404.27 130.895H256V480.524L376.03 447.247Z" fill="#0065F4"/>
<path d="M150.31 268.215L154.38 313.625H256L275.533 290.92L256 268.215H150.31Z" fill="#EBEBEB"/>
<path d="M256 176.305H255.843H142.132L146.26 221.716H256L275.533 199.01L256 176.305Z" fill="#EBEBEB"/>
<path d="M256 433.398L275.533 409.317L256 386.152L255.801 386.205L205.227 372.549L201.994 336.332H177.419H156.409L162.771 407.633L255.791 433.456L256 433.398Z" fill="#EBEBEB"/>
<path d="M311.761 313.627L306.49 372.521L255.843 386.191V433.435L348.937 407.634L349.62 399.962L360.291 280.411L361.399 268.217L369.597 176.305H255.843V221.716H319.831L315.699 268.217H255.843V313.627H311.761Z" fill="white"/>
<path d="M129.581 54.2393C129.581 49.3467 130.504 44.791 132.35 40.5723C134.195 36.3242 136.861 32.6475 140.348 29.542C143.863 26.4072 148.141 23.9463 153.18 22.1592C158.248 20.3721 163.976 19.4785 170.362 19.4785C175.958 19.4785 181.085 20.0498 185.743 21.1924C190.431 22.3057 194.781 24.0195 198.795 26.334L192.379 36.8809C191.178 36.0898 189.786 35.3867 188.204 34.7715C186.651 34.1562 184.981 33.6436 183.194 33.2334C181.437 32.7939 179.605 32.457 177.701 32.2227C175.826 31.9883 173.966 31.8711 172.12 31.8711C167.667 31.8711 163.697 32.4277 160.211 33.541C156.725 34.625 153.78 36.1631 151.378 38.1553C149.005 40.1182 147.188 42.4766 145.929 45.2305C144.698 47.9551 144.083 50.958 144.083 54.2393C144.083 57.6377 144.728 60.7578 146.017 63.5996C147.306 66.4414 149.166 68.9023 151.598 70.9824C154.059 73.0332 157.047 74.6445 160.562 75.8164C164.107 76.959 168.106 77.5303 172.56 77.5303C174.581 77.5303 176.588 77.3838 178.58 77.0908C180.572 76.7979 182.491 76.4023 184.337 75.9043C186.212 75.377 188.014 74.7617 189.742 74.0586C191.471 73.3262 193.082 72.5352 194.576 71.6855L200.992 82.2324C197.242 84.6348 192.906 86.5244 187.984 87.9014C183.062 89.249 177.833 89.9229 172.296 89.9229C165.235 89.9229 159.039 89.0146 153.707 87.1982C148.375 85.3525 143.922 82.833 140.348 79.6396C136.773 76.417 134.078 72.6377 132.262 68.3018C130.475 63.9365 129.581 59.249 129.581 54.2393ZM219.581 68.5654C222.071 69.9717 224.591 71.2461 227.14 72.3887C229.718 73.502 232.384 74.4541 235.138 75.2451C237.892 76.0068 240.777 76.5928 243.795 77.0029C246.842 77.4131 250.079 77.6182 253.507 77.6182C257.638 77.6182 261.153 77.3545 264.054 76.8271C266.954 76.2705 269.312 75.5234 271.129 74.5859C272.975 73.6191 274.308 72.4766 275.128 71.1582C275.978 69.8398 276.402 68.4043 276.402 66.8516C276.402 64.3613 275.362 62.3984 273.282 60.9629C271.202 59.498 267.994 58.7656 263.658 58.7656C261.754 58.7656 259.747 58.8975 257.638 59.1611C255.528 59.3955 253.39 59.6592 251.222 59.9521C249.083 60.2451 246.959 60.5234 244.85 60.7871C242.77 61.0215 240.807 61.1387 238.961 61.1387C235.885 61.1387 232.926 60.7432 230.084 59.9521C227.271 59.1611 224.767 57.9746 222.569 56.3926C220.401 54.8105 218.673 52.833 217.384 50.46C216.095 48.0869 215.45 45.3184 215.45 42.1543C215.45 40.2793 215.699 38.4189 216.197 36.5732C216.725 34.7275 217.545 32.9697 218.658 31.2998C219.801 29.6006 221.266 28.0332 223.053 26.5977C224.84 25.1328 226.993 23.873 229.513 22.8184C232.062 21.7637 234.991 20.9434 238.302 20.3574C241.642 19.7422 245.436 19.4346 249.684 19.4346C252.76 19.4346 255.851 19.6104 258.956 19.9619C262.062 20.2842 265.079 20.7529 268.009 21.3682C270.968 21.9834 273.81 22.7305 276.534 23.6094C279.259 24.459 281.793 25.4111 284.137 26.4658L278.028 37.7158C276.095 36.8662 274.015 36.0898 271.788 35.3867C269.562 34.6543 267.232 34.0244 264.801 33.4971C262.369 32.9697 259.85 32.5596 257.242 32.2666C254.664 31.9443 252.027 31.7832 249.332 31.7832C245.494 31.7832 242.33 32.0615 239.84 32.6182C237.379 33.1748 235.416 33.8926 233.951 34.7715C232.486 35.6211 231.461 36.5879 230.875 37.6719C230.318 38.7266 230.04 39.7812 230.04 40.8359C230.04 42.8867 230.963 44.5713 232.809 45.8896C234.654 47.1787 237.467 47.8232 241.246 47.8232C242.77 47.8232 244.513 47.7207 246.476 47.5156C248.468 47.2812 250.548 47.0322 252.716 46.7686C254.913 46.5049 257.14 46.2705 259.396 46.0654C261.681 45.8311 263.893 45.7139 266.031 45.7139C270.074 45.7139 273.648 46.168 276.754 47.0762C279.889 47.9844 282.511 49.2881 284.62 50.9873C286.729 52.6572 288.326 54.6934 289.41 57.0957C290.494 59.4688 291.036 62.1348 291.036 65.0938C291.036 69.0488 290.113 72.5791 288.268 75.6846C286.451 78.7607 283.844 81.3682 280.445 83.5068C277.076 85.6162 273.004 87.2275 268.229 88.3408C263.453 89.4248 258.136 89.9668 252.276 89.9668C248.409 89.9668 244.63 89.7178 240.938 89.2197C237.247 88.751 233.702 88.0771 230.304 87.1982C226.935 86.29 223.712 85.2207 220.636 83.9902C217.589 82.7305 214.762 81.3535 212.154 79.8594L219.581 68.5654ZM309.581 68.5654C312.071 69.9717 314.591 71.2461 317.14 72.3887C319.718 73.502 322.384 74.4541 325.138 75.2451C327.892 76.0068 330.777 76.5928 333.795 77.0029C336.842 77.4131 340.079 77.6182 343.507 77.6182C347.638 77.6182 351.153 77.3545 354.054 76.8271C356.954 76.2705 359.312 75.5234 361.129 74.5859C362.975 73.6191 364.308 72.4766 365.128 71.1582C365.978 69.8398 366.402 68.4043 366.402 66.8516C366.402 64.3613 365.362 62.3984 363.282 60.9629C361.202 59.498 357.994 58.7656 353.658 58.7656C351.754 58.7656 349.747 58.8975 347.638 59.1611C345.528 59.3955 343.39 59.6592 341.222 59.9521C339.083 60.2451 336.959 60.5234 334.85 60.7871C332.77 61.0215 330.807 61.1387 328.961 61.1387C325.885 61.1387 322.926 60.7432 320.084 59.9521C317.271 59.1611 314.767 57.9746 312.569 56.3926C310.401 54.8105 308.673 52.833 307.384 50.46C306.095 48.0869 305.45 45.3184 305.45 42.1543C305.45 40.2793 305.699 38.4189 306.197 36.5732C306.725 34.7275 307.545 32.9697 308.658 31.2998C309.801 29.6006 311.266 28.0332 313.053 26.5977C314.84 25.1328 316.993 23.873 319.513 22.8184C322.062 21.7637 324.991 20.9434 328.302 20.3574C331.642 19.7422 335.436 19.4346 339.684 19.4346C342.76 19.4346 345.851 19.6104 348.956 19.9619C352.062 20.2842 355.079 20.7529 358.009 21.3682C360.968 21.9834 363.81 22.7305 366.534 23.6094C369.259 24.459 371.793 25.4111 374.137 26.4658L368.028 37.7158C366.095 36.8662 364.015 36.0898 361.788 35.3867C359.562 34.6543 357.232 34.0244 354.801 33.4971C352.369 32.9697 349.85 32.5596 347.242 32.2666C344.664 31.9443 342.027 31.7832 339.332 31.7832C335.494 31.7832 332.33 32.0615 329.84 32.6182C327.379 33.1748 325.416 33.8926 323.951 34.7715C322.486 35.6211 321.461 36.5879 320.875 37.6719C320.318 38.7266 320.04 39.7812 320.04 40.8359C320.04 42.8867 320.963 44.5713 322.809 45.8896C324.654 47.1787 327.467 47.8232 331.246 47.8232C332.77 47.8232 334.513 47.7207 336.476 47.5156C338.468 47.2812 340.548 47.0322 342.716 46.7686C344.913 46.5049 347.14 46.2705 349.396 46.0654C351.681 45.8311 353.893 45.7139 356.031 45.7139C360.074 45.7139 363.648 46.168 366.754 47.0762C369.889 47.9844 372.511 49.2881 374.62 50.9873C376.729 52.6572 378.326 54.6934 379.41 57.0957C380.494 59.4688 381.036 62.1348 381.036 65.0938C381.036 69.0488 380.113 72.5791 378.268 75.6846C376.451 78.7607 373.844 81.3682 370.445 83.5068C367.076 85.6162 363.004 87.2275 358.229 88.3408C353.453 89.4248 348.136 89.9668 342.276 89.9668C338.409 89.9668 334.63 89.7178 330.938 89.2197C327.247 88.751 323.702 88.0771 320.304 87.1982C316.935 86.29 313.712 85.2207 310.636 83.9902C307.589 82.7305 304.762 81.3535 302.154 79.8594L309.581 68.5654Z" fill="#021E57"/>
</svg>
