<svg width="513" height="512" viewBox="0 0 513 512" fill="none" xmlns="http://www.w3.org/2000/svg">
<g clip-path="url(#clip0_1448_30)">
<path d="M108.1 471.002L75.1001 100.602H437.9L404.9 470.802L256.2 512.002" fill="#FF4C1E"/>
<path d="M256.5 480.5V131H404.8L376.5 447L256.5 480.5Z" fill="#FF651E"/>
<path d="M142.5 176.301H256.5L273.451 199.001L256.5 221.701H192.3L196.5 268.201H256.5L273.451 291.75L256.5 313.501H154.9L142.5 176.301ZM156.9 336.301H202.5L205.7 372.601L256.5 386.201L275.627 408.861L256.5 433.601L163.3 407.601L156.9 336.301Z" fill="#EBEBEB"/>
<path d="M370.1 176.301H256.3V221.701H365.9L370.1 176.301ZM361.8 268.201H256.3V313.601H312.3L307 372.601L256.3 386.201V433.401L349.3 407.601L361.8 268.201Z" fill="white"/>
<path d="M98 9H111.931V26.9297H154.645V9H168.62V77.6865H154.645V38.8388H111.931V77.6865H98V9ZM208.83 21.2168H183.474V9H248.117V21.2168H222.761V77.6865H208.83V21.2168ZM263.059 9H276.989L301.95 34.0488L326.911 9H340.842V77.6865H326.911V28.292L301.95 52.3301L276.989 28.292V77.6865H263.059V9ZM360.397 9H374.328V65.4697H414.274V77.6865H360.397V9Z" fill="#75A3F9"/>
</g>
<defs>
<clipPath id="clip0_1448_30">
<rect width="512" height="512" fill="white" transform="translate(0.5)"/>
</clipPath>
</defs>
</svg>
