<svg width="512" height="512" viewBox="0 0 512 512" fill="none" xmlns="http://www.w3.org/2000/svg">
<path d="M107.6 471.002L74.6001 100.602H437.4L404.4 470.802L255.7 512.002" fill="#FF4C1E"/>
<path d="M256 480.5V131H404.3L376 447L256 480.5Z" fill="#FF651E"/>
<path d="M142 176.301H256L272.951 199.001L256 221.701H191.8L196 268.201H256L272.951 291.75L256 313.501H154.4L142 176.301ZM156.4 336.301H202L205.2 372.601L256 386.201L275.127 408.861L256 433.601L162.8 407.601L156.4 336.301Z" fill="#EBEBEB"/>
<path d="M369.6 176.301H255.8V221.701H365.4L369.6 176.301ZM361.3 268.201H255.8V313.601H311.8L306.5 372.601L255.8 386.201V433.401L348.8 407.601L361.3 268.201Z" fill="white"/>
<path d="M99.7119 20.3135H113.643V38.2432H156.357V20.3135H170.332V89H156.357V50.1523H113.643V89H99.7119V20.3135ZM210.542 32.5303H185.186V20.3135H249.829V32.5303H224.473V89H210.542V32.5303ZM264.771 20.3135H278.701L303.662 45.3623L328.623 20.3135H342.554V89H328.623V39.6055L303.662 63.6436L278.701 39.6055V89H264.771V20.3135ZM362.109 20.3135H376.04V76.7832H415.986V89H362.109V20.3135Z" fill="#021E57"/>
</svg>
