<svg width="512" height="512" viewBox="0 0 512 512" fill="none" xmlns="http://www.w3.org/2000/svg">
<g clip-path="url(#clip0_1514_68)">
<path d="M107.6 471.002L74.5996 100.602H437.4L404.4 470.802L255.7 512.002" fill="#FFDF00"/>
<path d="M256 480.5V131H404.3L376 447L256 480.5Z" fill="#F9EA81"/>
<path d="M3.10693 90.4849C4.7915 89.4595 6.23193 88.3853 7.42822 87.2622C8.64893 86.1392 9.6499 84.894 10.4312 83.5269C11.2124 82.1841 11.7861 80.6826 12.1523 79.0225C12.5186 77.3379 12.7017 75.4336 12.7017 73.3096V23.7612H24.3105V71.2222C24.3105 73.7612 24.2007 76.0806 23.981 78.1802C23.7612 80.2554 23.395 82.1597 22.8823 83.8931C22.394 85.6509 21.7227 87.2622 20.8682 88.7271C20.0381 90.1919 19.0005 91.5835 17.7554 92.9019C16.5347 94.2202 15.082 95.4897 13.3975 96.7104C11.7373 97.9312 9.80859 99.1641 7.61133 100.409L3.10693 90.4849ZM35.7729 67.377C35.7729 65.3018 36.2246 63.4097 37.1279 61.7007C38.0312 59.9917 39.3862 58.5269 41.1929 57.3062C42.9995 56.061 45.2456 55.1089 47.9312 54.4497C50.6411 53.7661 53.7905 53.4243 57.3794 53.4243C60.0405 53.4243 62.8359 53.6196 65.7656 54.0103C68.7197 54.4009 71.7593 54.999 74.8843 55.8047C74.7622 54.4375 74.3472 53.1802 73.6392 52.0327C72.9312 50.8608 71.9424 49.8599 70.6729 49.0298C69.4277 48.1753 67.9141 47.5161 66.1318 47.0522C64.374 46.5884 62.3721 46.3564 60.126 46.3564C58.9053 46.3564 57.5625 46.4297 56.0977 46.5762C54.6328 46.7227 53.1191 46.9424 51.5566 47.2354C49.9941 47.5283 48.4438 47.8945 46.9058 48.334C45.3921 48.7734 43.9761 49.2983 42.6577 49.9087L39.3618 41.0098C40.9976 40.4238 42.7432 39.8867 44.5986 39.3984C46.4785 38.9102 48.395 38.4951 50.3481 38.1533C52.3013 37.7871 54.2544 37.5063 56.2075 37.311C58.1606 37.1157 60.0527 37.0181 61.8838 37.0181C69.9648 37.0181 75.9707 39.0811 79.9014 43.207C83.832 47.333 85.7974 53.6562 85.7974 62.1768V81H74.9575V76.9351C73.8345 77.5942 72.6016 78.2168 71.2588 78.8027C69.9404 79.3887 68.5 79.9014 66.9375 80.3408C65.375 80.7803 63.6904 81.1221 61.8838 81.3662C60.1016 81.6348 58.2095 81.769 56.2075 81.769C52.8384 81.769 49.8721 81.4028 47.3086 80.6704C44.7695 79.938 42.6455 78.9248 40.9365 77.6309C39.2275 76.3369 37.9336 74.8232 37.0547 73.0898C36.2002 71.332 35.7729 69.4277 35.7729 67.377ZM47.1987 67.0107C47.1987 67.7188 47.3818 68.4023 47.748 69.0615C48.1143 69.6963 48.7002 70.27 49.5059 70.7827C50.3115 71.271 51.3369 71.6738 52.582 71.9912C53.8516 72.2842 55.3774 72.4307 57.1597 72.4307C59.064 72.4307 60.9072 72.2598 62.6895 71.918C64.4717 71.5762 66.1318 71.1245 67.6699 70.563C69.208 70.0015 70.5996 69.3545 71.8447 68.6221C73.0898 67.8896 74.1274 67.1328 74.9575 66.3516V64.4473C73.2974 63.9834 71.6494 63.5928 70.0137 63.2754C68.4023 62.958 66.8521 62.7139 65.3628 62.543C63.8979 62.3477 62.5063 62.2134 61.188 62.1401C59.894 62.0669 58.7588 62.0303 57.7822 62.0303C55.7559 62.0303 54.0713 62.1646 52.7285 62.4331C51.3857 62.7017 50.2993 63.0679 49.4692 63.5317C48.6392 63.9712 48.0532 64.4961 47.7114 65.1064C47.3696 65.7168 47.1987 66.3516 47.1987 67.0107ZM94.1836 37.7505H106.745L117.987 63.7515L120.917 71.0391L123.847 63.7515L135.089 37.7505H147.65L127.179 81H114.655L94.1836 37.7505ZM153.18 67.377C153.18 65.3018 153.632 63.4097 154.535 61.7007C155.438 59.9917 156.793 58.5269 158.6 57.3062C160.407 56.061 162.653 55.1089 165.338 54.4497C168.048 53.7661 171.198 53.4243 174.787 53.4243C177.448 53.4243 180.243 53.6196 183.173 54.0103C186.127 54.4009 189.167 54.999 192.292 55.8047C192.169 54.4375 191.754 53.1802 191.046 52.0327C190.338 50.8608 189.35 49.8599 188.08 49.0298C186.835 48.1753 185.321 47.5161 183.539 47.0522C181.781 46.5884 179.779 46.3564 177.533 46.3564C176.312 46.3564 174.97 46.4297 173.505 46.5762C172.04 46.7227 170.526 46.9424 168.964 47.2354C167.401 47.5283 165.851 47.8945 164.313 48.334C162.799 48.7734 161.383 49.2983 160.065 49.9087L156.769 41.0098C158.405 40.4238 160.15 39.8867 162.006 39.3984C163.886 38.9102 165.802 38.4951 167.755 38.1533C169.708 37.7871 171.662 37.5063 173.615 37.311C175.568 37.1157 177.46 37.0181 179.291 37.0181C187.372 37.0181 193.378 39.0811 197.309 43.207C201.239 47.333 203.205 53.6562 203.205 62.1768V81H192.365V76.9351C191.242 77.5942 190.009 78.2168 188.666 78.8027C187.348 79.3887 185.907 79.9014 184.345 80.3408C182.782 80.7803 181.098 81.1221 179.291 81.3662C177.509 81.6348 175.617 81.769 173.615 81.769C170.246 81.769 167.279 81.4028 164.716 80.6704C162.177 79.938 160.053 78.9248 158.344 77.6309C156.635 76.3369 155.341 74.8232 154.462 73.0898C153.607 71.332 153.18 69.4277 153.18 67.377ZM164.606 67.0107C164.606 67.7188 164.789 68.4023 165.155 69.0615C165.521 69.6963 166.107 70.27 166.913 70.7827C167.719 71.271 168.744 71.6738 169.989 71.9912C171.259 72.2842 172.785 72.4307 174.567 72.4307C176.471 72.4307 178.314 72.2598 180.097 71.918C181.879 71.5762 183.539 71.1245 185.077 70.563C186.615 70.0015 188.007 69.3545 189.252 68.6221C190.497 67.8896 191.535 67.1328 192.365 66.3516V64.4473C190.705 63.9834 189.057 63.5928 187.421 63.2754C185.81 62.958 184.259 62.7139 182.77 62.543C181.305 62.3477 179.914 62.2134 178.595 62.1401C177.301 62.0669 176.166 62.0303 175.189 62.0303C173.163 62.0303 171.479 62.1646 170.136 62.4331C168.793 62.7017 167.707 63.0679 166.876 63.5317C166.046 63.9712 165.46 64.4961 165.119 65.1064C164.777 65.7168 164.606 66.3516 164.606 67.0107ZM221.588 63.9712C223.664 65.1431 225.763 66.2051 227.887 67.1572C230.036 68.085 232.257 68.8784 234.552 69.5376C236.847 70.1724 239.252 70.6606 241.767 71.0024C244.306 71.3442 247.003 71.5151 249.86 71.5151C253.302 71.5151 256.232 71.2954 258.649 70.856C261.066 70.3921 263.031 69.7695 264.545 68.9883C266.083 68.1826 267.194 67.2305 267.877 66.1318C268.585 65.0332 268.939 63.8369 268.939 62.543C268.939 60.4678 268.073 58.832 266.339 57.6357C264.606 56.415 261.933 55.8047 258.319 55.8047C256.732 55.8047 255.06 55.9146 253.302 56.1343C251.544 56.3296 249.762 56.5493 247.956 56.7935C246.173 57.0376 244.403 57.2695 242.646 57.4893C240.912 57.6846 239.276 57.7822 237.738 57.7822C235.175 57.7822 232.709 57.4526 230.341 56.7935C227.997 56.1343 225.91 55.1455 224.079 53.8271C222.272 52.5088 220.832 50.8608 219.757 48.8833C218.683 46.9058 218.146 44.5986 218.146 41.9619C218.146 40.3994 218.354 38.8491 218.769 37.311C219.208 35.7729 219.892 34.3081 220.819 32.9165C221.771 31.5005 222.992 30.1943 224.481 28.998C225.971 27.7773 227.765 26.7275 229.865 25.8486C231.989 24.9697 234.43 24.2861 237.189 23.7979C239.972 23.2852 243.134 23.0288 246.674 23.0288C249.237 23.0288 251.813 23.1753 254.401 23.4683C256.989 23.7368 259.503 24.1274 261.945 24.6401C264.411 25.1528 266.779 25.7754 269.049 26.5078C271.32 27.2158 273.432 28.0093 275.385 28.8882L270.294 38.2632C268.683 37.5552 266.95 36.9082 265.094 36.3223C263.239 35.7119 261.298 35.187 259.271 34.7476C257.245 34.3081 255.146 33.9663 252.973 33.7222C250.824 33.4536 248.627 33.3193 246.381 33.3193C243.183 33.3193 240.546 33.5513 238.471 34.0151C236.42 34.479 234.784 35.0771 233.563 35.8096C232.343 36.5176 231.488 37.3232 231 38.2266C230.536 39.1055 230.304 39.9844 230.304 40.8633C230.304 42.5723 231.073 43.9761 232.611 45.0747C234.149 46.1489 236.493 46.686 239.643 46.686C240.912 46.686 242.365 46.6006 244 46.4297C245.661 46.2344 247.394 46.0269 249.201 45.8071C251.032 45.5874 252.887 45.3921 254.767 45.2212C256.671 45.0259 258.515 44.9282 260.297 44.9282C263.666 44.9282 266.645 45.3066 269.232 46.0635C271.845 46.8203 274.03 47.9067 275.788 49.3228C277.545 50.7144 278.876 52.4111 279.779 54.4131C280.683 56.3906 281.134 58.6123 281.134 61.0781C281.134 64.374 280.365 67.3159 278.827 69.9038C277.313 72.4673 275.141 74.6401 272.309 76.4224C269.501 78.1802 266.107 79.5229 262.128 80.4507C258.148 81.354 253.717 81.8057 248.834 81.8057C245.612 81.8057 242.462 81.5981 239.386 81.1831C236.31 80.7925 233.356 80.231 230.524 79.4985C227.716 78.7417 225.031 77.8506 222.467 76.8252C219.928 75.7754 217.572 74.6279 215.399 73.3828L221.588 63.9712ZM289.96 59.5034C289.96 56.3296 290.534 53.3755 291.681 50.6411C292.853 47.8823 294.55 45.502 296.771 43.5C299.018 41.4736 301.752 39.8867 304.975 38.7393C308.222 37.5918 311.92 37.0181 316.071 37.0181C317.877 37.0181 319.696 37.1279 321.527 37.3477C323.358 37.5674 325.116 37.8848 326.801 38.2998C328.51 38.6904 330.109 39.1665 331.598 39.728C333.087 40.2651 334.381 40.8633 335.48 41.5225L330.463 49.689C328.095 48.5903 325.849 47.7847 323.725 47.272C321.625 46.7593 319.489 46.5029 317.316 46.5029C314.826 46.5029 312.592 46.8325 310.614 47.4917C308.637 48.1265 306.952 49.0298 305.561 50.2017C304.193 51.3491 303.144 52.7163 302.411 54.3032C301.703 55.8657 301.349 57.5747 301.349 59.4302C301.349 61.2856 301.728 63.0068 302.484 64.5938C303.266 66.1562 304.352 67.5112 305.744 68.6587C307.16 69.7817 308.856 70.6729 310.834 71.332C312.836 71.9668 315.058 72.2842 317.499 72.2842C320.185 72.2842 322.711 71.9058 325.08 71.1489C327.472 70.3921 329.694 69.3789 331.745 68.1094L336.762 76.2759C335.468 77.0571 334.064 77.7896 332.55 78.4731C331.037 79.1323 329.413 79.7061 327.68 80.1943C325.971 80.6826 324.164 81.061 322.26 81.3296C320.38 81.6226 318.427 81.769 316.4 81.769C312.274 81.769 308.576 81.2075 305.304 80.0845C302.033 78.9614 299.262 77.4111 296.991 75.4336C294.721 73.4316 292.975 71.0757 291.754 68.3657C290.558 65.6558 289.96 62.7017 289.96 59.5034ZM348.444 37.7871H359.284V44.0127C361.676 42.2305 364.203 40.6924 366.864 39.3984C369.525 38.1045 372.174 37.1157 374.811 36.4321L377.997 46.3564C373.822 46.7715 370.148 47.7114 366.974 49.1763C363.825 50.6167 361.261 52.6553 359.284 55.292V81H348.444V37.7871ZM391.803 31.8911C390.729 31.8911 389.752 31.7446 388.874 31.4517C388.019 31.1343 387.287 30.7192 386.676 30.2065C386.066 29.6694 385.59 29.0591 385.248 28.3755C384.931 27.6675 384.772 26.9229 384.772 26.1416C384.772 25.3359 384.931 24.5913 385.248 23.9077C385.59 23.1997 386.066 22.5894 386.676 22.0767C387.287 21.564 388.019 21.1611 388.874 20.8682C389.752 20.5508 390.729 20.3921 391.803 20.3921C392.902 20.3921 393.878 20.5508 394.733 20.8682C395.612 21.1611 396.356 21.564 396.967 22.0767C397.577 22.5894 398.041 23.1997 398.358 23.9077C398.7 24.5913 398.871 25.3359 398.871 26.1416C398.871 26.9229 398.7 27.6675 398.358 28.3755C398.041 29.0591 397.577 29.6694 396.967 30.2065C396.356 30.7192 395.612 31.1343 394.733 31.4517C393.878 31.7446 392.902 31.8911 391.803 31.8911ZM386.383 37.7871H397.223V81H386.383V37.7871ZM421.686 98.6514H410.846V37.7871H421.686V41.8521C422.638 41.1929 423.761 40.5703 425.055 39.9844C426.349 39.3984 427.741 38.8857 429.23 38.4463C430.719 38.0068 432.257 37.665 433.844 37.4209C435.431 37.1523 437.018 37.0181 438.605 37.0181C442.267 37.0181 445.624 37.5552 448.676 38.6294C451.752 39.7036 454.389 41.2173 456.586 43.1704C458.783 45.1235 460.492 47.4673 461.713 50.2017C462.958 52.9116 463.581 55.9146 463.581 59.2104C463.581 62.6528 462.934 65.7656 461.64 68.5488C460.346 71.3076 458.551 73.6758 456.256 75.6533C453.986 77.6064 451.276 79.1201 448.126 80.1943C445.001 81.2441 441.608 81.769 437.946 81.769C436.383 81.769 434.833 81.6714 433.295 81.4761C431.781 81.2808 430.316 81.0122 428.9 80.6704C427.509 80.3286 426.19 79.9258 424.945 79.4619C423.725 78.9736 422.638 78.4487 421.686 77.8872V98.6514ZM421.686 67.4136C422.785 68.2925 423.944 69.0371 425.165 69.6475C426.386 70.2578 427.631 70.7583 428.9 71.1489C430.17 71.5396 431.452 71.8325 432.746 72.0278C434.04 72.1987 435.297 72.2842 436.518 72.2842C439.008 72.2842 441.217 71.9546 443.146 71.2954C445.099 70.6118 446.735 69.6841 448.053 68.5122C449.396 67.3403 450.421 65.9609 451.129 64.374C451.837 62.7871 452.191 61.0659 452.191 59.2104C452.191 57.4771 451.837 55.8413 451.129 54.3032C450.446 52.7651 449.445 51.4224 448.126 50.2749C446.833 49.103 445.258 48.1875 443.402 47.5283C441.571 46.8447 439.508 46.5029 437.213 46.5029C435.749 46.5029 434.284 46.6494 432.819 46.9424C431.354 47.2109 429.938 47.6016 428.571 48.1143C427.228 48.627 425.958 49.2495 424.762 49.9819C423.59 50.7144 422.565 51.5322 421.686 52.4355V67.4136ZM480.353 45.917H469.916V37.7871H480.353V24.3472H491.193V37.7871H501.63V45.917H491.193V81H480.353V45.917Z" fill="#021E57"/>
<path d="M280.771 335.974C287.22 346.517 295.61 354.266 310.45 354.266C322.916 354.266 330.879 348.027 330.879 339.408C330.879 329.078 322.698 325.42 308.976 319.411L301.455 316.179C279.744 306.918 265.321 295.317 265.321 270.791C265.321 248.199 282.514 231 309.382 231C328.511 231 342.263 237.666 352.173 255.119L328.745 270.18C323.587 260.92 318.022 257.271 309.382 257.271C300.57 257.271 294.985 262.869 294.985 270.18C294.985 279.218 300.575 282.876 313.483 288.473L321.005 291.699C346.567 302.675 361 313.864 361 339.021C361 366.142 339.721 381 311.145 381C283.204 381 265.153 367.668 256.32 350.195L280.771 335.974ZM174.49 338.584C179.216 346.98 183.516 354.078 193.853 354.078C203.737 354.078 209.973 350.206 209.973 335.15V232.721H240.059V335.556C240.059 366.747 221.794 380.944 195.134 380.944C171.045 380.944 157.095 368.462 150 353.429L174.49 338.584Z" fill="#021E57"/>
</g>
<defs>
<clipPath id="clip0_1514_68">
<rect width="512" height="512" fill="white"/>
</clipPath>
</defs>
</svg>
