<svg width="513" height="512" viewBox="0 0 513 512" fill="none" xmlns="http://www.w3.org/2000/svg">
<g clip-path="url(#clip0_1448_49)">
<mask id="mask0_1448_49" style="mask-type:luminance" maskUnits="userSpaceOnUse" x="0" y="0" width="513" height="512">
<path d="M512.5 0H0.5V512H512.5V0Z" fill="white"/>
</mask>
<g mask="url(#mask0_1448_49)">
<path d="M108.1 471.002L75.0996 100.602H437.9L404.9 470.802L256.2 512.002" fill="#FFDF00"/>
<path d="M256.5 480.5V131H404.8L376.5 447L256.5 480.5Z" fill="#F9EA81"/>
<path d="M7 70.0928C8.68457 69.0674 10.125 67.9932 11.3213 66.8701C12.542 65.7471 13.543 64.5019 14.3243 63.1348C15.1055 61.792 15.6792 60.2905 16.0454 58.6304C16.4117 56.9458 16.5948 55.0415 16.5948 52.9175V3.3691H28.2036V50.8301C28.2036 53.3691 28.0938 55.6885 27.8741 57.7881C27.6543 59.8633 27.2881 61.7676 26.7754 63.501C26.2871 65.2588 25.6158 66.8701 24.7613 68.335C23.9312 69.7998 22.8936 71.1914 21.6485 72.5098C20.4278 73.8281 18.9751 75.0976 17.2906 76.3183C15.6304 77.5391 13.7017 78.772 11.5044 80.0169L7 70.0928ZM39.666 46.9849C39.666 44.9097 40.1177 43.0176 41.021 41.3086C41.9243 39.5996 43.2793 38.1348 45.086 36.9141C46.8926 35.6689 49.1387 34.7168 51.8243 34.0576C54.5342 33.374 57.6836 33.0322 61.2725 33.0322C63.9336 33.0322 66.729 33.2275 69.6587 33.6182C72.6128 34.0088 75.6524 34.6069 78.7774 35.4126C78.6553 34.0454 78.2403 32.7881 77.5323 31.6406C76.8243 30.4687 75.8355 29.4678 74.566 28.6377C73.3208 27.7832 71.8072 27.124 70.0249 26.6601C68.2671 26.1963 66.2652 25.9643 64.0191 25.9643C62.7984 25.9643 61.4556 26.0376 59.9908 26.1841C58.5259 26.3306 57.0122 26.5503 55.4497 26.8433C53.8872 27.1362 52.3369 27.5024 50.7989 27.9419C49.2852 28.3813 47.8692 28.9062 46.5508 29.5166L43.2549 20.6177C44.8907 20.0317 46.6363 19.4946 48.4917 19.0063C50.3716 18.5181 52.2881 18.103 54.2412 17.7612C56.1944 17.395 58.1475 17.1142 60.1006 16.9189C62.0537 16.7236 63.9458 16.626 65.7769 16.626C73.8579 16.626 79.8638 18.689 83.7945 22.8149C87.7251 26.9409 89.6905 33.2641 89.6905 41.7847V60.6079H78.8506V56.543C77.7276 57.2021 76.4947 57.8247 75.1519 58.4106C73.8335 58.9966 72.3931 59.5093 70.8306 59.9487C69.2681 60.3882 67.5835 60.73 65.7769 60.9741C63.9947 61.2427 62.1026 61.3769 60.1006 61.3769C56.7315 61.3769 53.7652 61.0107 51.2017 60.2783C48.6626 59.5459 46.5386 58.5327 44.8296 57.2388C43.1206 55.9448 41.8267 54.4311 40.9478 52.6977C40.0933 50.9399 39.666 49.0356 39.666 46.9849ZM51.0918 46.6186C51.0918 47.3267 51.2749 48.0102 51.6411 48.6694C52.0074 49.3042 52.5933 49.8779 53.399 50.3906C54.2046 50.8789 55.23 51.2817 56.4751 51.5991C57.7447 51.8921 59.2705 52.0386 61.0528 52.0386C62.9571 52.0386 64.8003 51.8677 66.5826 51.5259C68.3648 51.1841 70.0249 50.7324 71.563 50.1709C73.1011 49.6094 74.4927 48.9624 75.7378 48.23C76.9829 47.4975 78.0205 46.7407 78.8506 45.9595V44.0552C77.1905 43.5913 75.5425 43.2007 73.9068 42.8833C72.2954 42.5659 70.7452 42.3218 69.2559 42.1509C67.791 41.9556 66.3994 41.8213 65.0811 41.748C63.7871 41.6748 62.6519 41.6382 61.6753 41.6382C59.649 41.6382 57.9644 41.7725 56.6216 42.041C55.2788 42.3096 54.1924 42.6758 53.3623 43.1396C52.5323 43.5791 51.9463 44.104 51.6045 44.7143C51.2627 45.3247 51.0918 45.9595 51.0918 46.6186ZM98.0767 17.3584H110.638L121.88 43.3594L124.81 50.647L127.74 43.3594L138.982 17.3584H151.543L131.072 60.6079H118.548L98.0767 17.3584ZM157.073 46.9849C157.073 44.9097 157.525 43.0176 158.428 41.3086C159.331 39.5996 160.686 38.1348 162.493 36.9141C164.3 35.6689 166.546 34.7168 169.231 34.0576C171.941 33.374 175.091 33.0322 178.68 33.0322C181.341 33.0322 184.136 33.2275 187.066 33.6182C190.02 34.0088 193.06 34.6069 196.185 35.4126C196.062 34.0454 195.647 32.7881 194.939 31.6406C194.231 30.4687 193.243 29.4678 191.973 28.6377C190.728 27.7832 189.214 27.124 187.432 26.6601C185.674 26.1963 183.672 25.9643 181.426 25.9643C180.205 25.9643 178.863 26.0376 177.398 26.1841C175.933 26.3306 174.419 26.5503 172.857 26.8433C171.294 27.1362 169.744 27.5024 168.206 27.9419C166.692 28.3813 165.276 28.9062 163.958 29.5166L160.662 20.6177C162.298 20.0317 164.043 19.4946 165.899 19.0063C167.779 18.5181 169.695 18.103 171.648 17.7612C173.601 17.395 175.555 17.1142 177.508 16.9189C179.461 16.7236 181.353 16.626 183.184 16.626C191.265 16.626 197.271 18.689 201.202 22.8149C205.132 26.9409 207.098 33.2641 207.098 41.7847V60.6079H196.258V56.543C195.135 57.2021 193.902 57.8247 192.559 58.4106C191.241 58.9966 189.8 59.5093 188.238 59.9487C186.675 60.3882 184.991 60.73 183.184 60.9741C181.402 61.2427 179.51 61.3769 177.508 61.3769C174.139 61.3769 171.172 61.0107 168.609 60.2783C166.07 59.5459 163.946 58.5327 162.237 57.2388C160.528 55.9448 159.234 54.4311 158.355 52.6977C157.5 50.9399 157.073 49.0356 157.073 46.9849ZM168.499 46.6186C168.499 47.3267 168.682 48.0102 169.048 48.6694C169.414 49.3042 170 49.8779 170.806 50.3906C171.612 50.8789 172.637 51.2817 173.882 51.5991C175.152 51.8921 176.678 52.0386 178.46 52.0386C180.364 52.0386 182.207 51.8677 183.99 51.5259C185.772 51.1841 187.432 50.7324 188.97 50.1709C190.508 49.6094 191.9 48.9624 193.145 48.23C194.39 47.4975 195.428 46.7407 196.258 45.9595V44.0552C194.598 43.5913 192.95 43.2007 191.314 42.8833C189.703 42.5659 188.152 42.3218 186.663 42.1509C185.198 41.9556 183.807 41.8213 182.488 41.748C181.194 41.6748 180.059 41.6382 179.082 41.6382C177.056 41.6382 175.372 41.7725 174.029 42.041C172.686 42.3096 171.6 42.6758 170.769 43.1396C169.939 43.5791 169.353 44.104 169.012 44.7143C168.67 45.3247 168.499 45.9595 168.499 46.6186ZM225.481 43.5791C227.557 44.751 229.656 45.813 231.78 46.7651C233.929 47.6929 236.15 48.4863 238.445 49.1455C240.74 49.7803 243.145 50.2685 245.66 50.6103C248.199 50.9521 250.896 51.123 253.753 51.123C257.195 51.123 260.125 50.9033 262.542 50.4639C264.959 50 266.924 49.3774 268.438 48.5962C269.976 47.7905 271.087 46.8384 271.77 45.7397C272.478 44.6411 272.832 43.4448 272.832 42.1509C272.832 40.0757 271.966 38.4399 270.232 37.2436C268.499 36.0229 265.826 35.4126 262.212 35.4126C260.625 35.4126 258.953 35.5225 257.195 35.7422C255.437 35.9375 253.655 36.1572 251.849 36.4014C250.066 36.6455 248.296 36.8774 246.539 37.0972C244.805 37.2925 243.169 37.3901 241.631 37.3901C239.068 37.3901 236.602 37.0605 234.234 36.4014C231.89 35.7422 229.803 34.7534 227.972 33.435C226.165 32.1167 224.725 30.4687 223.65 28.4912C222.576 26.5137 222.039 24.2065 222.039 21.5698C222.039 20.0073 222.247 18.457 222.662 16.9189C223.101 15.3808 223.785 13.916 224.712 12.5244C225.664 11.1084 226.885 9.8022 228.374 8.6059C229.864 7.3852 231.658 6.3354 233.758 5.4565C235.882 4.5776 238.323 3.894 241.082 3.4058C243.865 2.8931 247.027 2.6367 250.567 2.6367C253.13 2.6367 255.706 2.7832 258.294 3.0762C260.882 3.3447 263.396 3.7353 265.838 4.248C268.304 4.7607 270.672 5.3833 272.942 6.1157C275.213 6.8237 277.325 7.6172 279.278 8.4961L274.187 17.8711C272.576 17.1631 270.843 16.5161 268.987 15.9302C267.132 15.3198 265.191 14.7949 263.164 14.3555C261.138 13.916 259.039 13.5742 256.866 13.3301C254.717 13.0615 252.52 12.9272 250.274 12.9272C247.076 12.9272 244.439 13.1592 242.364 13.623C240.313 14.0869 238.677 14.685 237.456 15.4175C236.236 16.1255 235.381 16.9311 234.893 17.8345C234.429 18.7134 234.197 19.5923 234.197 20.4712C234.197 22.1802 234.966 23.584 236.504 24.6826C238.042 25.7568 240.386 26.2939 243.536 26.2939C244.805 26.2939 246.258 26.2085 247.893 26.0376C249.554 25.8423 251.287 25.6348 253.094 25.415C254.925 25.1953 256.78 25 258.66 24.8291C260.564 24.6338 262.408 24.5361 264.19 24.5361C267.559 24.5361 270.538 24.9145 273.125 25.6714C275.738 26.4282 277.923 27.5146 279.681 28.9307C281.438 30.3223 282.769 32.019 283.672 34.021C284.576 35.9985 285.027 38.2202 285.027 40.686C285.027 43.9819 284.258 46.9238 282.72 49.5117C281.206 52.0752 279.034 54.248 276.202 56.0303C273.394 57.7881 270 59.1308 266.021 60.0586C262.041 60.9619 257.61 61.4136 252.727 61.4136C249.505 61.4136 246.355 61.206 243.279 60.791C240.203 60.4004 237.249 59.8389 234.417 59.1064C231.609 58.3496 228.924 57.4585 226.36 56.4331C223.821 55.3833 221.465 54.2358 219.292 52.9907L225.481 43.5791ZM293.853 39.1113C293.853 35.9375 294.427 32.9834 295.574 30.249C296.746 27.4902 298.443 25.1099 300.664 23.1079C302.911 21.0815 305.645 19.4946 308.868 18.3472C312.115 17.1997 315.813 16.626 319.964 16.626C321.77 16.626 323.589 16.7358 325.42 16.9556C327.251 17.1753 329.009 17.4927 330.694 17.9077C332.403 18.2983 334.002 18.7744 335.491 19.3359C336.98 19.873 338.274 20.4712 339.373 21.1304L334.356 29.2969C331.988 28.1982 329.742 27.3926 327.618 26.8799C325.518 26.3672 323.382 26.1108 321.209 26.1108C318.719 26.1108 316.485 26.4404 314.507 27.0996C312.53 27.7344 310.845 28.6377 309.454 29.8096C308.086 30.957 307.037 32.3242 306.304 33.9111C305.596 35.4736 305.242 37.1826 305.242 39.0381C305.242 40.8935 305.621 42.6147 306.377 44.2017C307.159 45.7641 308.245 47.1191 309.637 48.2666C311.053 49.3896 312.749 50.2808 314.727 50.9399C316.729 51.5747 318.951 51.8921 321.392 51.8921C324.078 51.8921 326.604 51.5137 328.973 50.7568C331.365 50 333.587 48.9868 335.638 47.7173L340.655 55.8838C339.361 56.665 337.957 57.3975 336.443 58.081C334.93 58.7402 333.306 59.314 331.573 59.8022C329.864 60.2905 328.057 60.6689 326.153 60.9375C324.273 61.2305 322.32 61.3769 320.293 61.3769C316.167 61.3769 312.469 60.8154 309.197 59.6924C305.926 58.5693 303.155 57.019 300.884 55.0415C298.614 53.0395 296.868 50.6836 295.647 47.9736C294.451 45.2637 293.853 42.3096 293.853 39.1113ZM352.337 17.395H363.177V23.6206C365.569 21.8384 368.096 20.3003 370.757 19.0063C373.418 17.7124 376.067 16.7236 378.704 16.04L381.89 25.9643C377.715 26.3794 374.041 27.3193 370.867 28.7842C367.718 30.2246 365.154 32.2632 363.177 34.8999V60.6079H352.337V17.395ZM395.696 11.499C394.622 11.499 393.645 11.3525 392.767 11.0596C391.912 10.7422 391.18 10.3271 390.569 9.8144C389.959 9.2773 389.483 8.667 389.141 7.9834C388.824 7.2754 388.665 6.5308 388.665 5.7495C388.665 4.9438 388.824 4.1992 389.141 3.5156C389.483 2.8076 389.959 2.1973 390.569 1.6846C391.18 1.1719 391.912 0.769001 392.767 0.476101C393.645 0.158701 394.622 0 395.696 0C396.795 0 397.771 0.158701 398.626 0.476101C399.505 0.769001 400.249 1.1719 400.86 1.6846C401.47 2.1973 401.934 2.8076 402.251 3.5156C402.593 4.1992 402.764 4.9438 402.764 5.7495C402.764 6.5308 402.593 7.2754 402.251 7.9834C401.934 8.667 401.47 9.2773 400.86 9.8144C400.249 10.3271 399.505 10.7422 398.626 11.0596C397.771 11.3525 396.795 11.499 395.696 11.499ZM390.276 17.395H401.116V60.6079H390.276V17.395ZM425.579 78.2593H414.739V17.395H425.579V21.46C426.531 20.8008 427.654 20.1782 428.948 19.5923C430.242 19.0063 431.634 18.4936 433.123 18.0542C434.612 17.6147 436.15 17.2729 437.737 17.0288C439.324 16.7602 440.911 16.626 442.498 16.626C446.16 16.626 449.517 17.1631 452.569 18.2373C455.645 19.3115 458.282 20.8252 460.479 22.7783C462.676 24.7314 464.385 27.0752 465.606 29.8096C466.851 32.5195 467.474 35.5225 467.474 38.8183C467.474 42.2607 466.827 45.3735 465.533 48.1567C464.239 50.9155 462.444 53.2837 460.149 55.2612C457.879 57.2143 455.169 58.728 452.019 59.8022C448.894 60.852 445.501 61.3769 441.839 61.3769C440.276 61.3769 438.726 61.2793 437.188 61.084C435.674 60.8887 434.209 60.6201 432.793 60.2783C431.402 59.9365 430.083 59.5337 428.838 59.0698C427.618 58.5815 426.531 58.0566 425.579 57.4951V78.2593ZM425.579 47.0215C426.678 47.9004 427.837 48.645 429.058 49.2554C430.279 49.8657 431.524 50.3662 432.793 50.7568C434.063 51.1475 435.345 51.4404 436.639 51.6357C437.933 51.8066 439.19 51.8921 440.411 51.8921C442.901 51.8921 445.11 51.5625 447.039 50.9033C448.992 50.2197 450.628 49.292 451.946 48.1201C453.289 46.9482 454.314 45.5688 455.022 43.9819C455.73 42.395 456.084 40.6738 456.084 38.8183C456.084 37.085 455.73 35.4492 455.022 33.9111C454.339 32.373 453.338 31.0303 452.019 29.8828C450.726 28.7109 449.151 27.7954 447.295 27.1362C445.464 26.4526 443.401 26.1108 441.106 26.1108C439.642 26.1108 438.177 26.2573 436.712 26.5503C435.247 26.8188 433.831 27.2095 432.464 27.7222C431.121 28.2349 429.851 28.8574 428.655 29.5898C427.483 30.3223 426.458 31.1401 425.579 32.0434V47.0215ZM484.246 25.5249H473.809V17.395H484.246V3.9551H495.086V17.395H505.523V25.5249H495.086V60.6079H484.246V25.5249Z" fill="#75A3F9"/>
<path d="M281.271 335.974C287.72 346.517 296.11 354.266 310.95 354.266C323.416 354.266 331.379 348.027 331.379 339.408C331.379 329.078 323.198 325.42 309.476 319.411L301.955 316.179C280.244 306.918 265.821 295.317 265.821 270.791C265.821 248.199 283.014 231 309.882 231C329.011 231 342.763 237.666 352.673 255.119L329.245 270.18C324.087 260.92 318.522 257.271 309.882 257.271C301.07 257.271 295.485 262.869 295.485 270.18C295.485 279.218 301.075 282.876 313.983 288.473L321.505 291.699C347.067 302.675 361.5 313.864 361.5 339.021C361.5 366.142 340.221 381 311.645 381C283.704 381 265.653 367.668 256.82 350.195L281.271 335.974ZM174.99 338.584C179.716 346.98 184.016 354.078 194.353 354.078C204.237 354.078 210.473 350.206 210.473 335.15V232.721H240.559V335.556C240.559 366.747 222.294 380.944 195.634 380.944C171.545 380.944 157.595 368.462 150.5 353.429L174.99 338.584Z" fill="#021E57"/>
</g>
</g>
<defs>
<clipPath id="clip0_1448_49">
<rect width="512" height="512" fill="white" transform="translate(0.5)"/>
</clipPath>
</defs>
</svg>
