<svg width="513" height="512" viewBox="0 0 513 512" fill="none" xmlns="http://www.w3.org/2000/svg">
<g clip-path="url(#clip0_1448_36)">
<path d="M108.1 471.002L75.0996 100.602H437.9L404.9 470.802L256.2 512.002" fill="#F5D8D0"/>
<path d="M256.5 480.5V131H404.8L376.5 447L256.5 480.5Z" fill="#F2F2F2"/>
<path d="M352.112 326.582C347.951 328.155 348.12 328.182 345.919 324.176C343.108 319.074 341.613 313.707 341.483 307.871C341.377 302.863 342.749 298.208 344.474 293.642C345.851 290.011 344.059 288.729 340.912 288.399C338.622 288.164 336.259 288.186 333.963 288.421C327.994 289.031 327.406 289.546 325.821 295.337C324.88 298.773 324.13 302.237 322.568 305.499C318.715 313.528 314.336 321.261 309.845 328.938C309.039 330.32 308.372 331.808 307.236 332.989C303.982 328.121 302.756 322.744 302.482 317.103C302.207 311.536 303.915 306.36 305.791 301.24C306.424 299.517 305.898 298.448 304.408 297.704C303.747 297.374 303.008 297.066 302.286 297.01C298.456 296.708 294.637 296.752 290.901 297.799C289.221 298.263 288.124 299.203 287.749 301.089C287.021 304.776 285.884 308.357 284.349 311.804C280.094 321.35 275.866 330.912 271.616 340.464C267.92 348.762 264.28 357.082 259.901 365.051C259.593 365.616 259.336 366.595 258.563 366.399C257.779 366.203 258.054 365.241 258.02 364.581C257.768 359.88 259.05 355.398 260.142 350.911C261.872 343.81 263.765 336.743 265.602 329.665C266.128 327.634 265.243 326.268 263.558 325.294C261.133 323.901 258.72 323.834 256.094 325.787C256.452 322.899 256.609 320.365 256.486 317.83C256.206 312.179 253.585 308.503 249.021 307.652C245.69 307.031 242.537 307.999 239.558 309.409C232.614 312.694 227.032 317.645 222.339 323.655C221.79 324.354 221.236 324.998 220.44 325.428C211.632 330.224 202.83 335.019 194.044 339.859C193.081 340.396 192.459 340.245 191.765 339.501C187.341 334.762 182.206 330.85 177.122 326.883C170.016 321.333 162.663 316.073 156.532 309.381C152.948 305.464 149.958 301.172 148.462 295.991C146.021 287.52 147.847 279.63 151.912 272.132C156.722 263.263 163.856 256.415 171.723 250.315C184.216 240.635 197.919 232.947 212.36 226.619C228.532 219.541 245.309 214.98 263.177 215.668C270.255 215.943 277.125 217.168 283.431 220.631C287.894 223.082 290.85 226.624 291.685 231.822C292.665 237.91 291.203 243.534 288.499 248.866C282.457 260.779 272.854 269.217 261.503 275.825C252.05 281.325 241.854 284.817 231.063 286.647C225.099 287.659 219.113 288.269 213.116 287.357C206.234 286.311 199.872 284.011 195.163 278.472C194.62 277.834 193.931 277.392 193.007 277.839C192.061 278.298 192.134 279.137 192.223 279.943C192.29 280.497 192.442 281.057 192.638 281.583C193.898 284.98 196.255 287.542 199.016 289.78C206.195 295.616 214.7 297.329 223.632 297.502C232.373 297.676 240.98 296.568 249.497 294.531C268.709 289.943 284.803 280.526 296.551 264.388C303.573 254.742 308.019 244.111 307.627 231.946C307.375 224.23 304.777 217.415 299.149 211.875C292.457 205.3 284.153 201.994 275.244 200.008C265.321 197.803 255.298 197.49 245.174 198.698C236.365 199.75 227.759 201.552 219.382 204.434C206.564 208.848 194.183 214.27 182.334 220.862C170.195 227.61 158.754 235.337 148.72 245.017C139.839 253.584 132.206 263.035 127.906 274.768C126.069 279.793 124.748 284.958 125.98 290.391C127.559 297.385 131.008 303.439 135.544 308.901C142.404 317.171 150.82 323.684 159.499 329.906C166.471 334.908 173.767 339.463 180.465 344.84C182.363 346.362 182.352 346.362 180.117 347.531C177.508 348.891 174.87 350.2 172.306 351.649C161.964 357.492 151.969 363.826 143.81 372.628C139.795 376.964 137.068 381.832 135.797 387.237C142.438 397.153 150.339 406.15 159.271 414C174.507 412.814 186.171 404.891 194.789 391.786C198.95 385.458 200.899 378.296 201.632 370.742C202.277 364.083 201.599 357.637 199.639 351.28C199.297 350.161 198.026 349.048 198.525 348.063C198.989 347.156 200.39 346.697 201.42 346.105C205.574 343.693 209.741 341.315 214.019 338.859C214.204 339.777 213.845 340.314 213.689 340.895C211.236 349.887 209.528 358.952 211.393 368.296C212.552 374.116 214.484 379.593 218.157 384.411C221.937 389.369 230.376 388.804 233.802 384.277C237.056 379.979 239.212 375.134 241.457 370.31C242.689 367.669 243.82 364.984 244.996 362.314C244.778 365.526 244.789 368.659 244.907 371.782C245.024 374.86 245.517 377.898 247.118 380.617C249.044 383.885 252.668 384.837 256.033 383.09C259.584 381.249 262.003 378.217 263.884 374.926C271.953 360.776 279.439 346.323 285.638 331.232C286.96 328.026 288.315 324.825 289.81 321.26C290.04 322.43 290.191 323.146 290.331 323.863C291.708 331.053 294.161 337.857 297.712 344.252C298.473 345.623 298.389 346.569 297.426 347.884C294.156 352.332 290.572 356.517 287.039 360.747C284.071 364.306 280.896 367.708 278.387 371.625C276.136 375.15 277.429 378.759 281.176 379.56C282.329 379.806 283.544 379.879 284.726 379.862C291.272 379.783 297.314 377.831 302.942 374.63C310.518 370.316 315.01 363.993 314.802 354.99C314.707 350.894 313.598 346.96 311.946 343.205C311.583 342.372 311.565 341.768 312.109 340.984C317.356 333.475 321.992 325.602 326.253 317.5C327.01 316.074 327.541 314.49 328.762 313.097C328.924 313.662 329.053 314.015 329.126 314.378C330.481 321.093 332.307 327.656 335.734 333.649C336.674 335.289 336.204 336.122 334.905 337.218C330.431 341.018 326.657 345.449 323.695 350.525C321.387 354.475 319.808 358.694 319.825 363.322C319.842 368.469 323.784 371.502 328.807 370.293C334.043 369.04 338.898 366.908 343.254 363.724C352.745 356.78 355.528 349.456 352.555 339.233C351.391 335.21 351.413 335.277 355.45 334.057C364.281 331.394 373.24 331.282 382.244 332.748C383.264 332.916 384.272 333.106 385.268 333.324C385.794 330.13 386.208 326.895 386.5 323.622C374.981 320.808 363.479 322.268 352.112 326.582ZM165.52 398.568C162.961 399.474 160.301 399.861 157.579 399.648C154.191 399.379 152.041 396.99 151.823 393.398C151.576 389.257 152.803 385.519 154.617 381.882C157.915 375.279 163.453 370.798 169.103 366.4C174.596 362.119 180.499 358.465 186.468 354.912C188.277 353.838 188.304 353.849 188.719 356.003C189.256 358.768 189.738 361.537 189.558 364.05C190.029 379.118 179.077 393.772 165.52 398.568ZM247.712 322.587C246.76 328.938 244.682 334.987 242.471 340.962C239.458 349.121 236.524 357.318 232.733 365.163C231.864 366.97 230.952 368.766 229.547 370.238C228.22 371.631 227.043 371.469 226.125 369.767C224.333 366.444 224.557 362.745 224.266 360.059C224.35 346.586 228.875 335.573 236.328 325.675C238.411 322.917 241.071 320.673 244.593 319.772C246.984 319.163 248.087 320.125 247.712 322.587ZM299.901 362.477C297.347 366.886 293.668 370.093 289.155 372.375C288.673 372.616 288.052 373.041 287.615 372.476C287.201 371.944 287.867 371.592 288.169 371.256C292.655 366.36 297.084 361.425 301.077 356.115C301.138 356.031 301.289 356.019 301.631 355.874C301.592 358.331 301.054 360.491 299.901 362.477ZM330.872 362.287C330.206 362.6 329.434 363.188 328.784 362.684C328.068 362.131 328.353 361.151 328.571 360.401C329.591 356.983 330.962 353.709 332.855 350.66C334.445 348.091 336.416 345.848 338.583 343.755C339.457 342.916 339.848 343.016 340.145 344.225C340.453 345.461 340.481 346.698 340.504 347.957C340.448 354.845 336.948 359.428 330.872 362.287Z" fill="#CD6699"/>
<path d="M93.4268 56.1308C95.917 57.5371 98.4365 58.8115 100.985 59.9541C103.564 61.0674 106.23 62.0195 108.984 62.8105C111.737 63.5722 114.623 64.1582 117.641 64.5683C120.688 64.9785 123.925 65.1836 127.353 65.1836C131.484 65.1836 134.999 64.9199 137.9 64.3925C140.8 63.8359 143.158 63.0888 144.975 62.1513C146.82 61.1845 148.153 60.042 148.974 58.7236C149.823 57.4052 150.248 55.9697 150.248 54.417C150.248 51.9267 149.208 49.9638 147.128 48.5283C145.048 47.0634 141.84 46.331 137.504 46.331C135.6 46.331 133.593 46.4629 131.484 46.7265C129.374 46.9609 127.235 47.2246 125.067 47.5175C122.929 47.8105 120.805 48.0888 118.695 48.3525C116.615 48.5869 114.652 48.7041 112.807 48.7041C109.731 48.7041 106.772 48.3086 103.93 47.5175C101.117 46.7265 98.6123 45.54 96.415 43.958C94.2471 42.3759 92.5186 40.3984 91.2295 38.0254C89.9404 35.6523 89.2959 32.8838 89.2959 29.7197C89.2959 27.8447 89.5449 25.9843 90.043 24.1386C90.5703 22.2929 91.3906 20.5351 92.5039 18.8652C93.6465 17.166 95.1113 15.5986 96.8984 14.1631C98.6856 12.6982 100.839 11.4384 103.358 10.3838C105.907 9.3291 108.837 8.5088 112.148 7.9228C115.487 7.3076 119.281 7 123.529 7C126.606 7 129.696 7.1758 132.802 7.5273C135.907 7.8496 138.925 8.3183 141.855 8.9336C144.814 9.5488 147.655 10.2959 150.38 11.1748C153.105 12.0244 155.639 12.9765 157.983 14.0312L151.874 25.2812C149.941 24.4316 147.86 23.6552 145.634 22.9521C143.407 22.2197 141.078 21.5898 138.647 21.0625C136.215 20.5351 133.695 20.125 131.088 19.832C128.51 19.5097 125.873 19.3486 123.178 19.3486C119.34 19.3486 116.176 19.6269 113.686 20.1836C111.225 20.7402 109.262 21.458 107.797 22.3369C106.332 23.1865 105.307 24.1533 104.721 25.2373C104.164 26.292 103.886 27.3466 103.886 28.4013C103.886 30.4521 104.809 32.1367 106.654 33.455C108.5 34.7441 111.313 35.3886 115.092 35.3886C116.615 35.3886 118.359 35.2861 120.321 35.081C122.314 34.8466 124.394 34.5976 126.562 34.334C128.759 34.0703 130.985 33.8359 133.241 33.6308C135.526 33.3965 137.738 33.2793 139.877 33.2793C143.92 33.2793 147.494 33.7334 150.6 34.6416C153.734 35.5498 156.357 36.8535 158.466 38.5527C160.575 40.2226 162.172 42.2588 163.256 44.6611C164.34 47.0342 164.882 49.7002 164.882 52.6592C164.882 56.6142 163.959 60.1445 162.113 63.25C160.297 66.3261 157.69 68.9336 154.291 71.0722C150.922 73.1816 146.85 74.7929 142.074 75.9062C137.299 76.9902 131.982 77.5322 126.122 77.5322C122.255 77.5322 118.476 77.2832 114.784 76.7851C111.093 76.3164 107.548 75.6425 104.15 74.7636C100.78 73.8554 97.5576 72.7861 94.4815 71.5556C91.4346 70.2959 88.6074 68.9189 86 67.4248L93.4268 56.1308ZM203.642 7.8789H218.407L251.63 76.5654H236.996L231.503 65.0078H191.381L186.064 76.5654H171.386L203.642 7.8789ZM226.01 53.5381L211.156 22.3369L196.698 53.5381H226.01ZM265.517 56.1308C268.007 57.5371 270.526 58.8115 273.075 59.9541C275.653 61.0674 278.319 62.0195 281.073 62.8105C283.827 63.5722 286.713 64.1582 289.731 64.5683C292.777 64.9785 296.015 65.1836 299.442 65.1836C303.573 65.1836 307.089 64.9199 309.989 64.3925C312.89 63.8359 315.248 63.0888 317.065 62.1513C318.91 61.1845 320.243 60.042 321.064 58.7236C321.913 57.4052 322.338 55.9697 322.338 54.417C322.338 51.9267 321.298 49.9638 319.218 48.5283C317.138 47.0634 313.93 46.331 309.594 46.331C307.69 46.331 305.683 46.4629 303.573 46.7265C301.464 46.9609 299.325 47.2246 297.157 47.5175C295.019 47.8105 292.895 48.0888 290.785 48.3525C288.705 48.5869 286.742 48.7041 284.897 48.7041C281.82 48.7041 278.861 48.3086 276.02 47.5175C273.207 46.7265 270.702 45.54 268.505 43.958C266.337 42.3759 264.609 40.3984 263.319 38.0254C262.03 35.6523 261.386 32.8838 261.386 29.7197C261.386 27.8447 261.635 25.9843 262.133 24.1386C262.66 22.2929 263.481 20.5351 264.594 18.8652C265.736 17.166 267.201 15.5986 268.988 14.1631C270.775 12.6982 272.929 11.4384 275.448 10.3838C277.997 9.3291 280.927 8.5088 284.237 7.9228C287.577 7.3076 291.371 7 295.619 7C298.695 7 301.786 7.1758 304.892 7.5273C307.997 7.8496 311.015 8.3183 313.944 8.9336C316.903 9.5488 319.745 10.2959 322.47 11.1748C325.194 12.0244 327.729 12.9765 330.072 14.0312L323.964 25.2812C322.03 24.4316 319.95 23.6552 317.724 22.9521C315.497 22.2197 313.168 21.5898 310.736 21.0625C308.305 20.5351 305.785 20.125 303.178 19.832C300.6 19.5097 297.963 19.3486 295.268 19.3486C291.43 19.3486 288.266 19.6269 285.775 20.1836C283.315 20.7402 281.352 21.458 279.887 22.3369C278.422 23.1865 277.397 24.1533 276.811 25.2373C276.254 26.292 275.976 27.3466 275.976 28.4013C275.976 30.4521 276.899 32.1367 278.744 33.455C280.59 34.7441 283.402 35.3886 287.182 35.3886C288.705 35.3886 290.448 35.2861 292.411 35.081C294.403 34.8466 296.484 34.5976 298.651 34.334C300.849 34.0703 303.075 33.8359 305.331 33.6308C307.616 33.3965 309.828 33.2793 311.967 33.2793C316.01 33.2793 319.584 33.7334 322.69 34.6416C325.824 35.5498 328.446 36.8535 330.556 38.5527C332.665 40.2226 334.262 42.2588 335.346 44.6611C336.43 47.0342 336.972 49.7002 336.972 52.6592C336.972 56.6142 336.049 60.1445 334.203 63.25C332.387 66.3261 329.779 68.9336 326.381 71.0722C323.012 73.1816 318.94 74.7929 314.164 75.9062C309.389 76.9902 304.071 77.5322 298.212 77.5322C294.345 77.5322 290.566 77.2832 286.874 76.7851C283.183 76.3164 279.638 75.6425 276.239 74.7636C272.87 73.8554 269.648 72.7861 266.571 71.5556C263.525 70.2959 260.697 68.9189 258.09 67.4248L265.517 56.1308ZM355.517 56.1308C358.007 57.5371 360.526 58.8115 363.075 59.9541C365.653 61.0674 368.319 62.0195 371.073 62.8105C373.827 63.5722 376.713 64.1582 379.731 64.5683C382.777 64.9785 386.015 65.1836 389.442 65.1836C393.573 65.1836 397.089 64.9199 399.989 64.3925C402.89 63.8359 405.248 63.0888 407.065 62.1513C408.91 61.1845 410.243 60.042 411.064 58.7236C411.913 57.4052 412.338 55.9697 412.338 54.417C412.338 51.9267 411.298 49.9638 409.218 48.5283C407.138 47.0634 403.93 46.331 399.594 46.331C397.69 46.331 395.683 46.4629 393.573 46.7265C391.464 46.9609 389.325 47.2246 387.157 47.5175C385.019 47.8105 382.895 48.0888 380.785 48.3525C378.705 48.5869 376.742 48.7041 374.897 48.7041C371.82 48.7041 368.861 48.3086 366.02 47.5175C363.207 46.7265 360.702 45.54 358.505 43.958C356.337 42.3759 354.609 40.3984 353.319 38.0254C352.03 35.6523 351.386 32.8838 351.386 29.7197C351.386 27.8447 351.635 25.9843 352.133 24.1386C352.66 22.2929 353.481 20.5351 354.594 18.8652C355.736 17.166 357.201 15.5986 358.988 14.1631C360.775 12.6982 362.929 11.4384 365.448 10.3838C367.997 9.3291 370.927 8.5088 374.237 7.9228C377.577 7.3076 381.371 7 385.619 7C388.695 7 391.786 7.1758 394.892 7.5273C397.997 7.8496 401.015 8.3183 403.944 8.9336C406.903 9.5488 409.745 10.2959 412.47 11.1748C415.194 12.0244 417.729 12.9765 420.072 14.0312L413.964 25.2812C412.03 24.4316 409.95 23.6552 407.724 22.9521C405.497 22.2197 403.168 21.5898 400.736 21.0625C398.305 20.5351 395.785 20.125 393.178 19.832C390.6 19.5097 387.963 19.3486 385.268 19.3486C381.43 19.3486 378.266 19.6269 375.775 20.1836C373.315 20.7402 371.352 21.458 369.887 22.3369C368.422 23.1865 367.397 24.1533 366.811 25.2373C366.254 26.292 365.976 27.3466 365.976 28.4013C365.976 30.4521 366.899 32.1367 368.744 33.455C370.59 34.7441 373.402 35.3886 377.182 35.3886C378.705 35.3886 380.448 35.2861 382.411 35.081C384.403 34.8466 386.484 34.5976 388.651 34.334C390.849 34.0703 393.075 33.8359 395.331 33.6308C397.616 33.3965 399.828 33.2793 401.967 33.2793C406.01 33.2793 409.584 33.7334 412.69 34.6416C415.824 35.5498 418.446 36.8535 420.556 38.5527C422.665 40.2226 424.262 42.2588 425.346 44.6611C426.43 47.0342 426.972 49.7002 426.972 52.6592C426.972 56.6142 426.049 60.1445 424.203 63.25C422.387 66.3261 419.779 68.9336 416.381 71.0722C413.012 73.1816 408.94 74.7929 404.164 75.9062C399.389 76.9902 394.071 77.5322 388.212 77.5322C384.345 77.5322 380.566 77.2832 376.874 76.7851C373.183 76.3164 369.638 75.6425 366.239 74.7636C362.87 73.8554 359.648 72.7861 356.571 71.5556C353.525 70.2959 350.697 68.9189 348.09 67.4248L355.517 56.1308Z" fill="#75A3F9"/>
</g>
<defs>
<clipPath id="clip0_1448_36">
<rect width="512" height="512" fill="white" transform="translate(0.5)"/>
</clipPath>
</defs>
</svg>
