<svg width="512" height="512" viewBox="0 0 512 512" fill="none" xmlns="http://www.w3.org/2000/svg">
<path d="M107.6 471.002L74.5996 100.602H437.4L404.4 470.802L255.7 512.002" fill="#F5D8D0"/>
<path d="M256 480.5V131H404.3L376 447L256 480.5Z" fill="#F2F2F2"/>
<path d="M351.612 326.582C347.451 328.155 347.62 328.182 345.419 324.176C342.608 319.074 341.113 313.707 340.983 307.871C340.877 302.863 342.249 298.208 343.974 293.642C345.351 290.011 343.559 288.729 340.412 288.399C338.122 288.164 335.759 288.186 333.463 288.421C327.494 289.031 326.906 289.546 325.321 295.337C324.38 298.773 323.63 302.237 322.068 305.499C318.215 313.528 313.836 321.261 309.345 328.938C308.539 330.32 307.872 331.808 306.736 332.989C303.482 328.121 302.256 322.744 301.982 317.103C301.707 311.536 303.415 306.36 305.291 301.24C305.924 299.517 305.398 298.448 303.908 297.704C303.247 297.374 302.508 297.066 301.786 297.01C297.956 296.708 294.137 296.752 290.401 297.799C288.721 298.263 287.624 299.203 287.249 301.089C286.521 304.776 285.384 308.357 283.849 311.804C279.594 321.35 275.366 330.912 271.116 340.464C267.42 348.762 263.78 357.082 259.401 365.051C259.093 365.616 258.836 366.595 258.063 366.399C257.279 366.203 257.554 365.241 257.52 364.581C257.268 359.88 258.55 355.398 259.642 350.911C261.372 343.81 263.265 336.743 265.102 329.665C265.628 327.634 264.743 326.268 263.058 325.294C260.633 323.901 258.22 323.834 255.594 325.787C255.952 322.899 256.109 320.365 255.986 317.83C255.706 312.179 253.085 308.503 248.521 307.652C245.19 307.031 242.037 307.999 239.058 309.409C232.114 312.694 226.532 317.645 221.839 323.655C221.29 324.354 220.736 324.998 219.94 325.428C211.132 330.224 202.33 335.019 193.544 339.859C192.581 340.396 191.959 340.245 191.265 339.501C186.841 334.762 181.706 330.85 176.622 326.883C169.516 321.333 162.163 316.073 156.032 309.381C152.448 305.464 149.458 301.172 147.962 295.991C145.521 287.52 147.347 279.63 151.412 272.132C156.222 263.263 163.356 256.415 171.223 250.315C183.716 240.635 197.419 232.947 211.86 226.619C228.032 219.541 244.809 214.98 262.677 215.668C269.755 215.943 276.625 217.168 282.931 220.631C287.394 223.082 290.35 226.624 291.185 231.822C292.165 237.91 290.703 243.534 287.999 248.866C281.957 260.779 272.354 269.217 261.003 275.825C251.55 281.325 241.354 284.817 230.563 286.647C224.599 287.659 218.613 288.269 212.616 287.357C205.734 286.311 199.372 284.011 194.663 278.472C194.12 277.834 193.431 277.392 192.507 277.839C191.561 278.298 191.634 279.137 191.723 279.943C191.79 280.497 191.942 281.057 192.138 281.583C193.398 284.98 195.755 287.542 198.516 289.78C205.695 295.616 214.2 297.329 223.132 297.502C231.873 297.676 240.48 296.568 248.997 294.531C268.209 289.943 284.303 280.526 296.051 264.388C303.073 254.742 307.519 244.111 307.127 231.946C306.875 224.23 304.277 217.415 298.649 211.875C291.957 205.3 283.653 201.994 274.744 200.008C264.821 197.803 254.798 197.49 244.674 198.698C235.865 199.75 227.259 201.552 218.882 204.434C206.064 208.848 193.683 214.27 181.834 220.862C169.695 227.61 158.254 235.337 148.22 245.017C139.339 253.584 131.706 263.035 127.406 274.768C125.569 279.793 124.248 284.958 125.48 290.391C127.059 297.385 130.508 303.439 135.044 308.901C141.904 317.171 150.32 323.684 158.999 329.906C165.971 334.908 173.267 339.463 179.965 344.84C181.863 346.362 181.852 346.362 179.617 347.531C177.008 348.891 174.37 350.2 171.806 351.649C161.464 357.492 151.469 363.826 143.31 372.628C139.295 376.964 136.568 381.832 135.297 387.237C141.938 397.153 149.839 406.15 158.771 414C174.007 412.814 185.671 404.891 194.289 391.786C198.45 385.458 200.399 378.296 201.132 370.742C201.777 364.083 201.099 357.637 199.139 351.28C198.797 350.161 197.526 349.048 198.025 348.063C198.489 347.156 199.89 346.697 200.92 346.105C205.074 343.693 209.241 341.315 213.519 338.859C213.704 339.777 213.345 340.314 213.189 340.895C210.736 349.887 209.028 358.952 210.893 368.296C212.052 374.116 213.984 379.593 217.657 384.411C221.437 389.369 229.876 388.804 233.302 384.277C236.556 379.979 238.712 375.134 240.957 370.31C242.189 367.669 243.32 364.984 244.496 362.314C244.278 365.526 244.289 368.659 244.407 371.782C244.524 374.86 245.017 377.898 246.618 380.617C248.544 383.885 252.168 384.837 255.533 383.09C259.084 381.249 261.503 378.217 263.384 374.926C271.453 360.776 278.939 346.323 285.138 331.232C286.46 328.026 287.815 324.825 289.31 321.26C289.54 322.43 289.691 323.146 289.831 323.863C291.208 331.053 293.661 337.857 297.212 344.252C297.973 345.623 297.889 346.569 296.926 347.884C293.656 352.332 290.072 356.517 286.539 360.747C283.571 364.306 280.396 367.708 277.887 371.625C275.636 375.15 276.929 378.759 280.676 379.56C281.829 379.806 283.044 379.879 284.226 379.862C290.772 379.783 296.814 377.831 302.442 374.63C310.018 370.316 314.51 363.993 314.302 354.99C314.207 350.894 313.098 346.96 311.446 343.205C311.083 342.372 311.065 341.768 311.609 340.984C316.856 333.475 321.492 325.602 325.753 317.5C326.51 316.074 327.041 314.49 328.262 313.097C328.424 313.662 328.553 314.015 328.626 314.378C329.981 321.093 331.807 327.656 335.234 333.649C336.174 335.289 335.704 336.122 334.405 337.218C329.931 341.018 326.157 345.449 323.195 350.525C320.887 354.475 319.308 358.694 319.325 363.322C319.342 368.469 323.284 371.502 328.307 370.293C333.543 369.04 338.398 366.908 342.754 363.724C352.245 356.78 355.028 349.456 352.055 339.233C350.891 335.21 350.913 335.277 354.95 334.057C363.781 331.394 372.74 331.282 381.744 332.748C382.764 332.916 383.772 333.106 384.768 333.324C385.294 330.13 385.708 326.895 386 323.622C374.481 320.808 362.979 322.268 351.612 326.582ZM165.02 398.568C162.461 399.474 159.801 399.861 157.079 399.648C153.691 399.379 151.541 396.99 151.323 393.398C151.076 389.257 152.303 385.519 154.117 381.882C157.415 375.279 162.953 370.798 168.603 366.4C174.096 362.119 179.999 358.465 185.968 354.912C187.777 353.838 187.804 353.849 188.219 356.003C188.756 358.768 189.238 361.537 189.058 364.05C189.529 379.118 178.577 393.772 165.02 398.568ZM247.212 322.587C246.26 328.938 244.182 334.987 241.971 340.962C238.958 349.121 236.024 357.318 232.233 365.163C231.364 366.97 230.452 368.766 229.047 370.238C227.72 371.631 226.543 371.469 225.625 369.767C223.833 366.444 224.057 362.745 223.766 360.059C223.85 346.586 228.375 335.573 235.828 325.675C237.911 322.917 240.571 320.673 244.093 319.772C246.484 319.163 247.587 320.125 247.212 322.587ZM299.401 362.477C296.847 366.886 293.168 370.093 288.655 372.375C288.173 372.616 287.552 373.041 287.115 372.476C286.701 371.944 287.367 371.592 287.669 371.256C292.155 366.36 296.584 361.425 300.577 356.115C300.638 356.031 300.789 356.019 301.131 355.874C301.092 358.331 300.554 360.491 299.401 362.477ZM330.372 362.287C329.706 362.6 328.934 363.188 328.284 362.684C327.568 362.131 327.853 361.151 328.071 360.401C329.091 356.983 330.462 353.709 332.355 350.66C333.945 348.091 335.916 345.848 338.083 343.755C338.957 342.916 339.348 343.016 339.645 344.225C339.953 345.461 339.981 346.698 340.004 347.957C339.948 354.845 336.448 359.428 330.372 362.287Z" fill="#CD6699"/>
<path d="M89.9639 68.5654C92.4541 69.9717 94.9736 71.2461 97.5225 72.3887C100.101 73.502 102.767 74.4541 105.521 75.2451C108.274 76.0068 111.16 76.5928 114.178 77.0029C117.225 77.4131 120.462 77.6182 123.89 77.6182C128.021 77.6182 131.536 77.3545 134.437 76.8271C137.337 76.2705 139.695 75.5234 141.512 74.5859C143.357 73.6191 144.69 72.4766 145.511 71.1582C146.36 69.8398 146.785 68.4043 146.785 66.8516C146.785 64.3613 145.745 62.3984 143.665 60.9629C141.585 59.498 138.377 58.7656 134.041 58.7656C132.137 58.7656 130.13 58.8975 128.021 59.1611C125.911 59.3955 123.772 59.6592 121.604 59.9521C119.466 60.2451 117.342 60.5234 115.232 60.7871C113.152 61.0215 111.189 61.1387 109.344 61.1387C106.268 61.1387 103.309 60.7432 100.467 59.9521C97.6543 59.1611 95.1494 57.9746 92.9521 56.3926C90.7842 54.8105 89.0557 52.833 87.7666 50.46C86.4775 48.0869 85.833 45.3184 85.833 42.1543C85.833 40.2793 86.082 38.4189 86.5801 36.5732C87.1074 34.7275 87.9277 32.9697 89.041 31.2998C90.1836 29.6006 91.6484 28.0332 93.4355 26.5977C95.2227 25.1328 97.376 23.873 99.8955 22.8184C102.444 21.7637 105.374 20.9434 108.685 20.3574C112.024 19.7422 115.818 19.4346 120.066 19.4346C123.143 19.4346 126.233 19.6104 129.339 19.9619C132.444 20.2842 135.462 20.7529 138.392 21.3682C141.351 21.9834 144.192 22.7305 146.917 23.6094C149.642 24.459 152.176 25.4111 154.52 26.4658L148.411 37.7158C146.478 36.8662 144.397 36.0898 142.171 35.3867C139.944 34.6543 137.615 34.0244 135.184 33.4971C132.752 32.9697 130.232 32.5596 127.625 32.2666C125.047 31.9443 122.41 31.7832 119.715 31.7832C115.877 31.7832 112.713 32.0615 110.223 32.6182C107.762 33.1748 105.799 33.8926 104.334 34.7715C102.869 35.6211 101.844 36.5879 101.258 37.6719C100.701 38.7266 100.423 39.7812 100.423 40.8359C100.423 42.8867 101.346 44.5713 103.191 45.8896C105.037 47.1787 107.85 47.8232 111.629 47.8232C113.152 47.8232 114.896 47.7207 116.858 47.5156C118.851 47.2812 120.931 47.0322 123.099 46.7686C125.296 46.5049 127.522 46.2705 129.778 46.0654C132.063 45.8311 134.275 45.7139 136.414 45.7139C140.457 45.7139 144.031 46.168 147.137 47.0762C150.271 47.9844 152.894 49.2881 155.003 50.9873C157.112 52.6572 158.709 54.6934 159.793 57.0957C160.877 59.4688 161.419 62.1348 161.419 65.0938C161.419 69.0488 160.496 72.5791 158.65 75.6846C156.834 78.7607 154.227 81.3682 150.828 83.5068C147.459 85.6162 143.387 87.2275 138.611 88.3408C133.836 89.4248 128.519 89.9668 122.659 89.9668C118.792 89.9668 115.013 89.7178 111.321 89.2197C107.63 88.751 104.085 88.0771 100.687 87.1982C97.3174 86.29 94.0947 85.2207 91.0186 83.9902C87.9717 82.7305 85.1445 81.3535 82.5371 79.8594L89.9639 68.5654ZM200.179 20.3135H214.944L248.167 89H233.533L228.04 77.4424H187.918L182.601 89H167.923L200.179 20.3135ZM222.547 65.9727L207.693 34.7715L193.235 65.9727H222.547ZM262.054 68.5654C264.544 69.9717 267.063 71.2461 269.612 72.3887C272.19 73.502 274.856 74.4541 277.61 75.2451C280.364 76.0068 283.25 76.5928 286.268 77.0029C289.314 77.4131 292.552 77.6182 295.979 77.6182C300.11 77.6182 303.626 77.3545 306.526 76.8271C309.427 76.2705 311.785 75.5234 313.602 74.5859C315.447 73.6191 316.78 72.4766 317.601 71.1582C318.45 69.8398 318.875 68.4043 318.875 66.8516C318.875 64.3613 317.835 62.3984 315.755 60.9629C313.675 59.498 310.467 58.7656 306.131 58.7656C304.227 58.7656 302.22 58.8975 300.11 59.1611C298.001 59.3955 295.862 59.6592 293.694 59.9521C291.556 60.2451 289.432 60.5234 287.322 60.7871C285.242 61.0215 283.279 61.1387 281.434 61.1387C278.357 61.1387 275.398 60.7432 272.557 59.9521C269.744 59.1611 267.239 57.9746 265.042 56.3926C262.874 54.8105 261.146 52.833 259.856 50.46C258.567 48.0869 257.923 45.3184 257.923 42.1543C257.923 40.2793 258.172 38.4189 258.67 36.5732C259.197 34.7275 260.018 32.9697 261.131 31.2998C262.273 29.6006 263.738 28.0332 265.525 26.5977C267.312 25.1328 269.466 23.873 271.985 22.8184C274.534 21.7637 277.464 20.9434 280.774 20.3574C284.114 19.7422 287.908 19.4346 292.156 19.4346C295.232 19.4346 298.323 19.6104 301.429 19.9619C304.534 20.2842 307.552 20.7529 310.481 21.3682C313.44 21.9834 316.282 22.7305 319.007 23.6094C321.731 24.459 324.266 25.4111 326.609 26.4658L320.501 37.7158C318.567 36.8662 316.487 36.0898 314.261 35.3867C312.034 34.6543 309.705 34.0244 307.273 33.4971C304.842 32.9697 302.322 32.5596 299.715 32.2666C297.137 31.9443 294.5 31.7832 291.805 31.7832C287.967 31.7832 284.803 32.0615 282.312 32.6182C279.852 33.1748 277.889 33.8926 276.424 34.7715C274.959 35.6211 273.934 36.5879 273.348 37.6719C272.791 38.7266 272.513 39.7812 272.513 40.8359C272.513 42.8867 273.436 44.5713 275.281 45.8896C277.127 47.1787 279.939 47.8232 283.719 47.8232C285.242 47.8232 286.985 47.7207 288.948 47.5156C290.94 47.2812 293.021 47.0322 295.188 46.7686C297.386 46.5049 299.612 46.2705 301.868 46.0654C304.153 45.8311 306.365 45.7139 308.504 45.7139C312.547 45.7139 316.121 46.168 319.227 47.0762C322.361 47.9844 324.983 49.2881 327.093 50.9873C329.202 52.6572 330.799 54.6934 331.883 57.0957C332.967 59.4688 333.509 62.1348 333.509 65.0938C333.509 69.0488 332.586 72.5791 330.74 75.6846C328.924 78.7607 326.316 81.3682 322.918 83.5068C319.549 85.6162 315.477 87.2275 310.701 88.3408C305.926 89.4248 300.608 89.9668 294.749 89.9668C290.882 89.9668 287.103 89.7178 283.411 89.2197C279.72 88.751 276.175 88.0771 272.776 87.1982C269.407 86.29 266.185 85.2207 263.108 83.9902C260.062 82.7305 257.234 81.3535 254.627 79.8594L262.054 68.5654ZM352.054 68.5654C354.544 69.9717 357.063 71.2461 359.612 72.3887C362.19 73.502 364.856 74.4541 367.61 75.2451C370.364 76.0068 373.25 76.5928 376.268 77.0029C379.314 77.4131 382.552 77.6182 385.979 77.6182C390.11 77.6182 393.626 77.3545 396.526 76.8271C399.427 76.2705 401.785 75.5234 403.602 74.5859C405.447 73.6191 406.78 72.4766 407.601 71.1582C408.45 69.8398 408.875 68.4043 408.875 66.8516C408.875 64.3613 407.835 62.3984 405.755 60.9629C403.675 59.498 400.467 58.7656 396.131 58.7656C394.227 58.7656 392.22 58.8975 390.11 59.1611C388.001 59.3955 385.862 59.6592 383.694 59.9521C381.556 60.2451 379.432 60.5234 377.322 60.7871C375.242 61.0215 373.279 61.1387 371.434 61.1387C368.357 61.1387 365.398 60.7432 362.557 59.9521C359.744 59.1611 357.239 57.9746 355.042 56.3926C352.874 54.8105 351.146 52.833 349.856 50.46C348.567 48.0869 347.923 45.3184 347.923 42.1543C347.923 40.2793 348.172 38.4189 348.67 36.5732C349.197 34.7275 350.018 32.9697 351.131 31.2998C352.273 29.6006 353.738 28.0332 355.525 26.5977C357.312 25.1328 359.466 23.873 361.985 22.8184C364.534 21.7637 367.464 20.9434 370.774 20.3574C374.114 19.7422 377.908 19.4346 382.156 19.4346C385.232 19.4346 388.323 19.6104 391.429 19.9619C394.534 20.2842 397.552 20.7529 400.481 21.3682C403.44 21.9834 406.282 22.7305 409.007 23.6094C411.731 24.459 414.266 25.4111 416.609 26.4658L410.501 37.7158C408.567 36.8662 406.487 36.0898 404.261 35.3867C402.034 34.6543 399.705 34.0244 397.273 33.4971C394.842 32.9697 392.322 32.5596 389.715 32.2666C387.137 31.9443 384.5 31.7832 381.805 31.7832C377.967 31.7832 374.803 32.0615 372.312 32.6182C369.852 33.1748 367.889 33.8926 366.424 34.7715C364.959 35.6211 363.934 36.5879 363.348 37.6719C362.791 38.7266 362.513 39.7812 362.513 40.8359C362.513 42.8867 363.436 44.5713 365.281 45.8896C367.127 47.1787 369.939 47.8232 373.719 47.8232C375.242 47.8232 376.985 47.7207 378.948 47.5156C380.94 47.2812 383.021 47.0322 385.188 46.7686C387.386 46.5049 389.612 46.2705 391.868 46.0654C394.153 45.8311 396.365 45.7139 398.504 45.7139C402.547 45.7139 406.121 46.168 409.227 47.0762C412.361 47.9844 414.983 49.2881 417.093 50.9873C419.202 52.6572 420.799 54.6934 421.883 57.0957C422.967 59.4688 423.509 62.1348 423.509 65.0938C423.509 69.0488 422.586 72.5791 420.74 75.6846C418.924 78.7607 416.316 81.3682 412.918 83.5068C409.549 85.6162 405.477 87.2275 400.701 88.3408C395.926 89.4248 390.608 89.9668 384.749 89.9668C380.882 89.9668 377.103 89.7178 373.411 89.2197C369.72 88.751 366.175 88.0771 362.776 87.1982C359.407 86.29 356.185 85.2207 353.108 83.9902C350.062 82.7305 347.234 81.3535 344.627 79.8594L352.054 68.5654Z" fill="#021E57"/>
</svg>
