<svg width="19" height="19" viewBox="0 0 19 19" fill="none" xmlns="http://www.w3.org/2000/svg">
<path d="M9.16667 0C4.19742 0 0 4.19833 0 9.16667C0 14.135 4.19742 18.3333 9.16667 18.3333C14.1359 18.3333 18.3333 14.135 18.3333 9.16667C18.3333 4.19833 14.1359 0 9.16667 0ZM9.16667 11.9167C10.076 11.9167 10.8625 11.6738 11.2686 11.2677L12.5648 12.5648C11.5326 13.596 9.99258 13.75 9.16667 13.75C6.63942 13.75 4.58333 11.6939 4.58333 9.16667C4.58333 6.63942 6.63942 4.58333 9.16667 4.58333C9.99258 4.58333 11.5335 4.73733 12.5648 5.76858L11.2686 7.06475C10.8634 6.65867 10.0769 6.41667 9.16667 6.41667C7.67617 6.41667 6.41667 7.67617 6.41667 9.16667C6.41667 10.6572 7.67617 11.9167 9.16667 11.9167Z" fill="white"/>
</svg>
