<svg width="314" height="231" viewBox="0 0 314 231" fill="none" xmlns="http://www.w3.org/2000/svg">
<path d="M255.788 203.323C257.077 197.555 253.18 193.483 250.927 188.914C250.652 188.346 249.221 188.36 248.119 188.041L246.444 182.376L243.715 184.236C242.726 181.47 242.202 181.627 237.102 186.617C238.826 179.089 238.33 177.746 234.003 177.964C232.457 176.234 236.591 173.81 233.24 172.273C229.591 170.609 229.644 174.781 227.153 175.557C228.211 173.304 229.27 171.03 230.328 168.797C231.133 167.521 231.872 166.205 232.54 164.853C232.894 163.931 233.106 162.316 232.617 161.854C231.445 160.753 230.046 159.537 228.05 160.926C225.46 162.741 222.611 164.155 219.599 165.12C222.086 162.923 224.711 160.85 226.982 158.487C227.898 157.511 228.138 155.956 228.681 154.66L224.603 154.555C225.628 153.581 226.723 152.609 227.859 151.638C228.267 151.308 229.096 151.359 229.336 150.985C232.243 146.459 235.946 142.153 237.694 137.196C239.185 132.873 235.685 128.561 231.247 126.477C228.075 124.984 230.023 121.984 229.421 119.717C229.324 118.591 229.401 117.456 229.647 116.352C223.816 116.732 221.736 121.35 218.487 124.788C219.791 120.76 225.453 117.224 218.983 113.647L207.523 108.07L206.28 98.4747C207.601 96.8882 209.465 94.4154 211.602 92.2297C212.26 91.5464 213.689 91.6132 214.757 91.3105C215.81 90.9383 216.895 90.6648 217.999 90.4937C219.061 90.421 221.056 90.6324 221.09 90.8934C221.448 94.0636 223.642 93.96 225.297 93.7526C226.24 95.9776 226.696 98.8603 228.053 99.4153C229.409 99.9704 232.014 98.647 233.642 97.5586C234.457 96.9894 234.327 95.0554 234.53 94.1703L253.537 80.1348L254.061 80.3983L252.546 83.2603L252.823 84.1877C256.346 83.3281 259.869 82.4785 263.01 81.719C263.374 82.7287 263.454 84.2613 264.136 84.609C267.285 86.2306 270.205 85.1153 272.777 83.1009L275.304 87.5273L274.258 89.291C275.75 89.2494 276.751 89.2251 277.752 89.2109C276.131 92.3202 277.411 95.054 281.929 97.9212C280.021 100.163 281.069 101 283.517 101.493C286.801 102.168 287.749 104.603 285.782 107.173C283.815 109.744 284.93 111.533 286.456 113.653C287.544 115.448 288.542 117.296 289.444 119.192C290.077 120.268 290.922 121.23 291.636 122.249C292.35 123.268 292.906 124.212 293.561 125.21L292.54 125.994L289.599 123.677C288.746 122.995 287.907 121.773 287.047 121.761C285.598 121.724 284.147 122.506 282.695 122.939C283.473 123.81 284.081 125.056 285.05 125.511C289.084 127.365 293.223 128.982 297.123 131.383C294.888 130.766 292.6 130.267 290.44 129.481C287.815 128.473 286.138 129.11 285.487 131.834C284.833 134.261 284.313 136.722 283.927 139.206C283.659 140.814 283.774 142.462 284.264 144.017C285.406 147.047 287.115 149.842 288.318 152.814C288.601 153.511 287.974 154.536 287.982 155.406C287.951 156.586 287.741 158.161 288.383 158.868C293.09 164.08 294.142 168.289 291.217 173.495C295.345 175.172 295.611 178.86 295.874 183.398C294.915 181.946 293.833 180.579 292.638 179.314C291.7 178.518 290.529 178.049 289.301 177.977C288.841 177.966 288.358 179.664 287.06 180.701C287.113 179.147 287.059 177.591 286.9 176.045C286.613 175.205 286.175 174.425 285.609 173.741C284.21 174.679 282.874 175.707 281.609 176.819C281.106 177.296 281.392 178.624 280.89 179.081C277.019 182.553 278.528 186.503 279.596 190.502C280.009 192.432 280.313 194.383 280.506 196.347C278.903 196.046 277.519 195.78 276.115 195.524C272.65 187.152 272.182 186.68 268.895 188.456L266.114 184.553C265.378 185.955 264.473 186.902 264.458 187.871C264.408 189.821 263.476 190.277 261.815 190.304C257.601 190.396 255.557 193.264 256.358 197.516C256.709 199.426 258.672 201.637 255.779 203.273L255.788 203.323ZM233.609 99.2583C231.529 100.041 229.501 100.954 227.536 101.993C227.13 102.233 227.198 103.865 227.559 104.614C227.824 105.171 229.228 105.818 229.594 105.587C231.638 104.299 234.273 103.367 233.609 99.2583Z" fill="#A3A3A3"/>
<path d="M105.168 188.595C106.696 190.635 105.632 191.928 103.743 192.66C101.198 193.594 98.5761 194.397 95.9836 195.241C89.8908 197.211 83.7949 199.178 77.6956 201.142C77.4232 201.235 77.0758 201.126 76.5217 200.502L100.411 189.953L100.24 189.228L95.7612 189.113L95.6653 188.56C99.4688 187.308 103.236 185.914 107.093 184.913C108.04 184.667 109.312 185.761 110.452 186.17C111.049 186.47 111.715 186.608 112.382 186.57C117.022 185.479 121.653 184.328 125.234 180.839C125.469 180.609 125.754 180.438 126.067 180.34C130.24 179.097 134.441 177.965 138.576 176.661C141.53 175.77 144.411 174.654 147.195 173.321C147.732 173.045 147.463 171.037 147.444 169.837C147.465 169.047 146.82 168.07 147.114 167.517C148.163 165.604 149.119 163.448 150.725 162.088C153.68 159.584 152.293 157.887 150.631 156.414L151.122 152.115L150.346 151.935C152.896 149.23 155.633 146.68 157.889 143.757C158.674 142.777 158.285 140.816 158.377 139.948C160.092 137.831 161.585 135.779 163.303 133.933C165.752 131.305 169.176 131.203 172.383 130.955C174.179 130.954 175.971 131.098 177.744 131.383C178.042 131.371 178.339 131.43 178.61 131.556C181.437 133.629 184.245 135.702 187.012 137.774C184.354 138.856 184.524 140.411 187.145 142.349C188.215 143.137 188.768 144.592 189.692 145.616C191.637 147.756 196.031 148.04 198.781 146.92C200.207 146.337 202.113 146.896 203.902 146.942L202.869 142.014C205.177 143.283 206.922 143.888 208.203 145.032C210.764 147.329 210.737 150.329 210.382 153.631C209.892 158.29 210.31 163.022 213.543 166.856C214.271 167.715 215.654 168.021 216.285 168.358C214.919 171.399 213.724 174.514 212.704 177.688C212.018 180.252 213.309 182.156 216.035 183.146C217.59 183.716 218.898 184.99 220.314 185.947L219.812 187.185C217.438 186.913 215.068 186.502 212.689 186.411C211.543 186.531 210.418 186.809 209.347 187.235C209.786 188.437 209.896 189.99 210.726 190.782C213.655 193.588 217.123 195.638 218.135 200.266C218.654 202.62 221.387 204.481 223.221 206.689C221.521 209.786 222.555 212.363 224.939 214.936C229.154 219.476 233.113 224.239 237.163 228.935C237.41 229.398 237.59 229.895 237.695 230.409C234.556 231.499 233.413 229.298 231.949 227.49C226.745 220.954 221.593 214.359 216.103 208.076C214.365 206.031 211.674 204.861 209.331 203.42C208.927 203.17 208.135 203.609 207.514 203.654C206.371 203.744 204.917 204.267 204.12 203.756C200.488 201.472 197.702 203.591 195.767 204.542L192.645 211.574C192.053 210.346 191.375 209.162 190.616 208.03C190.006 207.254 189.084 206.12 188.383 206.172C187.273 206.423 186.284 207.052 185.586 207.951C184.983 208.737 184.612 209.677 184.516 210.664C184.11 213.985 182.5 213.973 180.014 212.639C178.787 212.022 177.371 211.9 176.058 212.298C174.744 212.696 173.634 213.584 172.956 214.778C172.319 215.842 170.754 217.552 170.438 217.384C168.8 216.534 167.337 215.383 166.124 213.992C164.584 212.016 163.151 209.959 161.831 207.829L159.41 212.499C158.913 211.625 158.605 211.157 158.367 210.661C157.676 209.133 156.961 208.164 155.289 209.792C153.77 211.263 152.168 211.342 151.741 208.9C151.112 205.323 150.766 201.683 150.379 198.061C150.336 197.061 150.362 196.059 150.456 195.062C150.012 194.811 149.818 194.596 149.647 194.621C143.132 195.524 142.742 194.744 144.859 188.266C145.565 186.114 145.477 182.92 144.322 181.14C142.86 178.882 140.13 177.701 136.823 179.076C130.513 181.705 124.118 184.161 117.632 186.235C113.782 187.356 109.621 187.749 105.168 188.595Z" fill="#A3A3A3"/>
<path d="M106.753 81.1505C102.604 77.5625 101.707 77.4394 98.8611 79.947L98.5743 77.4888L92.3286 70.6358C95.3445 68.1126 93.4654 65.3333 91.8046 62.6196C92.8238 61.3552 93.9519 60.1826 95.1759 59.1152C96.8557 57.9129 98.8645 57.2562 100.93 57.2342C102.996 57.2122 105.018 57.826 106.723 58.9924C108.553 60.1798 109.925 60.9054 112.194 59.0131C114.791 56.8492 118.281 55.7287 121.324 54.0765C125.169 51.9847 128.719 53.6066 131.279 55.9532C132.891 57.4452 132.806 60.7541 133.73 64.129C137.43 66.515 143.952 65.3324 146.062 61.0753C146.242 64.9913 152.316 66.8282 159.656 64.9864C158.423 67.4255 158.078 69.5674 161.141 70.6665C161.458 70.7747 161.537 71.577 161.695 72.0613C162.441 74.6498 163.341 77.1915 164.39 79.6731C163.907 80.9411 161.761 82.3064 164.078 83.2563L161.027 91.4105C156.959 90.8856 158.632 95.4502 156.504 97.296C152.372 97.3297 151.018 98.2152 150.074 101.852L147.839 100.104L147.462 103.095C144.996 102.492 142.502 101.447 140.073 101.395C136.867 101.33 133.701 100.665 130.74 99.4338C129.136 98.8741 127.759 97.806 126.817 96.3918C125.602 94.63 124.384 95.3288 123.448 96.7252C122.241 98.5048 121.163 100.368 119.818 102.084C120.175 97.9614 124.94 95.4932 124.117 90.5304C122.671 90.7333 121.447 90.9018 120.433 91.0457C121.493 88.7322 122.793 86.4049 123.617 83.9253C124.341 81.8433 121.552 79.4207 119.185 79.6799C117.74 79.8328 116.005 79.2379 114.859 79.8386C112.083 81.2176 108.857 77.1333 106.753 81.1505Z" fill="#A3A3A3"/>
<path d="M234.102 38.5027C230.084 39.1495 228.255 41.0331 229.69 43.6008C227.928 43.2354 226.011 42.3457 224.283 42.6114C222.747 42.8519 221.407 44.3779 220.429 45.043C215.457 43.9147 210.712 42.8822 205.997 41.8406L201.763 35.7296C202.72 33.5235 201.809 30.0489 200.514 29.4454L201.069 21.8871L200.074 21.6615L202.544 21.3349C203.133 16.6985 207.316 15.4558 209.261 13.7353C212.553 13.3398 214.886 13.2398 217.139 12.7576C219.694 12.2032 223.548 14.4531 225.349 15.97C229.097 19.2075 229.643 25.5737 235.758 26.2412C234.74 26.9353 233.408 27.4011 233.239 28.127C233.07 28.8529 234.124 29.8704 234.51 30.8106C234.915 31.5783 235.132 32.4303 235.146 33.2978C234.888 35.0496 234.539 36.7868 234.102 38.5027V38.5027Z" fill="#A3A3A3"/>
<path d="M24.0827 35.7854L23.0846 38.0305C25.0646 38.8317 26.877 39.5386 28.0358 39.9885L29.8244 43.5657C29.8652 45.4159 30.0688 47.2588 30.4328 49.0732C31.2326 51.8147 28.5417 53.366 28.469 55.8049C28.3187 56.9575 27.8887 58.0557 27.2162 59.0037C26.8925 59.5356 26.0376 59.7136 25.5356 60.1709C23.2238 62.5217 20.3234 64.2089 17.1371 65.0564C12.434 66.2858 9.07191 64.3786 6.03539 62.6499C2.37808 60.5551 0.684193 56.4101 0.384762 51.7209C0.0587254 46.5108 3.6899 43.4032 5.70348 39.4037C7.39302 35.946 11.64 36.8956 14.0138 34.4459C14.6098 33.831 16.931 34.9811 18.4759 35.2009C20.1599 35.4544 21.8975 35.5691 24.0827 35.7854Z" fill="#A3A3A3"/>
<path d="M176.114 113.876C174.773 116.052 173.279 118.129 171.642 120.093C170.326 121.489 168.404 122.3 166.756 123.378C165.341 124.342 163.604 124.977 162.6 126.272C161.174 128.036 160.214 128.411 158.831 125.825C158.381 128.894 156.489 128.586 154.769 128.171C152.78 127.71 152.063 126.431 152.188 124.293C152.443 119.799 151.641 119.118 147.615 119.664C148.951 115.957 147.868 112.558 146.879 109.412C148.936 107.214 151.181 104.711 153.6 102.443C154.421 101.663 155.834 101.55 156.879 100.976C161.517 98.4049 166.08 98.7324 170.061 102.236C171.294 103.318 173.047 102.833 174.236 104.814C175.511 106.988 177.655 108.394 176.478 111.394C176.189 112.127 176.771 113.202 176.958 114.117L176.114 113.876Z" fill="#A3A3A3"/>
<path d="M81.0841 46.1783C79.005 44.1741 76.6344 42.6126 75.2807 40.407C73.6197 37.7034 74.904 34.8355 77.0473 32.79C79.1906 30.7444 81.8071 29.7515 84.9626 31.1331C86.7132 31.9084 88.7736 31.9214 90.6395 32.4896C91.8207 32.8502 93.6172 33.3966 93.8368 34.1925C94.0295 35.6439 93.7122 37.1173 92.9392 38.3608C92.0875 40.1045 90.8309 41.6191 89.2743 42.7779C86.9875 44.1795 84.2781 44.9 81.0841 46.1783Z" fill="#A3A3A3"/>
<path d="M74.25 53.6338C72.4049 51.8658 72.4941 51.508 75.8978 50.2451C77.4732 49.6655 78.9385 48.7029 80.5677 48.3647C82.0419 48.2695 83.5221 48.3648 84.9719 48.6481C85.4516 49.576 86.0746 50.4225 86.8179 51.1564C89.5476 53.1473 90.1505 55.7637 89.4709 58.8472C88.7362 62.1294 86.0267 63.2401 83.2468 63.9788C81.232 64.5271 78.538 65.4281 77.0593 64.5797C75.5807 63.7314 75.4125 60.9362 74.8942 58.9222C74.5695 57.1745 74.3544 55.4083 74.25 53.6338V53.6338Z" fill="#A3A3A3"/>
<path d="M199.987 82.5594C198.475 81.06 196.764 79.1454 194.826 77.5049C192.192 75.2664 192.227 71.9862 195.109 68.8094C197.292 66.4247 200.252 65.2905 203.068 66.2433C205.607 67.0989 208.357 68.3101 209.012 71.9982C210.001 77.4955 208.731 79.4134 203.011 80.1164C201.807 80.2655 200.764 81.9092 199.987 82.5594Z" fill="#A3A3A3"/>
<path d="M206.622 48.6373C206.47 51.4444 204.271 53.6985 201.783 53.5944C199.295 53.4904 196.509 50.5877 196.56 48.1883C196.612 45.7888 199.961 42.3639 202.068 42.5181C203.924 42.7059 206.679 46.4381 206.622 48.6373Z" fill="#A3A3A3"/>
<path d="M258.719 9.82572C257.42 9.22806 256.158 8.55426 254.939 7.80782C253.839 7.01925 252.38 6.18144 252.009 5.05151C251.638 3.92159 251.86 1.5265 252.662 1.06699C253.973 0.250468 256.748 -0.278311 257.499 0.471261C259.041 2.2289 260.087 4.36541 260.531 6.66131C260.767 7.5677 259.272 8.91967 258.719 9.82572Z" fill="#A3A3A3"/>
<path d="M17.2696 152.8C19.0105 150.844 19.9317 148.867 21.3843 148.394C23.2817 147.743 26.3312 150.522 26.2196 152.14C26.1058 154.228 23.7048 156.567 21.8201 155.948C20.2917 155.479 19.0858 154.137 17.2696 152.8Z" fill="#A3A3A3"/>
<path d="M309.632 121.864C307.787 115.815 308.628 111.155 312.076 108.923C314.216 111.699 313.115 117.533 309.632 121.864Z" fill="#A3A3A3"/>
<path d="M62.1367 93.2461C65.3147 90.647 67.69 88.5274 70.308 86.6942C71.3625 86.1713 72.5318 85.9227 73.7078 85.9714C74.2589 85.9356 75.2098 86.3002 75.33 86.6834C75.4586 87.3975 75.3445 88.1341 75.006 88.7758C74.7301 89.246 74.2844 89.5926 73.7607 89.7441C70.08 90.8897 66.4613 91.957 62.1367 93.2461Z" fill="#A3A3A3"/>
<path d="M123.706 193.552C122.177 196.593 117.42 198.762 112.713 198.56C116.667 196.912 118.499 192.187 123.706 193.552Z" fill="#A3A3A3"/>
<path d="M307.817 136.03L299.457 131.634L299.545 131.346L305.85 133.159L308.28 126.989L309.095 127.19L307.817 136.03Z" fill="#A3A3A3"/>
<path d="M296.385 101.786C296.925 99.9336 297.596 98.1223 298.395 96.3658C298.657 95.8724 300.035 95.9679 300.89 95.7898C300.96 96.5819 301.345 97.5621 301.02 98.124C300.025 99.6593 298.945 101.138 297.785 102.552L296.385 101.786Z" fill="#A3A3A3"/>
<path d="M198.071 108.819L198.445 94.2737L199.963 94.3729L198.929 108.901L198.071 108.819Z" fill="#A3A3A3"/>
<path d="M299.089 174.3L300.265 165.157C303.792 168.799 301.101 171.551 299.864 174.52L299.089 174.3Z" fill="#A3A3A3"/>
<path d="M78.436 21.2111C80.0187 19.9614 81.0026 18.6563 81.6491 18.803C82.6433 19.0386 83.3519 20.2673 84.1913 21.0791C83.3925 21.7988 82.6724 22.9607 81.7781 23.1177C80.8837 23.2748 80.081 22.2037 78.436 21.2111Z" fill="#A3A3A3"/>
<path d="M103.903 22.8072C104.861 24.4624 105.982 25.5816 105.749 26.0858C105.293 27.0744 104.096 27.7538 103.205 28.5611C102.652 27.8767 101.532 27.0676 101.647 26.5204C101.884 25.4461 102.798 24.5193 103.903 22.8072Z" fill="#A3A3A3"/>
<path d="M81.3665 15.7824C83.0645 14.7158 84.0538 13.5908 84.8609 13.7116C85.6681 13.8325 86.3639 15.1708 87.1135 15.9704C86.296 16.6396 85.5167 17.7699 84.6549 17.8277C83.7931 17.8855 82.9402 16.8233 81.3665 15.7824Z" fill="#A3A3A3"/>
<path d="M126.306 191.239C128.228 190.028 130.036 188.204 132.742 190.724L126.495 192.064L126.306 191.239Z" fill="#A3A3A3"/>
<path d="M255.788 203.315L257.549 215.364L256.345 215.483L255.788 203.315Z" fill="#A3A3A3"/>
<path d="M257.448 29.6497C259.305 28.6272 259.945 25.5227 262.788 26.216L263.392 27.2319C261.576 28.2455 259.749 29.2588 257.932 30.2824L257.448 29.6497Z" fill="#A3A3A3"/>
</svg>
