<svg width="1442" height="1084" viewBox="0 0 1442 1084" fill="none" xmlns="http://www.w3.org/2000/svg">
<path fill-rule="evenodd" clip-rule="evenodd" d="M9.11073 4.51667V9.03333H4.58793H0.0651284V18.0667V27.1H5.38123H10.6964L12.624 35.4558C13.6833 40.0511 14.548 44.1161 14.5444 44.4892C14.5408 44.8622 11.2817 45.1667 7.30161 45.1667H0.0651284V54.0708V62.975L9.15144 63.6001C14.1491 63.9433 19.0139 64.5116 19.9627 64.862C22.3128 65.7301 32.4086 86.1473 30.1463 85.4562C22.5887 83.1491 16.3879 82.0145 8.88459 81.5656L0.0651284 81.0371V90.0677V99.0984L7.52775 99.6557C36.9757 101.856 64.4635 122.438 75.2468 150.361C94.8884 201.225 61.0976 255.154 6.17091 260.602L0.0651284 261.207V270.298V279.39L7.37036 278.781C69.2713 273.626 111.302 215.463 96.2814 155.745C94.3755 148.17 94.0897 148.232 105.352 153.773C117.036 159.521 116.32 157.754 116.237 180.667C116.01 243.203 70.8579 291.215 7.07547 296.743L0.0651284 297.351V306.437V315.523L8.32558 314.9C81.0767 309.415 134.843 252.113 134.913 179.989C134.92 171.915 135.155 165.31 135.434 165.31C135.712 165.31 138.238 165.88 141.046 166.576C143.854 167.272 147.736 168.114 149.673 168.447L153.195 169.053L152.684 184.571C150.085 263.619 87.7894 328.375 10.6937 332.169L0.0651284 332.692V342.132V351.571L4.58884 351.258L9.11164 350.945V359.978V369.012L4.55627 368.696L0 368.381L0.258704 377.73L0.517409 387.078L5.7123 387.349C10.2125 387.583 10.9696 387.886 11.3658 389.608C13.9076 400.648 14.5137 403.493 14.5245 404.439C14.5345 405.26 12.6973 405.398 7.30161 404.982L0.0651284 404.426V413.515V422.606L7.07547 423.241C22.0839 424.602 20.6421 423.704 26.4313 435.292C30.9803 444.398 31.3276 445.471 29.5972 445.081C17.8832 442.445 13.6245 441.697 7.37036 441.175L0.0651284 440.566V449.585V458.603L8.79323 459.675C62.1053 466.218 94.485 519.777 75.2468 569.596C64.4635 597.519 36.9757 618.1 7.52775 620.301L0.0651284 620.858V629.889V638.92L8.88459 638.394C68.4553 634.844 111.2 574.408 96.1105 515.069C95.2032 511.498 94.5383 508.577 94.6342 508.577C96.1883 508.577 114.948 518.984 115.422 520.11C116.954 523.744 116.978 550.434 115.457 559.163C106.218 612.205 61.8394 652.732 9.01937 656.366L0.0651284 656.982V666.024V675.066L10.2414 674.48C80.0817 670.456 134.876 611.201 134.892 539.683L134.895 525.172L143.689 527.137L152.484 529.1L152.372 544.358C151.815 621.068 91.186 685.125 12.5028 692.136L0.0651284 693.243V702.083V710.923H4.58793H9.11073V719.957V728.99H4.58793H0.0651284V738.023V747.057H4.98684C7.69419 747.057 10.17 747.479 10.4902 747.996C11.099 748.98 14.5381 762.812 14.5381 764.277C14.5381 764.743 11.2817 765.123 7.30161 765.123H0.0651284V774.027V782.932L9.15144 783.557C14.1491 783.9 19.0139 784.468 19.9627 784.819C22.3128 785.687 32.4086 806.104 30.1463 805.413C22.5887 803.106 16.3879 801.971 8.88459 801.522L0.0651284 800.994V810.024V819.055L7.52775 819.612C36.945 821.81 64.4744 842.423 75.2468 870.317C94.8938 921.195 61.1112 975.109 6.17091 980.558L0.0651284 981.164V990.255V999.347L7.37036 998.738C69.2658 993.584 111.305 935.434 96.2914 875.745C94.3737 868.121 94.0834 868.186 105.352 873.729C117.036 879.478 116.32 877.71 116.237 900.623C116.01 963.159 70.8579 1011.17 7.07547 1016.7L0.0651284 1017.31V1026.39V1035.48L8.32558 1034.86C81.0767 1029.37 134.843 972.07 134.913 899.946C134.92 891.873 135.155 885.267 135.434 885.267C135.712 885.267 138.238 885.837 141.046 886.532C143.854 887.229 147.736 888.071 149.673 888.404L153.195 889.01L152.684 904.528C150.088 983.469 88.627 1047.49 10.9199 1052.2L0.517409 1052.83L0.258704 1062.18L0 1071.53L4.55627 1071.22L9.11164 1070.9V1077.45L9.11073 1084H18.1202H27.1287L27.3919 1076.58L27.6542 1069.16L33.9862 1067.71C37.4687 1066.92 41.437 1065.98 42.8056 1065.63L45.2932 1065V1074.5V1084H54.2004H63.1085L63.682 1073.39C64.4943 1058.36 63.8955 1059.37 75.358 1053.63C87.0224 1047.79 86.3286 1047.64 84.0925 1055.56C82.3928 1061.58 80.6995 1077.66 81.3128 1081.97C81.5896 1083.92 81.9577 1084 90.5845 1084H99.5668V1077.84C99.5668 1020 164.004 981.408 216.516 1007.8C242.857 1021.03 258.787 1045.5 261.163 1076.37L261.75 1084H270.8H279.851L279.291 1074.29C275.777 1013.28 215.818 968.723 157.161 983.521C152.769 984.63 149.082 985.537 148.968 985.537C148.855 985.537 151.058 980.975 153.864 975.399C159.983 963.241 159.214 963.597 179.62 963.498C242.254 963.196 291.192 1008.63 296.984 1072.46L298.031 1084H307.032H316.034L315.483 1073.84C311.462 999.603 250.435 942.989 176.638 945.03C165.902 945.328 165.529 945.275 165.934 943.532C166.164 942.538 167.033 938.594 167.867 934.767L169.38 927.81L173.433 927.203C179.103 926.354 195.85 927.553 207.662 929.653C276.531 941.9 329.901 1002.3 332.674 1071.13L333.193 1084H342.566H351.939V1077.68V1071.35H360.533H369.126V1077.68V1084H378.624H388.122V1076.51V1069.01L395.965 1067.39C400.279 1066.49 404.307 1065.57 404.917 1065.33C405.766 1065.01 405.911 1067.13 405.536 1074.45L405.049 1084H414.108H423.166L423.831 1075.19C424.196 1070.35 424.757 1064.65 425.078 1062.52L425.661 1058.66L435.586 1053.77C447.343 1047.97 446.478 1047.64 444.212 1056.99C443.2 1061.16 442.112 1068.95 441.794 1074.29L441.214 1084H450.265H459.315L459.902 1076.37C464.282 1019.46 518.699 984.551 571.074 1005.05C600.041 1016.39 621.498 1047.12 621.498 1077.28V1084H630.544H639.59L639.574 1075.64C639.477 1024.09 595.071 981.712 540.992 981.565C525.605 981.523 523.192 981.817 511.365 985.171C509.506 985.698 509.762 984.849 514.285 975.48C520.035 963.573 518.829 964.262 535.565 963.313C599.78 959.668 657.624 1013.74 657.675 1077.45L657.681 1084H666.866H676.05L675.492 1071.58C672.339 1001.4 613.268 945.605 541.897 945.387L526.067 945.338L527.853 936.556L529.638 927.773L533.732 927.152C539.278 926.311 562.181 928.228 572.2 930.373C642.135 945.345 693.863 1008.4 693.863 1078.68V1084H702.909H711.954V1077.45V1070.9H721H730.046V1077.45V1084H739.055H748.064L748.327 1076.58L748.589 1069.16L754.921 1067.71C758.404 1066.92 762.372 1065.98 763.74 1065.63L766.228 1065V1074.5V1084H775.135H784.043L784.617 1073.39C785.429 1058.36 784.83 1059.37 796.293 1053.63C807.957 1047.79 807.263 1047.64 805.027 1055.56C803.328 1061.58 801.634 1077.66 802.248 1081.97C802.524 1083.92 802.893 1084 811.519 1084H820.502V1077.84C820.502 1033.37 861.232 996.191 906.435 999.397C947.966 1002.34 978.815 1033.73 982.098 1076.37L982.685 1084H991.735H1000.79L1000.23 1074.29C996.712 1013.28 936.753 968.723 878.096 983.521C873.703 984.63 870.033 985.537 869.938 985.537C869.844 985.537 872.013 980.908 874.758 975.251L879.75 964.967L888.764 963.834C953.54 955.7 1011.77 1004.67 1017.92 1072.46L1018.97 1084H1027.97H1036.97L1036.42 1073.84C1032.4 999.603 971.37 942.989 897.573 945.03C886.837 945.328 886.464 945.275 886.868 943.532C887.099 942.538 887.968 938.594 888.801 934.767L890.315 927.81L894.368 927.203C900.038 926.354 916.785 927.553 928.597 929.653C997.266 941.865 1050.86 1002.33 1053.61 1070.68L1054.14 1084H1063.51H1072.87V1077.68V1071.35H1081.47H1090.06V1077.68V1084H1099.56H1109.06V1076.51V1069.01L1116.9 1067.39C1121.21 1066.49 1125.24 1065.57 1125.85 1065.33C1126.7 1065.01 1126.85 1067.13 1126.47 1074.45L1125.98 1084H1135.04H1144.1L1144.77 1075.19C1145.13 1070.35 1145.69 1064.65 1146.01 1062.52L1146.6 1058.66L1156.52 1053.77C1168.28 1047.97 1167.41 1047.64 1165.15 1056.99C1164.14 1061.16 1163.05 1068.95 1162.73 1074.29L1162.15 1084H1171.2H1180.25L1180.84 1076.37C1185.22 1019.46 1239.63 984.551 1292.01 1005.05C1321.22 1016.48 1342.43 1047.1 1342.43 1077.84V1084H1351.48H1360.52L1360.51 1075.64C1360.41 1024.09 1316.01 981.712 1261.93 981.565C1246.54 981.523 1244.13 981.817 1232.3 985.171C1230.44 985.698 1230.7 984.849 1235.22 975.48C1240.97 963.573 1239.76 964.262 1256.5 963.313C1320.6 959.674 1378.56 1013.85 1378.61 1077.45L1378.62 1084H1387.8H1396.98L1396.43 1071.58C1393.27 1001.4 1334.2 945.605 1262.83 945.387L1247 945.338L1248.79 936.556L1250.57 927.773L1254.67 927.152C1260.21 926.311 1283.12 928.228 1293.13 930.373C1363.07 945.345 1414.8 1008.4 1414.8 1078.68V1084H1423.84H1432.89L1432.89 1077.45V1070.9L1437.41 1071.22L1441.93 1071.53V1061.96V1052.38H1436.52C1431.66 1052.38 1431.07 1052.18 1430.65 1050.35C1428.15 1039.54 1427.49 1036.42 1427.48 1035.47C1427.47 1034.65 1429.3 1034.52 1434.7 1034.93L1441.93 1035.49V1026.4V1017.31L1434.92 1016.67C1419.92 1015.31 1421.36 1016.21 1415.57 1004.62C1411.02 995.515 1410.67 994.443 1412.4 994.832C1424.12 997.469 1428.38 998.217 1434.63 998.738L1441.93 999.347V990.255V981.164L1435.83 980.558C1380.86 975.106 1347.1 921.22 1366.75 870.317C1377.54 842.394 1405.02 821.813 1434.47 819.612L1441.93 819.055V810.024V800.994L1433.12 801.52C1373.57 805.068 1330.81 865.535 1345.89 924.844C1346.8 928.415 1347.46 931.337 1347.37 931.337C1345.81 931.337 1327.05 920.929 1326.58 919.804C1325.05 916.17 1325.02 889.479 1326.54 880.75C1335.78 827.708 1380.16 787.181 1432.98 783.548L1441.93 782.932V773.889V764.847L1431.76 765.433C1361.93 769.457 1307.11 828.73 1307.09 900.228L1307.09 914.738L1298.3 912.775L1289.52 910.813L1289.63 895.556C1290.19 818.761 1350.73 754.796 1429.5 747.777L1441.93 746.67V737.83V728.99H1437.41H1432.89V719.957V710.923H1437.41H1441.93V701.89V692.857H1437.01C1430.75 692.857 1431.16 693.539 1427.87 677.726L1427.26 674.79H1434.6H1441.93V665.886V656.982L1432.85 656.357C1427.85 656.013 1422.99 655.445 1422.04 655.095C1419.69 654.227 1409.59 633.809 1411.85 634.5C1419.41 636.808 1425.61 637.942 1433.12 638.391L1441.93 638.92V629.889V620.858L1434.47 620.301C1405.06 618.103 1377.53 597.49 1366.75 569.596C1347.1 518.693 1380.86 464.807 1435.83 459.355L1441.93 458.75V449.659V440.566L1434.63 441.175C1372.63 446.339 1330.77 504.383 1345.77 564.39C1347.62 571.764 1347.88 571.712 1336.65 566.184C1324.96 560.435 1325.68 562.203 1325.76 539.29C1325.99 476.754 1371.14 428.742 1434.92 423.213L1441.93 422.606V413.52V404.434L1433.67 405.056C1360.92 410.541 1307.16 467.844 1307.09 539.967C1307.08 548.041 1306.85 554.647 1306.57 554.647C1306.29 554.647 1303.76 554.077 1300.95 553.381C1298.15 552.685 1294.26 551.843 1292.33 551.509L1288.81 550.903L1289.32 535.386C1291.91 456.444 1353.37 392.421 1431.08 387.709L1441.48 387.078L1441.74 377.73L1442 368.381L1437.44 368.696L1432.89 369.012V359.978V350.945L1437.41 351.258L1441.93 351.571V341.999V332.427H1436.52C1431.65 332.427 1431.07 332.225 1430.66 330.394C1430.41 329.276 1429.59 325.593 1428.83 322.208C1428.08 318.823 1427.46 315.686 1427.46 315.235C1427.46 314.767 1430.56 314.655 1434.7 314.974L1441.93 315.531V306.441V297.351L1434.92 296.715C1419.9 295.354 1421.37 296.273 1415.49 284.526C1412.63 278.826 1410.29 274.07 1410.29 273.958C1410.28 273.846 1411.39 274.176 1412.74 274.691C1416.88 276.263 1426.93 278.14 1434.63 278.781L1441.93 279.39V270.298V261.207L1435.83 260.602C1374.34 254.502 1341.35 188.647 1373.73 136.643C1386.62 115.957 1410.44 101.452 1434.47 99.6557L1441.93 99.0984V89.9512V80.805L1433.4 81.4274C1372.98 85.8402 1330.76 145.404 1345.89 204.888C1346.8 208.459 1347.46 211.38 1347.37 211.38C1345.81 211.38 1327.05 200.973 1326.58 199.847C1325.05 196.213 1325.02 169.522 1326.54 160.793C1335.79 107.732 1380.14 67.2252 1432.98 63.5911L1441.93 62.975V53.9353V44.8957L1432.21 45.4178C1362.25 49.1748 1307.11 108.601 1307.09 180.271L1307.09 194.781L1298.3 192.818L1289.52 190.856L1289.63 175.599C1290.18 98.8752 1350.8 34.8325 1429.5 27.8209L1441.93 26.7134V17.8734V9.03333H1437.41H1432.89V4.51667V0H1423.84H1414.8V5.30889V10.6169L1406.43 12.5419C1401.83 13.5997 1397.76 14.4633 1397.39 14.4597C1397.01 14.456 1396.71 11.2013 1396.71 7.22667V0H1387.79H1378.87L1378.25 9.07398C1377.9 14.0649 1377.34 18.923 1376.98 19.8706C1376.12 22.2175 1355.67 32.2996 1356.36 30.0403C1358.67 22.493 1359.81 16.3006 1360.26 8.8075L1360.79 0H1351.74H1342.7L1342.14 7.4525C1338.05 62.0382 1277.9 96.6196 1227.81 73.179C1201.06 60.6597 1183.97 36.1866 1180.98 6.0975L1180.37 0H1171.27H1162.17L1162.77 7.29532C1167.95 69.2522 1226.03 111.022 1286.16 96.0316C1293.54 94.1906 1293.49 93.9241 1287.95 105.144C1282.2 116.812 1283.97 116.097 1261.02 116.014C1198.16 115.787 1150.61 71.0246 1144.75 6.54917L1144.15 0H1135.07H1125.98L1126.61 8.24924C1132.1 80.9016 1189.48 134.595 1261.7 134.664C1269.79 134.672 1276.4 134.965 1276.39 135.315C1276.39 135.665 1276.01 137.374 1275.56 139.113C1275.1 140.852 1274.25 144.67 1273.66 147.597L1272.6 152.92L1257.09 152.411C1178.02 149.818 1113.11 87.5375 1109.31 10.6142L1108.79 0H1099.34H1089.89L1090.2 4.51757L1090.51 9.03424H1081.47H1072.42L1072.74 4.51757L1073.05 0H1063.46H1053.88V5.40284C1053.88 10.2691 1053.68 10.8508 1051.84 11.2591C1050.72 11.5085 1047.04 12.3287 1043.65 13.083C1040.26 13.8364 1037.12 14.4533 1036.66 14.4533C1036.2 14.4533 1036.08 11.3558 1036.4 7.22667L1036.96 0H1027.86H1018.76L1018.12 7.00083C1016.76 21.9889 1017.66 20.549 1006.05 26.3304C996.933 30.8732 995.859 31.2201 996.249 29.492C998.889 17.7939 999.638 13.541 1000.16 7.29532L1000.77 0H991.665H982.562L981.956 6.0975C976.5 60.9497 922.498 94.6946 871.565 75.0796C843.604 64.311 822.995 36.8605 820.791 7.4525L820.233 0H811.073H801.915L802.538 8.52024C806.958 68.8728 866.586 111.025 926.166 95.915C929.742 95.009 932.667 94.345 932.667 94.4408C932.667 95.9927 922.246 114.727 921.119 115.2C917.48 116.731 890.753 116.754 882.012 115.236C828.86 106.002 788.318 61.7284 784.677 8.9421L784.061 0H775.009H765.957L766.48 9.71083C770.228 79.3163 829.839 134.664 901.064 134.669L916.045 134.67L914.08 143.441L912.116 152.212L896.838 152.101C819.939 151.543 755.887 91.0831 748.859 12.4208L747.75 0H738.898H730.046V4.51667V9.03333H721H711.954V4.51667V0H702.909H693.863V5.30889V10.6169L685.496 12.5419C680.895 13.5997 676.824 14.4633 676.45 14.4597C676.077 14.456 675.772 11.2013 675.772 7.22667V0H666.856H657.939L657.314 9.07398C656.97 14.0649 656.401 18.923 656.05 19.8706C655.181 22.2175 634.736 32.2996 635.428 30.0403C637.738 22.493 638.874 16.3006 639.324 8.8075L639.853 0H630.81H621.767L621.209 7.4525C619.005 36.8605 598.396 64.311 570.435 75.0796C519.502 94.6946 465.5 60.9497 460.044 6.0975L459.438 0H450.335H441.23L441.84 7.29532C447.01 69.2107 505.134 111.012 565.222 96.0316C572.606 94.1906 572.553 93.9241 567.018 105.144C561.262 116.812 563.032 116.097 540.088 116.014C477.467 115.787 429.39 70.6967 423.854 7.00083L423.245 0H414.147H405.049L405.672 8.24924C411.164 80.9016 468.544 134.595 540.766 134.664C548.851 134.672 555.463 134.965 555.46 135.315C555.457 135.665 555.08 137.374 554.622 139.113C554.164 140.852 553.311 144.67 552.727 147.597L551.665 152.92L536.153 152.411C457.094 149.818 392.175 87.5249 388.379 10.6142L387.856 0H378.403H368.951L369.264 4.51757L369.578 9.03424H360.533H351.487L351.801 4.51757L352.114 0H342.529H332.943V5.40284C332.943 10.2691 332.742 10.8508 330.908 11.2591C329.788 11.5085 326.1 12.3287 322.711 13.083C319.322 13.8364 316.18 14.4533 315.729 14.4533C315.26 14.4533 315.148 11.3558 315.467 7.22667L316.025 0H306.923H297.82L297.183 7.00083C295.821 21.9889 296.72 20.549 285.117 26.3304C275.998 30.8732 274.924 31.2201 275.314 29.492C277.954 17.7939 278.703 13.541 279.225 7.29532L279.835 0H270.73H261.627L261.021 6.0975C255.566 60.9497 201.563 94.6946 150.63 75.0796C122.669 64.311 102.06 36.8605 99.8563 7.4525L99.2981 0H90.1386H80.9799L81.6031 8.52024C86.0228 68.8728 145.651 111.025 205.231 95.915C208.807 95.009 211.732 94.345 211.732 94.4408C211.732 95.9927 201.311 114.727 200.184 115.2C196.545 116.731 169.818 116.754 161.077 115.236C107.925 106.002 67.3834 61.7284 63.7426 8.9421L63.1257 0H54.0737H45.0218L45.5446 9.71083C49.3067 79.5764 108.813 134.638 180.581 134.661L195.111 134.665L193.145 143.438L191.181 152.212L175.903 152.101C99.0747 151.544 34.945 91.0108 27.9238 12.4208L26.8148 0H17.9628H9.11073V4.51667ZM117.225 5.19417C123.797 61.9271 191.878 83.412 228.756 40.3925C236.89 30.9048 243.392 14.5852 243.392 3.66121V0H234.523H225.654L224.534 6.65576C219.465 36.7846 187.586 53.4105 160.378 40.117C147.909 34.025 137.01 18.7731 135.982 5.97645L135.501 0H126.062H116.623L117.225 5.19417ZM153.313 3.80123C156.015 20.6719 172.75 30.8055 189.24 25.5553C198.395 22.6402 207.21 11.3549 207.21 2.54921V0H198.164C190.475 0 189.118 0.2168 189.118 1.44533C189.118 9.60876 173.859 10.7524 172.248 2.7091L171.706 0H162.205H152.704L153.313 3.80123ZM477.673 3.66121C477.673 14.5852 484.175 30.9048 492.309 40.3925C529.187 83.412 597.268 61.9271 603.84 5.19417L604.442 0H595.003H585.564L585.083 5.97645C584.055 18.7731 573.156 34.025 560.687 40.117C533.479 53.4105 501.601 36.7846 496.531 6.65576L495.412 0H486.542H477.673V3.66121ZM513.856 2.54921C513.856 11.3549 522.671 22.6402 531.825 25.5553C548.315 30.8055 565.05 20.6719 567.752 3.80123L568.361 0H558.86H549.36L548.817 2.7091C547.206 10.7524 531.947 9.60876 531.947 1.44533C531.947 0.2168 530.59 0 522.901 0H513.856V2.54921ZM838.16 5.19417C844.732 61.9271 912.813 83.412 949.691 40.3925C957.825 30.9048 964.327 14.5852 964.327 3.66121V0H955.458H946.588L945.469 6.65576C940.399 36.7846 908.521 53.4105 881.313 40.117C868.844 34.025 857.945 18.7731 856.917 5.97645L856.436 0H846.997H837.558L838.16 5.19417ZM874.248 3.80123C876.95 20.6719 893.685 30.8055 910.175 25.5553C919.329 22.6402 928.144 11.3549 928.144 2.54921V0H919.099C911.41 0 910.053 0.2168 910.053 1.44533C910.053 9.60876 894.794 10.7524 893.183 2.7091L892.64 0H883.14H873.639L874.248 3.80123ZM1198.61 3.66121C1198.61 14.5852 1205.11 30.9048 1213.24 40.3925C1250.12 83.412 1318.2 61.9271 1324.78 5.19417L1325.38 0H1315.94H1306.5L1306.02 5.97645C1304.99 18.7731 1294.09 34.025 1281.62 40.117C1254.41 53.4105 1222.54 36.7846 1217.47 6.65576L1216.35 0H1207.48H1198.61V3.66121ZM1234.79 2.54921C1234.79 11.3549 1243.61 22.6402 1252.76 25.5553C1269.25 30.8055 1285.98 20.6719 1288.69 3.80123L1289.3 0H1279.8H1270.29L1269.75 2.7091C1268.14 10.7524 1252.88 9.60876 1252.88 1.44533C1252.88 0.2168 1251.52 0 1243.84 0H1234.79V2.54921ZM372.771 33.875C373.568 37.3528 374.492 41.2607 374.825 42.5587L375.431 44.9201L357.579 45.4169C282.945 47.4964 226.099 104.872 225.815 178.408L225.753 194.668L216.959 192.885L208.164 191.103L207.542 187.013C206.699 181.475 208.62 158.604 210.767 148.598C226.01 77.5927 289.232 26.5851 360.953 27.4297L371.324 27.5517L372.771 33.875ZM732.34 29.5842C732.627 30.9509 733.449 34.5904 734.167 37.6744C734.885 40.7575 735.473 43.6518 735.473 44.1062C735.473 44.5605 727.637 45.1576 718.06 45.4331C642.625 47.5984 586.18 105.3 586.156 180.271L586.152 194.781L577.367 192.818L568.582 190.856L568.693 175.599C569.285 93.9783 636.951 28.1479 721.209 27.2174L731.82 27.1L732.34 29.5842ZM1093.71 33.875C1094.5 37.3528 1095.43 41.2607 1095.76 42.5587L1096.37 44.9201L1078.51 45.4169C1003.84 47.4973 947.123 104.754 946.767 178.408L946.688 194.668L937.894 192.885L929.099 191.103L928.51 187.176C926.918 176.578 930.62 149.255 935.818 133.242C956.386 69.8701 1015.99 26.6944 1081.89 27.4351L1092.26 27.5517L1093.71 33.875ZM379.981 64.6678C381.783 65.1294 383.213 67.2685 387.021 75.2016C392.179 85.9476 392.244 86.3063 388.781 84.9919C378.781 81.1952 354.611 79.9866 341.747 82.6405C293.762 92.5384 262.081 131.131 262.017 179.763C261.997 195.084 262.31 197.641 265.64 209.35C266.168 211.207 265.318 210.951 255.935 206.434C244.012 200.693 244.703 201.897 243.752 185.183C240.458 127.297 283.732 74.0462 341.762 64.5775C349.63 63.2939 374.846 63.3535 379.981 64.6678ZM740.631 64.7428C743.221 65.7265 753.561 86.2159 751.081 85.4526C676.554 62.5071 605.788 129.518 624.955 204.888C625.862 208.459 626.527 211.38 626.431 211.38C624.877 211.38 606.117 200.973 605.643 199.847C604.111 196.213 604.087 169.522 605.608 160.793C614.394 110.356 654.584 71.3272 705.17 64.1096C711.604 63.1909 737.775 63.6588 740.631 64.7428ZM1100.92 64.6678C1102.72 65.1294 1104.15 67.2685 1107.96 75.2016C1113.11 85.9476 1113.18 86.3063 1109.72 84.9919C1099.72 81.1952 1075.55 79.9866 1062.68 82.6405C1014.68 92.5429 983.016 131.11 982.952 179.763C982.932 195.084 983.245 197.641 986.574 209.35C987.103 211.207 986.252 210.951 976.87 206.434C964.947 200.693 965.638 201.897 964.687 185.183C961.4 127.431 1004.8 74.0236 1062.7 64.5775C1070.56 63.2939 1095.78 63.3535 1100.92 64.6678ZM376.077 100.676C428.39 111.793 456.177 167.147 433.366 214.801C401.316 281.755 303.473 273.256 282.713 201.713C266.213 144.852 318.366 88.4137 376.077 100.676ZM742.5 102.044C832.18 128.69 814.296 260.438 721 260.438C622.383 260.438 611.204 118.753 708.336 99.943C714.312 98.7858 736.029 100.122 742.5 102.044ZM1095.1 100.316C1148.54 109.77 1177.99 167.965 1153.7 216.157C1123.9 275.308 1039.04 275.308 1009.23 216.157C979.687 157.524 1030.55 88.8997 1095.1 100.316ZM0.0651284 125.826V135.252L6.0497 135.732C18.8637 136.759 34.1363 147.644 40.2367 160.095C53.5482 187.266 36.8997 219.102 6.72993 224.164L0.0651284 225.282V234.139V242.997H3.26908C25.3983 242.997 49.5844 226.016 58.4346 204.266C74.6235 164.477 48.7594 122.026 5.26635 117.001L0.0651284 116.4V125.826ZM351.385 117.376C290.655 127.002 277.565 209.245 332.457 236.298C386.429 262.897 443.466 206.223 417.08 152.212C405.267 128.029 377.401 113.253 351.385 117.376ZM711.734 117.455C664.424 124.88 641.762 180.702 670.814 218.253C707.783 266.038 783.763 240.157 783.808 179.763C783.836 141.368 749.348 111.552 711.734 117.455ZM1072.32 117.376C1011.59 127.002 998.5 209.245 1053.39 236.298C1107.36 262.897 1164.4 206.223 1138.02 152.212C1126.2 128.029 1098.34 113.253 1072.32 117.376ZM1432.67 117.51C1391.02 123.602 1366.84 169.224 1385.01 207.413C1394.51 227.386 1418.08 242.997 1438.73 242.997H1441.93V234.139V225.282L1435.27 224.164C1405.1 219.102 1388.45 187.266 1401.76 160.095C1407.86 147.644 1423.14 136.759 1435.95 135.732L1441.93 135.252V125.891C1441.93 115.231 1442.81 116.026 1432.67 117.51ZM373.954 137.327C406.346 147.318 415.982 189.08 391.231 212.202C361.073 240.375 313.355 217.796 315.996 176.602C317.81 148.279 346.479 128.852 373.954 137.327ZM740.177 139.778C779.892 159.432 771.32 216.782 727.558 224.187C698.108 229.172 671.02 201.295 676.976 172.132C682.982 142.719 714.014 126.833 740.177 139.778ZM1094.89 137.327C1127.28 147.318 1136.92 189.08 1112.17 212.202C1082.01 240.375 1034.29 217.796 1036.93 176.602C1038.75 148.279 1067.41 128.852 1094.89 137.327ZM476.791 167.537C485.774 238.868 422.09 303.669 350.246 296.301C344.461 295.708 339.578 295.077 339.394 294.898C338.687 294.208 329.44 275.101 329.692 274.849C329.839 274.703 333.581 275.489 338.009 276.596C383.455 287.959 435.596 260.938 452.451 217.288C459.733 198.431 461.558 174.597 457.077 156.883C455.967 152.496 455.059 148.83 455.059 148.736C455.059 148.642 459.694 150.808 465.358 153.549L475.657 158.535L476.791 167.537ZM1197.73 167.537C1206.71 238.856 1143.01 303.668 1071.18 296.301C1065.4 295.708 1060.51 295.077 1060.33 294.898C1059.62 294.208 1050.37 275.101 1050.63 274.849C1050.77 274.703 1054.52 275.489 1058.94 276.596C1071.27 279.679 1093.31 279.449 1105.89 276.107C1161.11 261.436 1191.92 206.476 1176.39 150.359C1175.95 148.763 1177.31 149.2 1186.23 153.521L1196.59 158.535L1197.73 167.537ZM826.747 153.99C837.896 159.432 837.255 157.792 837.172 180.667C836.965 237.858 798.293 284.21 741.805 294.975C732.519 296.745 711.273 297.142 703.813 295.685L699.743 294.89L694.552 284.526C691.697 278.826 689.357 274.078 689.35 273.976C689.345 273.874 690.867 274.322 692.732 274.972C708.493 280.464 733.329 280.06 752.207 274.005C798.749 259.077 829.022 207.276 818.37 160.793C815.72 149.233 815.654 148.789 816.627 149.155C817.134 149.345 821.688 151.522 826.747 153.99ZM0.0651284 161.92V171.408L2.77791 171.949C10.8321 173.558 9.68694 188.797 1.51243 188.797C0.282223 188.797 0.0651284 190.152 0.0651284 197.83V206.863H2.6178C11.4355 206.863 22.7361 198.06 25.6552 188.919C30.9125 172.451 20.7651 155.738 3.87152 153.04L0.0651284 152.432V161.92ZM353.296 153.873C323.085 163.867 328.948 206.431 360.533 206.405C395.355 206.377 396.748 155.41 361.992 153.025C359.199 152.832 355.286 153.214 353.296 153.873ZM712.243 154.284C693.187 161.085 687.763 184.565 701.958 198.8C722.512 219.412 756.484 197.593 746.273 170.339C741.266 156.976 725.518 149.546 712.243 154.284ZM1074.23 153.873C1044.02 163.867 1049.88 206.431 1081.47 206.405C1116.29 206.377 1117.68 155.41 1082.93 153.025C1080.13 152.832 1076.22 153.214 1074.23 153.873ZM1433.18 154.34C1406.33 163.606 1411.44 206.863 1439.38 206.863H1441.93V197.83C1441.93 190.445 1441.69 188.797 1440.59 188.797C1432.44 188.797 1431.2 173.551 1439.22 171.949L1441.93 171.408V162.035C1441.93 151.253 1441.99 151.299 1433.18 154.34ZM505.897 167.574L512.864 169.085L513.472 173.133C513.807 175.359 513.79 181.725 513.435 187.279C508.278 268.061 445.337 329.864 365.879 332.167L349.516 332.641L347.948 324.758C347.086 320.423 346.202 316.411 345.984 315.844C345.697 315.096 349.762 314.803 360.749 314.778C437.337 314.608 497.736 252.607 495.621 176.333C495.323 165.612 495.375 165.24 497.121 165.643C498.116 165.874 502.066 166.742 505.897 167.574ZM861.981 166.576C864.789 167.272 868.613 168.103 870.479 168.424L873.871 169.006V179.603C873.871 262.805 809.019 329.839 726.246 332.194L710.236 332.649L709.754 330.505C707.354 319.828 706.527 315.963 706.527 315.433C706.527 315.092 713.142 314.79 721.226 314.764C796.788 314.517 855.774 255.463 855.847 179.989C855.855 171.916 856.09 165.31 856.368 165.31C856.647 165.31 859.173 165.88 861.981 166.576ZM1226.83 167.574L1233.8 169.085L1234.41 173.133C1234.74 175.359 1234.72 181.725 1234.37 187.279C1229.21 268.061 1166.27 329.864 1086.81 332.167L1070.45 332.641L1068.88 324.758C1068.02 320.423 1067.14 316.411 1066.92 315.844C1066.63 315.096 1070.7 314.803 1081.68 314.778C1158.27 314.608 1218.67 252.607 1216.56 176.333C1216.26 165.612 1216.31 165.24 1218.06 165.643C1219.05 165.874 1223 166.742 1226.83 167.574ZM189.118 179.763V188.797H180.073H171.027V179.763V170.73H180.073H189.118V179.763ZM550.038 179.763V188.797H540.992H531.947V179.763V170.73H540.992H550.038V179.763ZM910.053 179.763V188.797H901.008H891.962V179.763V170.73H901.008H910.053V179.763ZM1270.97 179.763V188.797H1261.93H1252.88V179.763V170.73H1261.93H1270.97V179.763ZM366.695 174.167C372.13 179.832 368.43 188.345 360.533 188.345C357.023 188.345 355.935 187.915 354.122 185.81C349.169 180.061 352.979 171.633 360.533 171.633C363.441 171.633 364.801 172.192 366.695 174.167ZM725.573 172.564C732.824 176.439 729.343 188.797 721 188.797C717.562 188.797 711.954 183.785 711.954 180.712C711.954 173.912 719.57 169.355 725.573 172.564ZM1087.63 174.167C1093.06 179.832 1089.37 188.345 1081.47 188.345C1077.96 188.345 1076.87 187.915 1075.06 185.81C1070.1 180.061 1073.91 171.633 1081.47 171.633C1084.38 171.633 1085.74 172.192 1087.63 174.167ZM207.221 209.615C278.472 222.427 330.59 282.647 332.682 354.576L333.155 370.855L325.206 372.505C320.834 373.413 316.818 374.323 316.281 374.529C315.607 374.787 315.294 370.212 315.271 359.762C315.1 283.263 253.031 222.96 176.638 225.074C165.902 225.371 165.529 225.318 165.934 223.575C166.164 222.581 167.033 218.642 167.864 214.82C169.114 209.076 169.715 207.795 171.332 207.427C175.336 206.517 197.514 207.87 207.221 209.615ZM554.109 207.803C634.626 215.396 696.903 284.898 693.705 363.592L693.411 370.818L686.627 372.256C682.895 373.046 678.926 373.988 677.807 374.349L675.772 375.005V361.911C675.772 285.132 617.781 225.824 542.349 225.46L526.067 225.382L527.85 216.611C529.34 209.282 529.935 207.78 531.468 207.475C535.113 206.75 544.355 206.883 554.109 207.803ZM928.156 209.615C999.343 222.416 1051.81 283.013 1053.67 354.576L1054.09 370.855L1046.14 372.505C1041.77 373.413 1037.75 374.323 1037.22 374.529C1036.54 374.787 1036.23 370.212 1036.21 359.762C1036.03 283.263 973.966 222.96 897.573 225.074C886.837 225.371 886.464 225.318 886.868 223.575C887.099 222.581 887.967 218.642 888.799 214.82C890.049 209.076 890.65 207.795 892.267 207.427C896.271 206.517 918.448 207.87 928.156 209.615ZM1275.04 207.803C1355.29 215.371 1417.2 284.076 1414.61 362.687L1414.35 370.817L1407.56 372.255C1403.83 373.046 1399.92 373.97 1398.87 374.31C1396.98 374.919 1396.95 374.734 1396.46 357.064C1394.37 282.495 1336.94 225.728 1263.28 225.444L1247 225.382L1248.78 216.611C1250.27 209.282 1250.87 207.78 1252.4 207.475C1256.05 206.75 1265.29 206.883 1275.04 207.803ZM202.664 245.249C261.163 256.913 302.744 312.147 296.769 370.251C296.175 376.028 295.543 380.905 295.363 381.088C294.673 381.795 275.54 391.029 275.288 390.777C275.141 390.63 275.928 386.893 277.037 382.471C280.124 370.157 279.894 348.154 276.547 335.588C261.847 280.41 206.861 249.68 150.593 265.194C148.889 265.664 156.396 248.325 159.108 245.527C161.629 242.925 190.101 242.744 202.664 245.249ZM556.988 244.397C617.05 253.303 659.74 304.383 657.359 364.495C656.677 381.702 657.343 380.454 645.707 386.282C634.038 392.126 634.718 392.278 637.047 384.356C641.208 370.199 640.267 344.863 634.981 328.758C619.118 280.424 565.682 250.934 517.099 263.701C513.16 264.735 509.84 265.481 509.72 265.355C509.293 264.912 519.319 245.25 520.107 244.985C526.124 242.952 545.199 242.649 556.988 244.397ZM923.599 245.249C982.078 256.909 1023.68 312.166 1017.7 370.251C1017.11 376.028 1016.48 380.905 1016.3 381.088C1015.61 381.795 996.475 391.029 996.223 390.777C996.076 390.63 996.863 386.893 997.972 382.471C1009.35 337.067 982.312 285.025 938.583 268.184C919.7 260.912 895.834 259.09 878.096 263.565C873.703 264.673 870.033 265.58 869.938 265.58C869.844 265.58 872.013 260.947 874.758 255.283L879.75 244.987L886.082 244.048C894.195 242.845 914.864 243.507 923.599 245.249ZM1277.92 244.397C1337.98 253.303 1380.67 304.383 1378.29 364.495C1377.61 381.702 1378.28 380.454 1366.64 386.282C1354.97 392.126 1355.65 392.278 1357.98 384.356C1362.14 370.199 1361.2 344.863 1355.92 328.758C1340.05 280.424 1286.62 250.934 1238.03 263.701C1234.09 264.735 1230.78 265.481 1230.65 265.355C1230.23 264.912 1240.25 245.25 1241.04 244.985C1247.06 242.952 1266.13 242.649 1277.92 244.397ZM202.043 282.246C261.48 299.563 281.005 372.943 237.808 416.65C196.026 458.926 123.398 442.651 103.925 386.647C82.6226 325.385 140.121 264.205 202.043 282.246ZM554.998 280.508C613.106 290.627 640.896 358.767 606.566 406.952C570.051 458.203 490.294 449.034 466.015 390.795C441.633 332.306 492.242 269.579 554.998 280.508ZM922.978 282.246C982.414 299.563 1001.94 372.943 958.743 416.65C914.377 461.54 838.382 440.527 822.767 379.05C807.745 319.916 864.405 265.181 922.978 282.246ZM1275.93 280.508C1340.86 291.815 1365.24 373.22 1317.24 418.439C1265.56 467.127 1181.16 430.868 1181.16 359.978C1181.16 309.338 1225.93 271.799 1275.93 280.508ZM165.154 298.6C125.441 308.599 105.522 353.08 124.519 389.337C148.231 434.589 214.051 433.815 236.684 388.016C260.304 340.219 216.639 285.635 165.154 298.6ZM527.562 298.167C487.927 305.951 466.184 351.193 484.381 388.016C507.014 433.815 572.834 434.589 596.546 389.337C621.265 342.164 580.159 287.837 527.562 298.167ZM886.089 298.6C846.376 308.599 826.456 353.08 845.454 389.337C869.141 434.541 935.01 433.765 957.619 388.016C981.235 340.227 937.565 285.638 886.089 298.6ZM1247.45 298.479C1201.04 309.031 1182.76 367.205 1214.88 402.202C1253.86 444.69 1324.71 417.454 1324.71 359.978C1324.71 319.615 1286.9 289.513 1247.45 298.479ZM191.342 316.646C224.715 325.327 236.203 365.391 212.555 390.635C185.036 420.013 135.749 400.34 135.749 359.978C135.749 330.613 163.094 309.299 191.342 316.646ZM557.378 318.352C583.666 329.008 593.64 361.494 577.832 384.979C556.232 417.07 506.027 407.85 497.128 370.158C488.924 335.409 524.337 304.96 557.378 318.352ZM912.277 316.646C945.65 325.327 957.137 365.391 933.49 390.635C905.971 420.013 856.684 400.34 856.684 359.978C856.684 330.613 884.029 309.299 912.277 316.646ZM1278.31 318.352C1315.43 333.397 1315.43 386.656 1278.31 401.586C1253.34 411.63 1224.27 396.467 1218.06 370.158C1209.86 335.409 1245.27 304.96 1278.31 318.352ZM85.4701 330.846C75.0152 363.514 83.9731 402.246 107.886 427.775C127.018 448.199 150.91 458.322 180.073 458.36C195.414 458.38 197.975 458.068 209.7 454.742C211.559 454.215 211.303 455.064 206.78 464.433C201.03 476.34 202.236 475.651 185.5 476.6C118.114 480.425 60.886 423.492 63.7353 355.462C64.4789 337.708 63.7634 339.094 75.0206 333.62C86.1685 328.2 86.3304 328.157 85.4701 330.846ZM446.014 329.194C446.014 329.403 445.113 333.163 444.014 337.549C426.246 408.385 496.423 475.94 566.711 455.664C569.164 454.956 571.41 454.377 571.702 454.377C571.994 454.377 569.987 459.005 567.242 464.662L562.25 474.946L553.236 476.079C481.833 485.046 416.921 421.426 424.296 349.706C424.89 343.929 425.531 339.044 425.72 338.85C427.083 337.456 446.014 328.447 446.014 329.194ZM806.405 330.846C795.95 363.514 804.908 402.246 828.821 427.775C847.952 448.199 871.845 458.322 901.008 458.36C916.349 458.38 918.91 458.068 930.635 454.742C932.494 454.215 932.238 455.064 927.715 464.433C921.965 476.34 923.171 475.651 906.435 476.6C839.049 480.425 781.821 423.492 784.67 355.462C785.414 337.708 784.698 339.094 795.956 333.62C807.103 328.2 807.265 328.157 806.405 330.846ZM1166.95 329.194C1166.95 329.403 1166.05 333.163 1164.95 337.549C1153.58 382.862 1180.67 434.951 1224.35 451.772C1243.23 459.044 1267.1 460.867 1284.84 456.392C1289.23 455.284 1292.9 454.377 1293 454.377C1293.09 454.377 1290.92 459.005 1288.18 464.662L1283.18 474.946L1274.17 476.079C1202.77 485.046 1137.86 421.426 1145.23 349.706C1145.83 343.929 1146.47 339.044 1146.65 338.85C1148.02 337.456 1166.95 328.447 1166.95 329.194ZM175.983 333.405C159.001 335.576 148.325 355.069 155.492 370.818C167.669 397.575 206.727 389.315 206.751 359.978C206.764 342.356 193.769 331.132 175.983 333.405ZM536.342 333.395C510.792 337.413 505.374 372.32 528.51 383.864C539.211 389.205 552.214 387.137 560.17 378.831C578.149 360.056 562.047 329.354 536.342 333.395ZM896.918 333.405C864.487 337.55 868.329 386.576 901.089 386.618C917.298 386.638 927.672 376.247 927.686 359.978C927.699 342.356 914.704 331.132 896.918 333.405ZM1257.28 333.395C1231.73 337.413 1226.31 372.32 1249.44 383.864C1260.15 389.205 1273.15 387.137 1281.1 378.831C1299.08 360.056 1282.98 329.354 1257.28 333.395ZM45.5437 362.914C47.6296 437.61 105.187 494.3 179.168 494.526L194.998 494.575L193.212 503.357L191.428 512.14L187.496 512.728C176.883 514.318 149.523 510.621 133.488 505.43C69.331 484.665 24.6827 421.966 27.3602 356.399L27.6542 349.207L35.7953 347.244C40.2728 346.165 44.186 345.234 44.4908 345.177C44.7957 345.12 45.2696 353.101 45.5437 362.914ZM405.794 360.204C405.966 436.706 468.23 497.149 544.546 494.898C555.165 494.586 555.533 494.637 555.131 496.382C554.901 497.375 554.032 501.319 553.199 505.146L551.685 512.103L547.632 512.71C536.544 514.371 509.727 510.58 492.883 504.971C431.624 484.571 389.983 428.956 388.332 365.331L387.908 349.005L396.382 347.157C401.042 346.142 405.06 345.258 405.308 345.193C405.557 345.128 405.776 351.883 405.794 360.204ZM766.479 362.914C768.562 437.523 825.9 494.141 899.733 494.496L916.098 494.575L914.973 498.842C914.354 501.189 913.569 505.132 913.228 507.606L912.609 512.103L908.392 512.743C897.706 514.363 869.856 510.466 853.066 504.999C790.213 484.537 745.644 421.322 748.295 356.399L748.589 349.207L756.73 347.244C761.208 346.165 765.121 345.234 765.426 345.177C765.73 345.12 766.204 353.101 766.479 362.914ZM1126.73 360.204C1126.9 436.706 1189.16 497.149 1265.48 494.898C1276.1 494.586 1276.47 494.637 1276.07 496.382C1275.84 497.375 1274.97 501.319 1274.13 505.146L1272.62 512.103L1268.57 512.71C1266.34 513.044 1259.96 513.027 1254.4 512.673C1173.52 507.523 1111.62 444.668 1109.32 365.331L1108.84 349.005L1117.32 347.157C1121.98 346.142 1125.99 345.258 1126.24 345.193C1126.49 345.128 1126.71 351.883 1126.73 360.204ZM730.046 359.978V369.012H721H711.954V359.978V350.945H721H730.046V359.978ZM186.128 353.576C188.235 355.387 188.666 356.473 188.666 359.978C188.666 368.018 179.794 371.688 174.272 365.932C166.627 357.964 177.746 346.377 186.128 353.576ZM369.126 359.978V368.56H360.533H351.939V359.978V351.397H360.533H369.126V359.978ZM546.596 353.824C552.085 359.075 548.402 368.56 540.874 368.56C535.593 368.56 532.399 365.326 532.399 359.978C532.399 352.091 540.924 348.397 546.596 353.824ZM907.063 353.576C909.17 355.387 909.601 356.473 909.601 359.978C909.601 368.018 900.729 371.688 895.207 365.932C887.562 357.964 898.681 346.377 907.063 353.576ZM1090.06 359.978V368.56H1081.47H1072.87V359.978V351.397H1081.47H1090.06V359.978ZM1267.53 353.824C1273.02 359.075 1269.34 368.56 1261.81 368.56C1256.53 368.56 1253.33 365.326 1253.33 359.978C1253.33 352.091 1261.86 348.397 1267.53 353.824ZM373.153 395.377C373.995 399.614 374.863 403.545 375.081 404.112C375.368 404.86 371.303 405.154 360.316 405.178C283.696 405.35 223.328 467.318 225.445 543.623C225.742 554.345 225.69 554.717 223.944 554.313C222.949 554.083 219 553.215 215.168 552.383L208.201 550.872L207.593 546.824C205.276 531.398 211.514 498.885 220.86 477.677C245.526 421.701 305.838 384.18 366.01 387.376L371.621 387.675L373.153 395.377ZM731.712 388.022C732.065 388.338 735.415 402.871 735.449 404.242C735.464 404.806 729.954 405.163 720.774 405.193C645.212 405.439 586.226 464.494 586.153 539.967C586.145 548.041 585.91 554.647 585.632 554.647C585.353 554.647 582.827 554.077 580.019 553.381C577.211 552.685 573.329 551.843 571.392 551.509L567.871 550.903L568.382 535.386C570.737 463.737 620.475 404.702 690.697 390.207C702.895 387.689 729.734 386.259 731.712 388.022ZM1094.09 395.377C1094.93 399.614 1095.8 403.545 1096.02 404.112C1096.3 404.86 1092.24 405.154 1081.25 405.178C1004.63 405.35 944.263 467.318 946.38 543.623C946.677 554.345 946.625 554.717 944.879 554.313C943.884 554.083 939.934 553.215 936.103 552.383L929.136 550.872L928.528 546.824C926.211 531.398 932.449 498.885 941.795 477.677C966.453 421.721 1026.85 384.158 1086.99 387.376L1092.56 387.675L1094.09 395.377ZM372.69 423.788L381.745 424.817L386.689 434.832C392.558 446.724 392.938 445.832 383.056 443.361C337.59 431.993 285.478 458.999 268.614 502.669C261.332 521.526 259.507 545.359 263.988 563.074C265.098 567.46 266.006 571.142 266.006 571.255C266.006 571.369 261.438 569.169 255.855 566.367C243.68 560.255 244.036 561.024 243.937 540.645C243.6 470.815 304.007 415.989 372.69 423.788ZM738.637 424.419C742.197 425.038 742.336 425.212 747.364 435.284C751.915 444.398 752.263 445.471 750.532 445.081C749.464 444.841 745.536 443.921 741.805 443.039C671.748 426.465 607.119 493.515 624.838 564.39C626.68 571.757 626.961 571.702 615.729 566.176C604.04 560.426 604.745 562.163 604.828 539.29C605.088 467.742 669.543 412.41 738.637 424.419ZM1093.62 423.788L1102.68 424.817L1107.62 434.832C1113.49 446.724 1113.87 445.832 1103.99 443.361C1058.53 431.993 1006.41 458.999 989.549 502.669C982.267 521.526 980.442 545.359 984.923 563.074C986.033 567.46 986.941 571.142 986.941 571.255C986.941 571.369 982.373 569.169 976.79 566.367C964.614 560.255 964.971 561.024 964.872 540.645C964.535 470.815 1024.94 415.989 1093.62 423.788ZM378.012 461.116C438.59 473.861 462.032 549.477 419.504 594.954C368.17 649.848 275.742 610.599 279.886 535.668C282.101 495.645 310.53 465.76 352.392 459.452C357.056 458.749 371.093 459.66 378.012 461.116ZM731.563 459.863C781.277 466.681 813.703 517.948 797.922 564.781C772.877 639.113 669.268 638.98 644.022 564.583C625.381 509.653 673.642 451.92 731.563 459.863ZM1098.95 461.116C1159.59 473.873 1183.08 550.093 1140.27 595.181C1088.52 649.682 996.683 610.488 1000.82 535.668C1003.04 495.645 1031.47 465.76 1073.33 459.452C1077.99 458.749 1092.03 459.66 1098.95 461.116ZM0.0651284 485.817V494.674L6.72993 495.793C36.8997 500.855 53.5482 532.69 40.2367 559.862C34.1363 572.313 18.8637 583.197 6.0497 584.224L0.0651284 584.704V594.13V603.557L5.26635 602.956C56.336 597.055 80.6823 540.577 49.3782 500.624C38.7568 487.067 19.2599 476.96 3.73131 476.96H0.0651284V485.817ZM346.512 478.361C307.435 486.719 286.203 531.345 303.985 567.745C326.873 614.596 394.184 614.596 417.082 567.745C440.257 520.326 398.369 467.271 346.512 478.361ZM706.046 478.656C658.442 490.352 641.67 549.574 676.211 584.005C716.404 624.07 783.85 596.606 783.808 540.193C783.777 498.803 745.933 468.855 706.046 478.656ZM1067.45 478.361C1028.37 486.719 1007.14 531.345 1024.92 567.745C1047.81 614.595 1115.13 614.595 1138.02 567.745C1161.21 520.258 1119.37 467.256 1067.45 478.361ZM1426.98 478.656C1357.96 495.614 1365.74 594.754 1436.73 602.956L1441.93 603.557V594.13V584.704L1435.95 584.224C1423.14 583.197 1407.86 572.313 1401.76 559.862C1388.43 532.646 1405.44 500.347 1435.56 495.692L1441.93 494.706V485.833V476.96L1437.64 477.027C1435.28 477.063 1430.48 477.796 1426.98 478.656ZM370.726 496.389C402.532 503.878 415.911 542.434 395.521 567.848C377.698 590.065 343.367 590.065 325.544 567.848C299.235 535.055 329.779 486.748 370.726 496.389ZM729.244 495.944C771.567 503.909 778.972 560.981 740.173 580.18L732.444 584.005H721H709.556L701.827 580.18C655.295 557.154 678.336 486.362 729.244 495.944ZM1091.66 496.389C1123.47 503.878 1136.85 542.434 1116.46 567.848C1098.63 590.065 1064.3 590.065 1046.48 567.848C1020.17 535.055 1050.71 486.748 1091.66 496.389ZM466.024 513.828C477.111 519.268 476.382 517.889 477.349 535.225C481.083 602.116 423.901 659.208 356.01 656.373C338.18 655.628 339.633 656.396 334.044 644.755C328.419 633.035 328.236 633.789 336.122 636.181C344.913 638.845 374.515 639.068 383.547 636.537C430.847 623.282 458.986 587.373 459.048 540.193C459.068 524.833 458.771 522.412 455.395 510.488C455.058 509.301 455.151 508.51 455.6 508.725C456.049 508.939 460.74 511.235 466.024 513.828ZM825.72 513.56C837.615 519.502 836.911 518.147 837.452 536.128C839.159 592.849 803.189 639.798 747.287 653.816C737.165 656.355 706.24 657.352 701.369 655.297C698.761 654.198 688.487 633.755 690.919 634.504C706.004 639.149 731.514 639.902 745.403 636.113C799.281 621.415 830.623 568.46 817.045 515.069C816.138 511.498 815.473 508.577 815.569 508.577C815.665 508.577 820.233 510.82 825.72 513.56ZM1186.96 513.828C1198.05 519.268 1197.32 517.889 1198.28 535.225C1202.02 602.116 1144.84 659.208 1076.94 656.373C1059.11 655.628 1060.57 656.396 1054.98 644.755C1049.35 633.035 1049.17 633.789 1057.06 636.181C1065.85 638.845 1095.45 639.068 1104.48 636.537C1151.78 623.282 1179.92 587.373 1179.98 540.193C1180 524.833 1179.71 522.412 1176.33 510.488C1175.99 509.301 1176.09 508.51 1176.54 508.725C1176.98 508.939 1181.67 511.235 1186.96 513.828ZM0.0651284 522.127C0.0651284 529.805 0.282223 531.16 1.51243 531.16C9.68694 531.16 10.8321 546.398 2.77791 548.007L0.0651284 548.549V558.037V567.525L3.87152 566.917C20.7651 564.218 30.9125 547.506 25.6552 531.038C22.7361 521.896 11.4355 513.093 2.6178 513.093H0.0651284V522.127ZM351.671 514.342C323.193 524.936 330.266 566.793 360.533 566.793C395.18 566.793 396.597 514.93 361.993 513.374C357.557 513.175 353.882 513.519 351.671 514.342ZM711.054 514.669C705.109 516.764 697.388 524.842 695.41 531.038C686.685 558.37 719.844 579.288 739.996 559.163C760.55 538.637 738.639 504.949 711.054 514.669ZM1072.61 514.342C1044.13 524.936 1051.2 566.793 1081.47 566.793C1116.11 566.793 1117.53 514.93 1082.93 513.374C1078.49 513.175 1074.82 513.519 1072.61 514.342ZM1431.99 514.669C1406.57 523.627 1411.15 562.608 1438.13 566.917L1441.93 567.525V558.037V548.549L1439.22 548.007C1431.17 546.398 1432.31 531.16 1440.49 531.16C1441.72 531.16 1441.93 529.805 1441.93 522.127V513.093L1439 513.165C1437.38 513.204 1434.23 513.881 1431.99 514.669ZM513.523 532.943C514.366 538.482 512.445 561.353 510.298 571.358C494.953 642.839 428.776 695.358 357.413 692.69L349.771 692.405L347.73 683.823C346.608 679.103 345.671 675.038 345.647 674.79C345.624 674.542 351.202 674.464 358.043 674.617C433.844 676.318 495.032 616.781 495.263 541.097L495.312 525.288L504.106 527.071L512.901 528.854L513.523 532.943ZM873.307 544.358C872.714 626.065 803.802 692.778 719.923 692.849C709.259 692.858 710.367 694.141 706.959 677.844L706.371 675.028L723.861 674.524C799.376 672.353 855.81 614.688 855.827 539.683L855.83 525.172L864.624 527.137L873.419 529.1L873.307 544.358ZM1234.46 532.943C1235.3 538.482 1233.38 561.353 1231.23 571.358C1215.89 642.839 1149.71 695.358 1078.35 692.69L1070.71 692.405L1068.67 683.823C1067.54 679.103 1066.61 675.038 1066.58 674.79C1066.56 674.542 1072.14 674.464 1078.98 674.617C1155.85 676.342 1218.57 613.667 1216.56 537.154L1216.25 525.288L1225.04 527.071L1233.84 528.854L1234.46 532.943ZM189.118 540.135V549.109H180.073H171.027V540.135V531.16H180.073H189.118V540.135ZM367.091 534.341C371.91 539.881 367.951 548.323 360.533 548.323C353.557 548.323 349.427 540.563 353.393 534.91C356.47 530.522 363.513 530.23 367.091 534.341ZM550.038 540.151V549.141L540.992 549.109L531.947 549.077V540.118V531.16H540.992H550.038V540.151ZM726.97 534.231C734.168 541.419 725.498 552.241 716.427 547.393C709.177 543.518 712.657 531.16 721 531.16C723.086 531.16 724.754 532.018 726.97 534.231ZM910.053 540.135V549.109H901.008H891.962V540.135V531.16H901.008H910.053V540.135ZM1088.03 534.341C1092.85 539.881 1088.89 548.323 1081.47 548.323C1074.49 548.323 1070.36 540.563 1074.33 534.91C1077.41 530.522 1084.45 530.23 1088.03 534.341ZM1270.97 540.151V549.141L1261.93 549.109L1252.88 549.077V540.118V531.16H1261.93H1270.97V540.151ZM210.375 570.021C280.712 584.739 330.688 643.85 332.71 714.717L333.166 730.706L331.019 731.202C320.961 733.527 316.983 734.386 316.209 734.396C315.645 734.405 315.286 728.892 315.257 719.731C315.01 644.294 255.911 585.406 180.299 585.253C172.215 585.237 165.6 585.009 165.6 584.745C165.6 584.481 166.171 581.972 166.867 579.167C167.564 576.363 168.408 572.484 168.742 570.547L169.35 567.026L185.34 567.577C196.191 567.951 204.237 568.737 210.375 570.021ZM570.391 570.007C643.383 585.355 693.795 647.181 693.856 721.426L693.863 730.573L685.496 732.498C680.895 733.556 676.876 734.42 676.567 734.416C676.259 734.413 675.781 726.584 675.505 717.021C673.334 641.602 615.673 585.33 540.489 585.259L525.965 585.245L527.986 576.495C529.097 571.683 530.036 567.584 530.073 567.388C530.284 566.232 562.34 568.314 570.391 570.007ZM931.31 570.021C1001.65 584.739 1051.62 643.85 1053.64 714.717L1054.1 730.706L1051.95 731.202C1041.9 733.527 1037.92 734.386 1037.14 734.396C1036.58 734.405 1036.22 728.892 1036.19 719.731C1035.94 644.294 976.846 585.406 901.234 585.253C893.15 585.237 886.535 585.009 886.535 584.745C886.535 584.481 887.105 581.972 887.802 579.167C888.499 576.363 889.343 572.484 889.677 570.547L890.285 567.026L906.275 567.577C917.126 567.951 925.172 568.737 931.31 570.021ZM1291.33 570.007C1364.32 585.355 1414.73 647.181 1414.79 721.426L1414.8 730.573L1406.43 732.498C1401.83 733.556 1397.81 734.42 1397.5 734.416C1397.19 734.413 1396.72 726.584 1396.44 717.021C1394.27 641.602 1336.61 585.33 1261.42 585.259L1246.9 585.245L1248.92 576.495C1250.03 571.683 1250.97 567.584 1251.01 567.388C1251.22 566.232 1283.27 568.314 1291.33 570.007ZM209.471 606.923C266.636 621.753 306.9 682.229 296.152 737.12L295.356 741.185L285.117 746.287C275.998 750.83 274.924 751.177 275.314 749.449C275.555 748.382 276.475 744.46 277.359 740.733C293.955 670.771 226.814 606.231 155.843 623.925C152.716 624.705 149.956 625.142 149.71 624.897C149.337 624.523 157.822 606.49 158.936 605.292C161.767 602.246 195.66 603.341 209.471 606.923ZM560.548 604.823C606.896 612.878 643.011 646.918 654.746 693.609C657.311 703.811 658.322 734.668 656.253 739.561C655.152 742.165 634.681 752.425 635.431 749.997C640.083 734.932 640.837 709.457 637.042 695.586C622.32 641.765 569.314 610.478 515.834 624.042C512.258 624.948 509.333 625.612 509.333 625.516C509.333 625.42 511.599 620.819 514.368 615.29C519.507 605.028 519.553 604.982 525.615 604.028C531.781 603.058 553.199 603.546 560.548 604.823ZM930.406 606.923C985.504 621.216 1023.54 674.857 1017.75 730.119C1016.5 742.072 1017.6 740.602 1005.5 746.576C996.853 750.847 995.863 751.152 996.251 749.433C996.491 748.375 997.41 744.46 998.294 740.733C1014.89 670.771 947.749 606.231 876.778 623.925C873.651 624.705 870.891 625.142 870.645 624.897C870.272 624.523 878.757 606.49 879.871 605.292C882.702 602.246 916.595 603.341 930.406 606.923ZM1281.48 604.823C1327.75 612.866 1363.97 646.995 1375.68 693.609C1378.25 703.811 1379.26 734.668 1377.19 739.561C1376.09 742.165 1355.62 752.425 1356.37 749.997C1361.02 734.932 1361.77 709.457 1357.98 695.586C1343.25 641.765 1290.25 610.478 1236.77 624.042C1233.19 624.948 1230.27 625.612 1230.27 625.516C1230.27 625.42 1232.53 620.819 1235.3 615.29C1240.44 605.028 1240.49 604.982 1246.55 604.028C1252.72 603.058 1274.13 603.546 1281.48 604.823ZM198.759 641.447C251.386 652.993 277.839 715.622 249.508 761.597C207.617 829.574 103.246 803.013 99.8264 723.504C97.5044 669.494 145.426 629.746 198.759 641.447ZM557.29 640.903C619.414 653.357 643.079 731.911 598.201 776.706C555.759 819.068 482.99 802.299 464.242 745.836C444.548 686.524 495.912 628.6 557.29 640.903ZM919.694 641.447C979.717 654.616 1002.47 730.24 959.95 775.252C910.985 827.086 823.822 794.679 820.761 723.504C818.439 669.494 866.361 629.746 919.694 641.447ZM1278.22 640.903C1348.18 654.928 1365.75 748.251 1305.82 787.521C1262 816.237 1201.63 795.376 1185.18 745.836C1165.48 686.524 1216.85 628.6 1278.22 640.903ZM169.286 657.646C118.111 668.436 99.6618 728.127 136.202 764.685C175.54 804.043 243.392 775.729 243.392 719.957C243.392 681.33 206.014 649.901 169.286 657.646ZM527.931 658.154C481.091 668.628 461.66 724.397 492.311 760.382C528.264 802.59 596.077 782.378 603.508 727.239C609.104 685.711 568.929 648.986 527.931 658.154ZM890.221 657.646C839.046 668.436 820.597 728.127 857.136 764.685C896.475 804.043 964.327 775.729 964.327 719.957C964.327 681.33 926.949 649.901 890.221 657.646ZM1248.87 658.154C1202.03 668.628 1182.59 724.397 1213.25 760.382C1249.2 802.59 1317.01 782.378 1324.44 727.239C1330.04 685.711 1289.86 648.986 1248.87 658.154ZM187.309 675.719C211.03 679.413 228.506 703.24 224.557 726.506C217.142 770.21 159.714 778.769 140.031 739.104L136.202 731.385V719.957V708.529L140.031 700.81C149.139 682.456 167.612 672.652 187.309 675.719ZM549.57 676.158C563.59 679.123 574.524 687.69 581.034 700.81L584.864 708.529V719.957V731.385L581.034 739.104C561.351 778.769 503.924 770.21 496.508 726.506C491.435 696.617 519.665 669.832 549.57 676.158ZM908.244 675.719C931.965 679.413 949.44 703.24 945.492 726.506C938.076 770.21 880.649 778.769 860.966 739.104L857.136 731.385V719.957V708.529L860.966 700.81C870.073 682.456 888.547 672.652 908.244 675.719ZM1275.49 677.43C1300.95 685.343 1313.78 715.292 1301.94 739.16C1288.01 767.229 1252 773.393 1230.02 751.468C1197.12 718.644 1230.94 663.582 1275.49 677.43ZM84.0988 695.591C64.9791 767.36 132.43 834.335 205.231 815.872C208.807 814.966 211.732 814.302 211.732 814.397C211.732 815.949 201.311 834.684 200.184 835.157C196.545 836.687 169.818 836.711 161.077 835.192C103.653 825.217 63.8077 777.765 63.9334 719.505C63.9796 698.195 63.4115 699.464 75.6005 693.465C87.3896 687.663 86.2851 687.387 84.0988 695.591ZM444.766 694.829C426.363 768.315 491.967 834.373 565.125 816.022C572.618 814.142 572.561 813.865 567.018 825.101C561.262 836.768 563.032 836.054 540.088 835.971C482.363 835.762 436.825 797.673 425.546 740.168C423.841 731.474 423.477 710.134 424.91 702.793L425.703 698.728L435.632 693.726C447.349 687.823 446.545 687.726 444.766 694.829ZM805.034 695.591C785.914 767.36 853.364 834.335 926.166 815.872C929.742 814.966 932.667 814.302 932.667 814.397C932.667 815.949 922.246 834.684 921.119 835.157C917.48 836.687 890.753 836.711 882.012 835.192C824.588 825.217 784.743 777.765 784.868 719.505C784.914 698.195 784.346 699.464 796.535 693.465C808.324 687.663 807.22 687.387 805.034 695.591ZM1165.7 694.829C1147.29 768.366 1212.81 834.274 1286.16 815.988C1293.54 814.147 1293.49 813.881 1287.95 825.101C1282.2 836.768 1283.97 836.054 1261.02 835.971C1192.17 835.722 1138.16 776.896 1145.18 709.794C1146.43 697.869 1145.4 699.272 1157.14 693.413C1168.22 687.88 1167.47 687.756 1165.7 694.829ZM170.21 694.825C164.337 697.078 158.043 703.05 155.505 708.782C143.414 736.078 177.988 760.002 199.135 738.973C219.928 718.296 197.654 684.3 170.21 694.825ZM531.495 694.453C521.516 697.73 513.856 708.806 513.856 719.957C513.856 745.243 546.213 756.702 561.846 736.95C578.844 715.476 557.687 685.852 531.495 694.453ZM891.145 694.825C885.272 697.078 878.978 703.05 876.44 708.782C864.348 736.078 898.923 760.002 920.07 738.973C940.862 718.296 918.589 684.3 891.145 694.825ZM1252.43 694.453C1242.45 697.73 1234.79 708.806 1234.79 719.957C1234.79 745.243 1267.15 756.702 1282.78 736.95C1299.78 715.476 1278.62 685.852 1252.43 694.453ZM45.56 722.892C47.731 798.311 105.392 854.583 180.577 854.654L195.1 854.668L193.14 863.419L191.181 872.168L175.903 872.057C95.4339 871.475 30.5669 806.51 27.4643 723.395L26.9351 709.218L29.1042 708.772C30.2964 708.526 33.7148 707.73 36.6998 707.004C45.854 704.775 44.9938 703.233 45.56 722.892ZM405.809 720.182C406.055 795.619 465.154 854.507 540.766 854.66C548.851 854.676 555.463 854.963 555.46 855.299C555.457 855.634 555.08 857.331 554.622 859.07C554.164 860.809 553.311 864.626 552.727 867.554L551.665 872.877L536.153 872.368C454.514 869.69 390.663 806.109 388.355 725.196L387.899 709.207L390.046 708.716C391.226 708.446 394.634 707.658 397.62 706.964C400.605 706.271 403.657 705.659 404.404 705.604C405.556 705.519 405.768 707.712 405.809 720.182ZM766.495 722.892C768.666 798.311 826.327 854.583 901.511 854.654L916.035 854.668L914.075 863.419L912.116 872.168L896.838 872.057C814.794 871.463 748.213 802.693 748.144 718.477L748.137 709.32L755.599 707.517C759.704 706.526 763.722 705.667 764.528 705.609C765.816 705.516 766.054 707.608 766.495 722.892ZM1126.74 720.182C1126.99 795.619 1186.09 854.507 1261.7 854.66C1269.79 854.676 1276.4 854.963 1276.39 855.299C1276.39 855.634 1276.01 857.331 1275.56 859.07C1275.1 860.809 1274.25 864.626 1273.66 867.554L1272.6 872.877L1257.09 872.368C1175.45 869.69 1111.6 806.109 1109.29 725.196L1108.83 709.207L1110.98 708.716C1112.16 708.446 1115.57 707.658 1118.55 706.964C1121.54 706.271 1124.59 705.659 1125.34 705.604C1126.49 705.519 1126.7 707.712 1126.74 720.182ZM186.631 714.548C189.781 718.003 189.851 721.659 186.833 725.241C181.305 731.801 171.932 728.357 171.932 719.765C171.932 711.529 180.955 708.327 186.631 714.548ZM369.578 719.957V728.99H360.533H351.487V719.957V710.923H360.533H369.578V719.957ZM544.629 712.287C552.528 716.367 549.809 728.498 540.996 728.498C532.816 728.498 529.227 719.782 535.022 713.995C538.403 710.619 540.632 710.223 544.629 712.287ZM730.046 719.957V728.99H721H711.954V719.957V710.923H721H730.046V719.957ZM907.566 714.548C911.073 718.393 910.885 722.016 906.978 725.919C901.166 731.723 892.867 728.103 892.867 719.765C892.867 711.529 901.89 708.327 907.566 714.548ZM1090.51 719.957V728.99H1081.47H1072.42V719.957V710.923H1081.47H1090.51V719.957ZM1265.56 712.287C1273.46 716.367 1270.74 728.498 1261.93 728.498C1253.75 728.498 1250.16 719.782 1255.96 713.995C1259.34 710.619 1261.57 710.223 1265.56 712.287ZM372.771 753.832C373.568 757.309 374.492 761.217 374.825 762.515L375.431 764.877L357.579 765.374C281.776 767.486 223.475 828.101 225.441 902.759L225.753 914.625L216.959 912.842L208.164 911.06L207.542 906.97C206.699 901.432 208.62 878.56 210.767 868.555C225.972 797.728 289.589 746.394 360.953 747.367L371.324 747.508L372.771 753.832ZM731.572 748.186C732.218 749.188 733.011 752.362 735.041 762.069L735.629 764.886L718.139 765.389C642.625 767.561 586.18 825.228 586.156 900.228L586.152 914.738L577.367 912.775L568.582 910.813L568.693 895.556C569.236 820.846 627.933 756.777 703.813 748.069C714.822 746.806 730.725 746.873 731.572 748.186ZM1093.71 753.832C1094.5 757.309 1095.43 761.217 1095.76 762.515L1096.37 764.877L1078.51 765.374C1003.72 767.458 946.963 824.929 946.737 898.817L946.688 914.625L937.894 912.842L929.099 911.06L928.477 906.97C927.634 901.432 929.555 878.56 931.702 868.555C946.907 797.728 1010.52 746.394 1081.89 747.367L1092.26 747.508L1093.71 753.832ZM379.981 784.625C381.978 785.137 392.631 804.281 391.53 805.38C391.383 805.528 388.418 804.787 384.943 803.733C375.043 800.732 346.512 800.826 335.657 803.896C299.726 814.059 273.939 839.833 264.438 875.08C261.138 887.326 260.93 912.32 264.037 923.581C266.459 932.365 267.385 932.069 255.604 926.274C244.066 920.599 244.695 921.722 243.752 905.14C240.465 847.388 283.866 793.98 341.762 784.534C349.63 783.25 374.846 783.31 379.981 784.625ZM740.631 784.699C743.221 785.683 753.561 806.173 751.081 805.409C735.996 800.764 710.486 800.011 696.597 803.8C642.719 818.499 611.377 871.453 624.955 924.844C625.862 928.415 626.527 931.337 626.431 931.337C624.877 931.337 606.117 920.929 605.643 919.804C604.111 916.17 604.087 889.479 605.608 880.75C614.389 830.336 654.608 791.28 705.17 784.066C711.604 783.147 737.775 783.615 740.631 784.699ZM1100.92 784.625C1102.91 785.137 1113.57 804.281 1112.46 805.38C1112.32 805.528 1109.35 804.787 1105.88 803.733C1097.09 801.068 1067.48 800.846 1058.45 803.377C1020.84 813.918 995.034 839.222 985.387 875.026C982.072 887.328 981.858 912.294 984.972 923.581C987.394 932.365 988.319 932.069 976.538 926.274C965.001 920.599 965.63 921.722 964.687 905.14C961.4 847.388 1004.8 793.98 1062.7 784.534C1070.56 783.25 1095.78 783.31 1100.92 784.625ZM374.161 820.273C446.333 833.039 465.859 927.279 404.666 967.501C352.916 1001.52 283.316 966.233 279.886 904.246C277.043 852.841 323.639 811.336 374.161 820.273ZM742.5 822.001C803.429 840.104 822.122 915.481 776.371 958.582C725.059 1006.92 640.409 970.596 640.51 900.282C640.568 859.696 667.471 827.814 708.336 819.9C714.312 818.742 736.029 820.079 742.5 822.001ZM1095.1 820.273C1167.28 833.04 1186.8 927.273 1125.6 967.501C1073.85 1001.52 1004.25 966.233 1000.82 904.246C997.978 852.841 1044.57 811.336 1095.1 820.273ZM0.0651284 845.783V855.209L6.0497 855.689C18.8637 856.716 34.1363 867.6 40.2367 880.052C53.5482 907.223 36.8997 939.058 6.72993 944.121L0.0651284 945.239V954.096V962.953H3.73131C19.2599 962.953 38.7568 952.846 49.3782 939.29C80.6823 899.336 56.336 842.858 5.26635 836.957L0.0651284 836.357V845.783ZM351.385 837.333C290.67 846.956 277.546 929.191 332.411 956.231C386.391 982.836 443.472 926.165 417.082 872.168C405.261 847.982 377.4 833.209 351.385 837.333ZM711.734 837.412C663.686 844.952 641.665 900.973 671.687 939.29C699.949 975.361 758.193 968.848 777.909 927.412C799.521 881.991 761.052 829.672 711.734 837.412ZM1072.32 837.333C1011.6 846.956 998.481 929.191 1053.35 956.231C1107.38 982.862 1164.42 926.226 1138.02 872.168C1126.2 847.985 1098.34 833.209 1072.32 837.333ZM1432.67 837.467C1391 843.562 1366.83 889.181 1385.03 927.412C1394.5 947.32 1417.92 962.953 1438.27 962.953H1441.93V954.096V945.239L1435.27 944.121C1405.1 939.058 1388.45 907.223 1401.76 880.052C1407.86 867.6 1423.14 856.716 1435.95 855.689L1441.93 855.209V845.848C1441.93 835.188 1442.81 835.983 1432.67 837.467ZM373.954 857.284C406.19 867.227 415.905 908.565 391.505 931.964C361.713 960.532 313.349 937.855 315.996 896.558C317.81 868.236 346.479 848.809 373.954 857.284ZM740.177 859.735C779.892 879.389 771.32 936.739 727.558 944.144C698.056 949.138 671.026 921.227 677.005 891.945C682.982 862.678 714.08 846.821 740.177 859.735ZM1094.89 857.284C1127.13 867.227 1136.84 908.565 1112.44 931.964C1082.65 960.532 1034.28 937.855 1036.93 896.558C1038.75 868.236 1067.41 848.809 1094.89 857.284ZM476.212 882.18C477.51 887.584 477.358 911.899 475.978 919.593C465.245 979.417 409.429 1022.33 350.246 1016.26C344.461 1015.66 339.578 1015.03 339.394 1014.85C338.687 1014.17 329.44 995.058 329.692 994.806C329.839 994.659 333.581 995.445 338.009 996.553C383.475 1007.92 435.588 980.914 452.451 937.244C459.733 918.387 461.558 894.554 457.077 876.839C455.967 872.453 455.059 868.771 455.059 868.658C455.059 868.544 459.627 870.745 465.21 873.547C474.943 878.432 475.397 878.788 476.212 882.18ZM1197.15 882.18C1198.45 887.584 1198.29 911.899 1196.91 919.593C1186.18 979.417 1130.36 1022.33 1071.18 1016.26C1065.4 1015.66 1060.51 1015.03 1060.33 1014.85C1059.62 1014.17 1050.37 995.058 1050.63 994.806C1050.77 994.659 1054.52 995.445 1058.94 996.553C1104.41 1007.92 1156.52 980.914 1173.39 937.244C1180.67 918.387 1182.49 894.554 1178.01 876.839C1176.9 872.453 1175.99 868.771 1175.99 868.658C1175.99 868.544 1180.56 870.745 1186.15 873.547C1195.88 878.432 1196.33 878.788 1197.15 882.18ZM826.747 873.947C837.896 879.389 837.255 877.749 837.172 900.623C836.963 958.131 798.471 1004.09 741.353 1015.02C732.574 1016.7 711.235 1017.05 703.813 1015.63L699.743 1014.85L694.634 1004.62C690.085 995.515 689.737 994.443 691.468 994.832C692.536 995.072 696.464 995.992 700.195 996.874C767.568 1012.81 833.571 947.944 818.352 880.75C815.705 869.065 815.658 868.747 816.627 869.111C817.134 869.302 821.688 871.478 826.747 873.947ZM0.0651284 881.876V891.364L2.77791 891.906C10.8321 893.515 9.68694 908.753 1.51243 908.753C0.282223 908.753 0.0651284 910.108 0.0651284 917.787V926.82H2.6178C11.4355 926.82 22.7361 918.017 25.6552 908.875C30.9125 892.407 20.7651 875.695 3.87152 872.997L0.0651284 872.389V881.876ZM353.296 873.83C323.085 883.824 328.944 926.368 360.533 926.368C395.318 926.368 396.713 875.364 361.992 872.981C359.199 872.789 355.286 873.171 353.296 873.83ZM712.399 874.188C693.085 881.093 687.641 904.359 701.968 918.757C722.493 939.381 756.482 917.545 746.273 890.296C741.295 877.009 725.507 869.502 712.399 874.188ZM1074.23 873.83C1044.02 883.824 1049.88 926.368 1081.47 926.368C1116.25 926.368 1117.65 875.364 1082.93 872.981C1080.13 872.789 1076.22 873.171 1074.23 873.83ZM1433.33 874.243C1418.91 879.224 1411.62 894.08 1416.34 908.875C1419.26 918.017 1430.56 926.82 1439.38 926.82H1441.93V917.787C1441.93 910.108 1441.72 908.753 1440.49 908.753C1432.31 908.753 1431.17 893.515 1439.22 891.906L1441.93 891.364V881.992C1441.93 871.232 1441.97 871.262 1433.33 874.243ZM505.897 887.53L512.864 889.042L513.472 893.089C514.321 898.735 513.123 915.48 511.041 927.1C497.748 1001.29 429.515 1056.15 354.995 1052.57L349.457 1052.3L347.919 1044.57C347.073 1040.31 346.202 1036.37 345.984 1035.8C345.697 1035.05 349.762 1034.76 360.749 1034.73C435.929 1034.57 494.905 976.037 495.24 901.262C495.31 885.671 495.366 885.202 497.121 885.604C498.116 885.832 502.066 886.698 505.897 887.53ZM861.981 886.532C864.789 887.229 868.671 888.071 870.608 888.404L874.129 889.01L873.618 904.528C871.125 980.342 816.391 1040.79 740.5 1051.54C734.139 1052.44 711.187 1052.82 710.405 1052.04C709.965 1051.6 706.591 1037.27 706.551 1035.67C706.536 1035.11 712.046 1034.75 721.226 1034.72C796.788 1034.47 855.774 975.419 855.847 899.946C855.855 891.873 856.09 885.267 856.368 885.267C856.647 885.267 859.173 885.837 861.981 886.532ZM1226.83 887.53L1233.8 889.042L1234.41 893.089C1235.26 898.735 1234.06 915.48 1231.98 927.1C1218.69 1001.26 1150.43 1056.15 1075.93 1052.57L1070.39 1052.3L1068.85 1044.57C1068.01 1040.31 1067.14 1036.37 1066.92 1035.8C1066.63 1035.05 1070.7 1034.76 1081.68 1034.73C1158.3 1034.56 1218.67 972.596 1216.56 896.29C1216.26 885.568 1216.31 885.196 1218.06 885.6C1219.05 885.83 1223 886.698 1226.83 887.53ZM189.118 899.779V908.753H180.073H171.027V899.779V890.804H180.073H189.118V899.779ZM550.038 899.754V908.753H540.992H531.947V899.764V890.776L540.992 890.765L550.038 890.754V899.754ZM910.053 899.764V908.753H901.008H891.962V899.754V890.754L901.008 890.765L910.053 890.776V899.764ZM1270.97 899.754V908.753H1261.93H1252.88V899.764V890.776L1261.93 890.765L1270.97 890.754V899.754ZM366.695 894.124C372.13 899.789 368.43 908.302 360.533 908.302C357.023 908.302 355.935 907.872 354.122 905.767C349.169 900.017 352.979 891.59 360.533 891.59C363.441 891.59 364.801 892.149 366.695 894.124ZM725.573 892.52C732.824 896.396 729.343 908.753 721 908.753C717.562 908.753 711.954 903.742 711.954 900.668C711.954 893.868 719.57 889.312 725.573 892.52ZM1087.63 894.124C1093.06 899.789 1089.37 908.302 1081.47 908.302C1077.96 908.302 1076.87 907.872 1075.06 905.767C1070.1 900.017 1073.91 891.59 1081.47 891.59C1084.38 891.59 1085.74 892.149 1087.63 894.124ZM165.154 1018.61C138.94 1024.94 119.397 1048.39 117.135 1076.24L116.505 1084H126.127H135.749V1078.22C135.749 1061.59 147.475 1044.85 163.688 1038.33C192.377 1026.79 225.191 1048.83 225.287 1079.71L225.301 1084H234.346H243.392L243.377 1078.35C243.267 1039.28 203.946 1009.25 165.154 1018.61ZM526.519 1018.44C498.987 1024.71 477.765 1050.75 477.689 1078.35L477.673 1084H486.719H495.764L495.778 1079.71C495.874 1048.83 528.688 1026.79 557.378 1038.33C573.59 1044.85 585.316 1061.59 585.316 1078.22V1084H594.939H604.56L603.93 1076.24C600.744 1037.03 564.318 1009.83 526.519 1018.44ZM886.089 1018.61C859.875 1024.94 840.332 1048.39 838.07 1076.24L837.44 1084H847.061H856.684V1078.22C856.684 1061.59 868.41 1044.85 884.622 1038.33C913.312 1026.79 946.126 1048.83 946.222 1079.71L946.236 1084H955.281H964.327L964.311 1078.35C964.202 1039.28 924.881 1009.25 886.089 1018.61ZM1247.45 1018.44C1219.92 1024.71 1198.7 1050.75 1198.62 1078.35L1198.61 1084H1207.65H1216.7L1216.71 1079.71C1216.81 1048.83 1249.62 1026.79 1278.31 1038.33C1294.52 1044.85 1306.25 1061.59 1306.25 1078.22V1084H1315.87H1325.5L1324.86 1076.24C1321.68 1037.03 1285.25 1009.83 1247.45 1018.44ZM168.766 1055.45C159.965 1059.61 154.105 1068.35 153.166 1078.7L152.684 1084H162.308H171.932V1080.21C171.932 1072.39 180.248 1068.48 186.128 1073.53C188.223 1075.33 188.666 1076.44 188.666 1079.86V1084H198.059H207.453L207.014 1077.9C205.664 1059.11 185.733 1047.41 168.766 1055.45ZM528.51 1056.05C519.503 1060.54 514.786 1067.67 514.051 1077.9L513.612 1084H523.006H532.399V1079.86C532.399 1076.44 532.842 1075.33 534.937 1073.53C540.817 1068.48 549.133 1072.39 549.133 1080.21V1084H558.757H568.381L567.899 1078.7C566.075 1058.61 546.24 1047.2 528.51 1056.05ZM889.701 1055.45C880.9 1059.61 875.04 1068.35 874.101 1078.7L873.619 1084H883.243H892.867V1080.21C892.867 1072.39 901.183 1068.48 907.063 1073.53C909.158 1075.33 909.601 1076.44 909.601 1079.86V1084H918.994H928.388L927.949 1077.9C926.599 1059.11 906.668 1047.41 889.701 1055.45ZM1249.44 1056.05C1240.44 1060.54 1235.72 1067.67 1234.99 1077.9L1234.55 1084H1243.94H1253.33V1079.86C1253.33 1076.44 1253.78 1075.33 1255.87 1073.53C1261.75 1068.48 1270.07 1072.39 1270.07 1080.21V1084H1279.69H1289.32L1288.83 1078.7C1287.01 1058.61 1267.17 1047.2 1249.44 1056.05Z" fill="#E5EEFF"/>
</svg>
