<svg width="136" height="187" viewBox="0 0 136 187" fill="none" xmlns="http://www.w3.org/2000/svg">
<circle cx="2" cy="2" r="2" fill="#0A368F"/>
<circle cx="14" cy="2" r="2" fill="#0A368F"/>
<circle cx="26" cy="2" r="2" fill="#0A368F"/>
<circle cx="38" cy="2" r="2" fill="#0A368F"/>
<circle cx="50" cy="2" r="2" fill="#0A368F"/>
<circle cx="62" cy="2" r="2" fill="#0A368F"/>
<circle cx="74" cy="2" r="2" fill="#0A368F"/>
<circle cx="86" cy="2" r="2" fill="#0A368F"/>
<circle cx="98" cy="2" r="2" fill="#0A368F"/>
<circle cx="110" cy="2" r="2" fill="#0A368F"/>
<circle cx="122" cy="2" r="2" fill="#0A368F"/>
<circle cx="2" cy="16" r="2" fill="#0A368F"/>
<circle cx="14" cy="16" r="2" fill="#0A368F"/>
<circle cx="26" cy="16" r="2" fill="#0A368F"/>
<circle cx="38" cy="16" r="2" fill="#0A368F"/>
<circle cx="50" cy="16" r="2" fill="#0A368F"/>
<circle cx="62" cy="16" r="2" fill="#0A368F"/>
<circle cx="74" cy="16" r="2" fill="#0A368F"/>
<circle cx="86" cy="16" r="2" fill="#0A368F"/>
<circle cx="98" cy="16" r="2" fill="#0A368F"/>
<circle cx="110" cy="16" r="2" fill="#0A368F"/>
<circle cx="122" cy="16" r="2" fill="#0A368F"/>
<circle cx="2" cy="30" r="2" fill="#0A368F"/>
<circle cx="14" cy="30" r="2" fill="#0A368F"/>
<circle cx="26" cy="30" r="2" fill="#0A368F"/>
<circle cx="38" cy="30" r="2" fill="#0A368F"/>
<circle cx="50" cy="30" r="2" fill="#0A368F"/>
<circle cx="62" cy="30" r="2" fill="#0A368F"/>
<circle cx="74" cy="30" r="2" fill="#0A368F"/>
<circle cx="86" cy="30" r="2" fill="#0A368F"/>
<circle cx="98" cy="30" r="2" fill="#0A368F"/>
<circle cx="110" cy="30" r="2" fill="#0A368F"/>
<circle cx="122" cy="30" r="2" fill="#0A368F"/>
<circle cx="2" cy="45" r="2" fill="#0A368F"/>
<circle cx="14" cy="45" r="2" fill="#0A368F"/>
<circle cx="26" cy="45" r="2" fill="#0A368F"/>
<circle cx="38" cy="45" r="2" fill="#0A368F"/>
<circle cx="50" cy="45" r="2" fill="#0A368F"/>
<circle cx="62" cy="45" r="2" fill="#0A368F"/>
<circle cx="74" cy="45" r="2" fill="#0A368F"/>
<circle cx="86" cy="45" r="2" fill="#0A368F"/>
<circle cx="98" cy="45" r="2" fill="#0A368F"/>
<circle cx="110" cy="45" r="2" fill="#0A368F"/>
<circle cx="122" cy="45" r="2" fill="#0A368F"/>
<circle cx="2" cy="59" r="2" fill="#0A368F"/>
<circle cx="14" cy="59" r="2" fill="#0A368F"/>
<circle cx="26" cy="59" r="2" fill="#0A368F"/>
<circle cx="38" cy="59" r="2" fill="#0A368F"/>
<circle cx="50" cy="59" r="2" fill="#0A368F"/>
<circle cx="62" cy="59" r="2" fill="#0A368F"/>
<circle cx="74" cy="59" r="2" fill="#0A368F"/>
<circle cx="86" cy="59" r="2" fill="#0A368F"/>
<circle cx="98" cy="59" r="2" fill="#0A368F"/>
<circle cx="110" cy="59" r="2" fill="#0A368F"/>
<circle cx="122" cy="59" r="2" fill="#0A368F"/>
<circle cx="2" cy="73" r="2" fill="#0A368F"/>
<circle cx="14" cy="73" r="2" fill="#0A368F"/>
<circle cx="26" cy="73" r="2" fill="#0A368F"/>
<circle cx="38" cy="73" r="2" fill="#0A368F"/>
<circle cx="50" cy="73" r="2" fill="#0A368F"/>
<circle cx="62" cy="73" r="2" fill="#0A368F"/>
<circle cx="74" cy="73" r="2" fill="#0A368F"/>
<circle cx="86" cy="73" r="2" fill="#0A368F"/>
<circle cx="98" cy="73" r="2" fill="#0A368F"/>
<circle cx="110" cy="73" r="2" fill="#0A368F"/>
<circle cx="122" cy="73" r="2" fill="#0A368F"/>
<circle cx="2" cy="87" r="2" fill="#0A368F"/>
<circle cx="14" cy="87" r="2" fill="#0A368F"/>
<circle cx="26" cy="87" r="2" fill="#0A368F"/>
<circle cx="38" cy="87" r="2" fill="#0A368F"/>
<circle cx="50" cy="87" r="2" fill="#0A368F"/>
<circle cx="62" cy="87" r="2" fill="#0A368F"/>
<circle cx="74" cy="87" r="2" fill="#0A368F"/>
<circle cx="86" cy="87" r="2" fill="#0A368F"/>
<circle cx="98" cy="87" r="2" fill="#0A368F"/>
<circle cx="110" cy="87" r="2" fill="#0A368F"/>
<circle cx="122" cy="87" r="2" fill="#0A368F"/>
<circle cx="2" cy="101" r="2" fill="#0A368F"/>
<circle cx="14" cy="101" r="2" fill="#0A368F"/>
<circle cx="26" cy="101" r="2" fill="#0A368F"/>
<circle cx="38" cy="101" r="2" fill="#0A368F"/>
<circle cx="50" cy="101" r="2" fill="#0A368F"/>
<circle cx="62" cy="101" r="2" fill="#0A368F"/>
<circle cx="74" cy="101" r="2" fill="#0A368F"/>
<circle cx="86" cy="101" r="2" fill="#0A368F"/>
<circle cx="98" cy="101" r="2" fill="#0A368F"/>
<circle cx="110" cy="101" r="2" fill="#0A368F"/>
<circle cx="122" cy="101" r="2" fill="#0A368F"/>
<circle cx="2" cy="115" r="2" fill="#0A368F"/>
<circle cx="14" cy="115" r="2" fill="#0A368F"/>
<circle cx="26" cy="115" r="2" fill="#0A368F"/>
<circle cx="38" cy="115" r="2" fill="#0A368F"/>
<circle cx="50" cy="115" r="2" fill="#0A368F"/>
<circle cx="62" cy="115" r="2" fill="#0A368F"/>
<circle cx="74" cy="115" r="2" fill="#0A368F"/>
<circle cx="86" cy="115" r="2" fill="#0A368F"/>
<circle cx="98" cy="115" r="2" fill="#0A368F"/>
<circle cx="110" cy="115" r="2" fill="#0A368F"/>
<circle cx="122" cy="115" r="2" fill="#0A368F"/>
<circle cx="2" cy="129" r="2" fill="#0A368F"/>
<circle cx="14" cy="129" r="2" fill="#0A368F"/>
<circle cx="26" cy="129" r="2" fill="#0A368F"/>
<circle cx="38" cy="129" r="2" fill="#0A368F"/>
<circle cx="50" cy="129" r="2" fill="#0A368F"/>
<circle cx="62" cy="129" r="2" fill="#0A368F"/>
<circle cx="74" cy="129" r="2" fill="#0A368F"/>
<circle cx="86" cy="129" r="2" fill="#0A368F"/>
<circle cx="98" cy="129" r="2" fill="#0A368F"/>
<circle cx="110" cy="129" r="2" fill="#0A368F"/>
<circle cx="122" cy="129" r="2" fill="#0A368F"/>
<circle cx="2" cy="143" r="2" fill="#0A368F"/>
<circle cx="14" cy="143" r="2" fill="#0A368F"/>
<circle cx="26" cy="143" r="2" fill="#0A368F"/>
<circle cx="38" cy="143" r="2" fill="#0A368F"/>
<circle cx="50" cy="143" r="2" fill="#0A368F"/>
<circle cx="62" cy="143" r="2" fill="#0A368F"/>
<circle cx="74" cy="143" r="2" fill="#0A368F"/>
<circle cx="86" cy="143" r="2" fill="#0A368F"/>
<circle cx="98" cy="143" r="2" fill="#0A368F"/>
<circle cx="110" cy="143" r="2" fill="#0A368F"/>
<circle cx="122" cy="143" r="2" fill="#0A368F"/>
<circle cx="2" cy="157" r="2" fill="#0A368F"/>
<circle cx="14" cy="157" r="2" fill="#0A368F"/>
<circle cx="26" cy="157" r="2" fill="#0A368F"/>
<circle cx="38" cy="157" r="2" fill="#0A368F"/>
<circle cx="50" cy="157" r="2" fill="#0A368F"/>
<circle cx="62" cy="157" r="2" fill="#0A368F"/>
<circle cx="74" cy="157" r="2" fill="#0A368F"/>
<circle cx="86" cy="157" r="2" fill="#0A368F"/>
<circle cx="98" cy="157" r="2" fill="#0A368F"/>
<circle cx="110" cy="157" r="2" fill="#0A368F"/>
<circle cx="122" cy="157" r="2" fill="#0A368F"/>
<circle cx="2" cy="171" r="2" fill="#0A368F"/>
<circle cx="14" cy="171" r="2" fill="#0A368F"/>
<circle cx="26" cy="171" r="2" fill="#0A368F"/>
<circle cx="38" cy="171" r="2" fill="#0A368F"/>
<circle cx="50" cy="171" r="2" fill="#0A368F"/>
<circle cx="62" cy="171" r="2" fill="#0A368F"/>
<circle cx="74" cy="171" r="2" fill="#0A368F"/>
<circle cx="86" cy="171" r="2" fill="#0A368F"/>
<circle cx="98" cy="171" r="2" fill="#0A368F"/>
<circle cx="110" cy="171" r="2" fill="#0A368F"/>
<circle cx="122" cy="171" r="2" fill="#0A368F"/>
<circle cx="2" cy="185" r="2" fill="#0A368F"/>
<circle cx="14" cy="185" r="2" fill="#0A368F"/>
<circle cx="26" cy="185" r="2" fill="#0A368F"/>
<circle cx="38" cy="185" r="2" fill="#0A368F"/>
<circle cx="50" cy="185" r="2" fill="#0A368F"/>
<circle cx="62" cy="185" r="2" fill="#0A368F"/>
<circle cx="74" cy="185" r="2" fill="#0A368F"/>
<circle cx="86" cy="185" r="2" fill="#0A368F"/>
<circle cx="98" cy="185" r="2" fill="#0A368F"/>
<circle cx="110" cy="185" r="2" fill="#0A368F"/>
<circle cx="122" cy="185" r="2" fill="#0A368F"/>
<circle cx="134" cy="2" r="2" fill="#0A368F"/>
<circle cx="134" cy="16" r="2" fill="#0A368F"/>
<circle cx="134" cy="30" r="2" fill="#0A368F"/>
<circle cx="134" cy="44" r="2" fill="#0A368F"/>
<circle cx="134" cy="59" r="2" fill="#0A368F"/>
<circle cx="134" cy="73" r="2" fill="#0A368F"/>
<circle cx="134" cy="87" r="2" fill="#0A368F"/>
<circle cx="134" cy="101" r="2" fill="#0A368F"/>
<circle cx="134" cy="115" r="2" fill="#0A368F"/>
<circle cx="134" cy="129" r="2" fill="#0A368F"/>
<circle cx="134" cy="143" r="2" fill="#0A368F"/>
<circle cx="134" cy="157" r="2" fill="#0A368F"/>
<circle cx="134" cy="171" r="2" fill="#0A368F"/>
<circle cx="134" cy="185" r="2" fill="#0A368F"/>
</svg>
