<svg width="500" height="500" viewBox="0 0 500 500" fill="none" xmlns="http://www.w3.org/2000/svg">
<g clip-path="url(#clip0_1510_5)">
<path d="M250.106 298.031L63.049 110.982C57.911 105.832 51.041 102.998 43.715 102.998C36.386 102.998 29.52 105.832 24.374 110.982L7.992 127.372C2.837 132.515 0 139.389 0 146.714C0 154.039 2.837 160.905 7.992 166.051L230.699 388.763C235.862 393.929 242.76 396.758 250.093 396.738C257.459 396.758 264.35 393.933 269.516 388.763L492.008 166.258C497.163 161.112 500 154.246 500 146.917C500 139.592 497.163 132.726 492.008 127.576L475.626 111.189C464.963 100.527 447.606 100.527 436.947 111.189L250.106 298.031Z" fill="white"/>
</g>
<defs>
<clipPath id="clip0_1510_5">
<rect width="500" height="500" fill="white" transform="matrix(-1 0 0 -1 500 500)"/>
</clipPath>
</defs>
</svg>
