<svg width="152" height="108" viewBox="0 0 152 108" fill="none" xmlns="http://www.w3.org/2000/svg">
<path d="M76.976 16.9798C77.8294 17.0308 78.6776 17.1479 79.513 17.33C80.9423 17.7374 82.3716 17.8088 82.9434 16.3295C83.2507 15.5719 82.636 14.4428 82.3573 13.1135C82.7861 13.1135 83.6509 12.7991 84.2869 13.0635C86.6381 14.0426 87.4814 13.0635 87.4886 10.6551C89.5254 10.4979 91.212 9.94043 91.4764 7.50344C91.5193 7.08179 92.5913 6.48862 93.213 6.46004C97.8654 6.20991 98.2156 5.89545 98.3371 1.74328L100.653 3.01538L100.903 0.0852751C102.461 -0.629384 103.461 3.45132 105.555 1.0858C107.449 3.06541 109 2.92962 113.688 0.306821C113.216 1.0858 112.873 1.65038 112.487 2.27213C114.46 3.93729 115.232 1.30734 117.147 1.06436C113.231 4.90922 115.56 7.94653 117.383 11.2411C117.962 12.2774 117.547 14.0211 117.226 15.3504C116.861 16.8369 115.925 18.209 115.539 19.6741C114.939 21.961 114.603 24.3122 114.017 27.3424L111.873 24.9197C110.553 26.0618 109.303 27.2813 108.128 28.5716C107.699 29.0861 107.885 30.1081 107.835 30.4869L117.276 31.2015L117.347 30.7585C117.073 30.6724 116.808 30.5624 116.554 30.4297C116.283 30.2138 116.032 29.9746 115.803 29.715L118.069 28.3501C119.034 31.2087 118.784 34.9678 122.871 35.6396C123.272 35.7039 123.743 35.3323 124.165 35.1679C126.831 37.1689 129.375 39.6846 132.955 41.0638C131.969 42.3359 130.725 43.2078 132.669 44.4513C133.255 44.8158 133.055 46.4452 133.22 47.5029L134.313 48.0246C134.631 47.4903 134.895 46.9252 135.099 46.338C135.864 43.2293 138.401 41.5784 140.516 39.5631C141.66 38.4768 142.517 38.3982 143.647 39.6274C144.64 40.7137 146.162 41.3568 146.998 42.486C148.606 44.7157 150.943 47.1384 151.043 49.554C151.179 52.7985 149.085 55.8716 145.969 57.7011C143.318 59.2519 140.831 58.7588 138.601 56.8507C136.571 55.114 134.635 53.2774 132.548 51.3478C133.527 53.892 131.119 54.7782 129.768 56.3504C129.453 56.722 129.475 57.3795 129.053 57.4438L125.165 59.8165C124.722 59.8951 123.858 60.0738 122.979 60.1738C122.1 60.2739 121.006 60.5812 120.156 60.3311C118.606 59.8491 117.113 59.1997 115.703 58.3943C114.91 57.9584 114.381 57.0579 113.617 56.5576C111.701 55.307 110.901 53.306 109.836 51.455C109.672 51.1691 109.007 51.162 109.236 51.2334C108.521 49.5683 108.042 48.3748 107.513 47.1099L105.612 48.0604L105.055 46.481L100.695 44.0654L97.3294 46.7883H99.5235C99.5235 49.068 99.5235 51.262 99.5235 53.456C99.5968 54.0491 99.5556 54.6508 99.402 55.2284C98.623 56.9078 97.7725 58.5587 96.8363 60.1524C95.9001 61.7461 95.164 63.7257 92.9129 64.1187C92.7628 64.1187 92.5269 64.2045 92.4983 64.3046C91.5621 67.0488 88.6249 66.7987 86.7382 68.1137C86.3308 68.3995 85.4804 68.0351 84.7229 67.9636L83.4365 72.9662C81.7713 71.8299 79.5559 71.8657 79.5201 69.3929C78.8499 69.2912 78.1748 69.2244 77.4977 69.1928C77.4048 68.9856 77.0974 68.2495 76.7115 67.3347C74.3603 68.6783 71.7947 69.35 71.3373 71.6227L65.4342 75.9106L63.8048 75.4961C63.0901 76.5109 62.6113 77.7187 61.7251 78.4334C59.5097 80.22 60.6317 81.6136 61.7823 83.3645C62.7185 84.7938 63.1401 86.5233 63.7905 88.117L62.7328 88.5458L60.21 83.0929C58.7807 82.3283 57.5944 81.6636 56.4009 81.1205C55.7792 80.8346 54.8287 80.3272 54.4713 80.5702C51.87 82.3354 48.2038 82.3569 46.46 85.5728C45.8934 86.5963 45.17 87.5247 44.316 88.3242C42.9869 89.4932 42.1431 91.1171 41.9505 92.8766C41.3788 97.1074 40.3211 101.274 39.392 105.447C39.1798 106.092 38.8476 106.691 38.4129 107.213C38.3486 107.306 37.634 107.127 37.6268 107.041C37.4797 106.32 37.4797 105.576 37.6268 104.854C39.0133 101.031 40.364 97.2361 39.4706 93.041C39.4335 92.7389 39.4635 92.4324 39.5587 92.1433C39.6538 91.8542 39.8117 91.5897 40.0209 91.3687C42.3007 89.2676 42.3221 86.3089 43.0439 83.6289C43.1654 83.1644 42.5723 82.5069 41.9862 82.0638C42.8152 78.3333 39.3063 77.976 37.4553 76.2108L34.9111 77.976C35.1612 76.3323 37.248 74.9458 35.197 73.5665C33.9249 72.709 32.5813 71.9586 30.9662 70.9723C31.3521 69.6716 30.5017 68.8641 28.4577 69.1142C28.0146 65.9697 27.1999 63.0753 24.1698 61.9676C25.0384 61.0761 25.8387 60.1206 26.5639 59.109C26.7068 58.8732 25.9564 58.087 25.3418 57.1222C25.7349 54.1064 25.2918 52.4484 22.3188 52.6056C23.8911 51.0119 23.7982 50.09 21.4183 47.9817C21.011 50.0685 20.6608 51.848 20.3321 53.5418H9.56929V53.406L16.6373 52.2554C19.2458 51.8195 20.425 49.3253 19.9461 46.7525C19.6102 44.9659 19.1171 43.7438 17.3233 43.6509C15.9181 43.5906 14.5141 43.7967 13.1855 44.2584C8.80461 45.8092 4.48806 47.5172 0 48.9322C1.09301 48.4571 2.16158 47.9276 3.20168 47.3457C5.6744 45.7806 8.20429 44.2584 10.4841 42.4646C11.8062 41.4283 14.4719 40.9281 15.8297 41.9929C17.9737 43.6581 18.9528 43.2936 19.646 40.7851C19.7961 40.2563 20.6179 39.8346 21.2111 39.513C22.6404 38.7483 24.1626 38.1838 25.499 37.3047C26.0922 36.9188 26.3066 35.9612 26.8212 35.0321L22.1687 34.6176V34.1031H25.6634C24.9834 32.9319 24.2365 31.8009 23.4265 30.7156C22.5118 29.6436 22.6333 28.9218 23.8625 28.3429C25.7563 27.4424 26.5139 26.056 26.0065 23.9477C25.9064 23.5332 26.4281 22.9615 26.6711 22.4613C26.8569 22.0682 27.1999 21.6966 27.2285 21.2964C27.1712 20.3203 27.3324 19.3437 27.7002 18.4377C27.2571 17.8017 26.814 17.1656 25.9636 15.965L28.9294 16.4724C29.2224 14.8001 30.0086 13.0635 27.5501 12.2774C27.414 12.2038 27.3079 12.085 27.25 11.9415C26.4996 10.455 25.7492 8.96134 24.8487 7.15325C26.328 7.98226 27.9217 8.58257 29.1795 9.64742C30.7446 10.9267 32.224 10.1048 33.5461 9.64742C34.1965 9.41158 34.418 7.97511 34.7467 7.26045C35.6544 7.55346 36.8407 8.26812 37.9984 8.22524C39.8137 8.15378 41.5717 7.67496 43.3941 8.45393C43.6657 8.56828 44.4018 7.77501 44.8234 7.31763C45.4952 6.60297 46.0884 5.83114 46.7173 5.08074C47.2747 6.08841 47.8822 7.07464 48.3538 8.11805C48.4466 8.63322 48.4466 9.16083 48.3538 9.676C50.5907 9.7832 50.1548 11.4627 50.1191 12.3846C51.9271 14.3356 54.1069 15.7649 54.7215 17.6945C55.1074 18.8737 55.3647 20.3673 56.2222 20.9748C57.3586 21.7823 58.988 22.011 60.4387 22.154C60.7532 22.154 61.3392 20.8604 61.575 20.0886C62.0396 18.5378 63.1687 18.4663 65.863 20.1458L62.7828 21.9753C63.0187 22.547 63.2688 23.1259 63.426 23.4904C62.7181 23.6192 62.0353 23.8605 61.4035 24.205C61.2392 24.348 61.6822 25.2413 61.8466 25.7844C62.4684 25.5129 63.2759 25.3985 63.6833 24.9411C64.8911 23.6119 65.9488 22.1468 67.1065 20.6532C67.8855 21.8681 68.1571 24.348 70.2582 23.7262C70.9728 25.8702 71.5874 27.764 72.2521 29.6793C72.4522 30.251 73.0525 30.8371 72.9667 31.3302C72.5308 33.8958 74.7605 33.6528 76.0469 34.346C76.2899 34.4747 77.0045 34.1674 77.1975 33.8672C78.1694 32.3164 78.8198 30.4869 80.0561 29.2005C80.6779 28.5502 82.2859 28.8503 83.9868 28.6574C83.8081 27.9427 83.8724 26.349 83.1935 25.9059C82.3716 25.3628 80.9209 25.7773 79.3986 25.7773C80.6707 24.9983 82.1429 24.5766 82.5289 23.6905C82.8004 23.0544 81.6856 21.7323 81.0352 20.8318C80.2943 19.8406 79.4771 18.9087 78.5911 18.0447C78.091 17.608 77.5555 17.2136 76.9902 16.8655L76.976 16.9798Z" fill="white"/>
</svg>
